<svg width="24" height="25" viewBox="0 0 24 25" fill="none" xmlns="http://www.w3.org/2000/svg">
<path d="M15.39 6.15141L16.8 8.9714C16.99 9.3614 17.5 9.73139 17.93 9.81139L20.48 10.2314C22.11 10.5014 22.49 11.6814 21.32 12.8614L19.33 14.8514C19 15.1814 18.81 15.8314 18.92 16.3014L19.49 18.7614C19.94 20.7014 18.9 21.4614 17.19 20.4414L14.8 19.0214C14.37 18.7614 13.65 18.7614 13.22 19.0214L10.83 20.4414C9.12 21.4514 8.08001 20.7014 8.53001 18.7614L9.10002 16.3014C9.21002 15.8414 9.02001 15.1914 8.69001 14.8514L6.70002 12.8614C5.53002 11.6914 5.91002 10.5114 7.54002 10.2314L10.09 9.81139C10.52 9.74139 11.03 9.3614 11.22 8.9714L12.63 6.15141C13.38 4.62141 14.62 4.62141 15.39 6.15141Z" stroke="#005BB2" stroke-width="1.5" stroke-linecap="round" stroke-linejoin="round"/>
<path d="M8 5.94141H2" stroke="#005BB2" stroke-width="1.5" stroke-linecap="round" stroke-linejoin="round"/>
<path d="M5 19.9414H2" stroke="#005BB2" stroke-width="1.5" stroke-linecap="round" stroke-linejoin="round"/>
<path d="M3 12.9414H2" stroke="#005BB2" stroke-width="1.5" stroke-linecap="round" stroke-linejoin="round"/>
</svg>
