<svg width="552" height="663" viewBox="0 0 552 663" fill="none" xmlns="http://www.w3.org/2000/svg">
<path d="M190.519 264.194C190.411 264.265 190.303 264.301 190.231 264.372C188.646 265.718 187.637 266.851 188.682 269.437C190.519 273.971 187.997 279.355 183.746 281.728C179.134 284.278 173.658 283.534 170.055 279.815C166.632 276.273 166.056 270.783 168.686 266.568C171.352 262.317 176.684 260.263 181.476 262.034C183.278 262.707 184.322 262.388 185.367 261.042C185.656 260.688 186.088 260.475 186.52 260.156C180.323 255.693 171.388 257.039 166.416 262.955C161.336 268.976 161.985 277.796 167.893 283.251C173.514 288.422 182.629 288.493 188.177 283.357C193.87 278.15 194.915 269.401 190.519 264.194Z" fill="#60A9FC"/>
<path d="M475.534 354.622L475.581 354.682C476.33 355.633 476.603 356.741 476.808 357.968C476.842 358.169 476.874 358.376 476.907 358.585C477.065 359.606 477.236 360.703 477.679 361.714C479.437 367.635 479.681 373.53 477.745 379.48C477.454 380.161 477.196 380.871 476.943 381.575L476.889 381.725C476.656 382.375 476.424 383.019 476.168 383.649C475.886 384.09 475.619 384.529 475.356 384.963L475.354 384.965C475.082 385.414 474.813 385.857 474.529 386.299C470.939 391.842 466.303 396.038 459.995 398.239C459.403 398.295 458.806 398.295 458.183 398.295H369.101C368.929 398.295 368.761 398.297 368.596 398.298C367.806 398.307 367.091 398.314 366.37 398.125C364.805 397.56 364.516 396.291 364.153 394.695C364.131 394.596 364.108 394.496 364.085 394.394L364.083 394.388C363.389 391.527 362.727 388.625 362.064 385.716C361.207 381.958 360.347 378.188 359.411 374.477M475.534 354.622L358.926 374.599M475.534 354.622L475.507 354.551M475.534 354.622L475.507 354.551M359.411 374.477C359.411 374.477 359.411 374.477 359.411 374.477L358.926 374.599M359.411 374.477C359.411 374.478 359.411 374.478 359.411 374.479L358.926 374.599M359.411 374.477C358.964 372.676 358.593 371.266 358.166 370.203C357.737 369.137 357.226 368.349 356.457 367.864C355.689 367.379 354.747 367.247 353.574 367.304C352.402 367.361 350.925 367.612 349.043 367.963L349.036 367.964L348.079 368.156L348.174 368.646M358.926 374.599C357.134 367.366 356.686 367.046 349.134 368.454L348.174 368.646M348.174 368.646C344.653 369.328 341.176 370.234 337.705 371.138C335.309 371.763 332.916 372.386 330.512 372.935L317.216 388.043L317.216 388.044L317.216 388.051M348.174 368.646L348.076 368.156L348.077 368.156C345.086 368.735 342.13 369.474 339.194 370.235C338.654 370.375 338.115 370.515 337.576 370.655C335.181 371.279 332.796 371.901 330.4 372.448L330.398 372.448C326.344 373.397 323.233 375.222 321.039 377.873C318.849 380.52 317.607 383.949 317.216 388.051M317.216 388.051L317.215 388.056M317.216 388.051L317.215 388.056M317.215 388.056C317.15 388.706 317.09 389.237 316.836 389.704C316.572 390.105 316.237 390.281 315.836 390.37C315.518 390.44 315.201 390.452 314.841 390.465C314.688 390.47 314.529 390.476 314.358 390.487C308.941 390.735 304.346 388.81 300.668 384.944C292.568 376.416 284.756 367.608 276.938 358.793C273.027 354.383 269.114 349.971 265.162 345.591C264.793 345.171 264.424 344.749 264.054 344.326C261.675 341.606 259.266 338.853 256.713 336.243C253.955 332.908 251.007 329.704 248.003 326.507C246.879 325.303 246.063 324.395 245.534 323.641C245.003 322.886 244.813 322.356 244.833 321.902C244.854 321.452 245.086 320.961 245.68 320.295C246.274 319.628 247.169 318.851 248.405 317.823L248.405 317.823C252.862 314.115 257.384 310.534 261.911 306.951C264.727 304.72 267.546 302.489 270.35 300.225L270.35 300.225C270.723 299.924 271.083 299.607 271.433 299.299C271.483 299.255 271.533 299.211 271.583 299.168C271.983 298.816 272.374 298.478 272.779 298.17C273.566 297.57 274.386 297.097 275.371 296.886C276.374 297.016 277.01 297.723 277.706 298.609L277.707 298.609C279.032 300.291 280.484 301.84 281.919 303.371L281.926 303.379C283.368 304.917 284.794 306.438 286.09 308.083L286.099 308.094L286.109 308.106C286.627 308.689 287.144 309.206 287.65 309.712C290.02 312.513 292.478 315.21 294.925 317.895L295.225 318.224C297.777 321.025 300.314 323.818 302.738 326.721L302.752 326.738L302.768 326.754L304.304 328.29L304.311 328.297L304.318 328.304C305.267 329.18 306.068 330.173 306.902 331.208C307.136 331.498 307.372 331.792 307.615 332.087C308.712 333.418 309.921 334.748 311.558 335.784L312.073 336.11L312.292 335.541C313.252 333.043 314.15 330.67 314.985 328.294L314.987 328.287L315.56 326.567C316.616 323.751 317.639 320.92 318.662 318.092L318.663 318.089L318.663 318.088C319.687 315.256 320.71 312.426 321.764 309.613L321.768 309.604L321.771 309.596C321.837 309.397 321.918 309.172 322.003 308.936C322.142 308.55 322.293 308.131 322.412 307.737C324.135 302.862 325.958 298.013 327.782 293.159C330.685 285.435 333.592 277.702 336.107 269.841M317.215 388.056L335.631 269.688M336.107 269.841C336.107 269.841 336.107 269.84 336.108 269.84L335.631 269.688M336.107 269.841C336.107 269.841 336.107 269.841 336.107 269.842L335.631 269.688M336.107 269.841C337.49 265.565 339.479 262.04 343.042 259.503M335.631 269.688C337.039 265.335 339.087 261.686 342.799 259.062M343.042 259.503C343.025 259.51 343.007 259.517 342.99 259.524L342.799 259.062M343.042 259.503C343.057 259.492 343.072 259.481 343.087 259.47L342.799 259.062M343.042 259.503L342.799 259.062M378.455 352.696C378.455 352.696 378.454 352.696 378.453 352.696L378.444 352.196L378.455 352.696H378.455ZM378.455 352.696C379.334 352.68 380.11 352.688 380.8 352.697C380.885 352.699 380.969 352.7 381.051 352.701C381.637 352.709 382.164 352.717 382.631 352.708C383.675 352.688 384.549 352.589 385.216 352.127C385.906 351.65 386.273 350.863 386.519 349.747C386.765 348.63 386.911 347.073 387.07 344.936L387.072 344.918V344.899C387.072 344.846 387.081 344.772 387.099 344.65C387.112 344.556 387.132 344.421 387.135 344.292C390.078 319.465 393.021 294.573 395.9 269.745L395.9 269.744C396.029 268.615 396.122 267.487 396.211 266.37C396.218 266.277 396.225 266.185 396.233 266.092C396.314 265.067 396.395 264.052 396.5 263.043C396.729 260.862 397.072 258.73 397.777 256.655M378.455 352.696L397.777 256.655M397.777 256.655C397.768 256.668 397.76 256.681 397.752 256.695L397.323 256.438L397.796 256.6C397.79 256.618 397.784 256.636 397.777 256.655ZM475.507 354.551C473.507 349.342 472.375 343.879 471.255 338.469M475.507 354.551L471.255 338.469M471.255 338.469C470.824 336.391 470.395 334.32 469.919 332.275M471.255 338.469L469.919 332.275M469.919 332.275C466.906 319.618 463.993 306.925 461.085 294.25C459.978 289.425 458.871 284.603 457.76 279.786L469.919 332.275ZM364.121 255.978C364.117 255.978 364.113 255.978 364.109 255.978V255.478L364.133 255.977C364.129 255.977 364.125 255.977 364.121 255.978ZM366.668 255.983C366.642 255.979 366.617 255.975 366.592 255.972L366.669 255.478L366.745 255.972C366.719 255.976 366.694 255.979 366.668 255.983ZM372.494 256.828C372.483 256.816 372.471 256.803 372.459 256.791L372.813 256.438L372.545 256.86C372.528 256.849 372.511 256.839 372.494 256.828ZM372.845 257.54C372.844 257.535 372.842 257.529 372.841 257.524L373.325 257.398L372.85 257.556C372.849 257.551 372.847 257.545 372.845 257.54ZM372.891 261.766C372.891 261.764 372.891 261.763 372.892 261.761L373.389 261.815L372.891 261.771C372.891 261.769 372.891 261.768 372.891 261.766ZM369.947 295.502C369.947 295.502 369.947 295.502 369.947 295.502L370.445 295.548L369.947 295.502ZM366.939 330.838C366.939 330.837 366.939 330.837 366.939 330.836L367.437 330.881L366.939 330.84C366.939 330.839 366.939 330.839 366.939 330.838ZM365.466 348.002C365.466 348.002 365.466 348.001 365.466 348.001L365.965 348.035L365.466 348.002ZM369.795 352.696C369.795 352.696 369.794 352.696 369.794 352.696L369.805 352.196L369.796 352.696C369.796 352.696 369.795 352.696 369.795 352.696ZM398.296 256.171C398.247 256.171 398.198 256.17 398.149 256.17L398.155 255.67L398.412 256.098C398.373 256.122 398.334 256.146 398.296 256.171ZM428.482 256.426L428.489 255.926L428.483 256.426L428.482 256.426Z" fill="white" stroke="url(#paint0_linear_6176_37900)"/>
<path d="M186.202 472.598C187.034 487.64 187.93 502.682 188.762 517.661C188.57 518.365 188.186 519.069 188.122 519.837C188.25 524.51 188.762 529.118 188.89 533.791C189.274 535.135 189.338 536.607 190.042 537.888C191.193 557.091 192.345 576.357 193.497 595.56C193.817 601.193 194.265 606.826 194.649 612.459C195.609 613.483 196.953 613.483 198.233 613.483C209.88 613.483 221.527 614.571 233.175 614.123C234.774 614.059 236.374 614.251 237.846 613.547C239.19 612.459 238.614 610.987 238.422 609.706C232.919 568.932 227.607 528.158 222.167 487.384C220.823 477.591 219.543 467.733 218.456 457.876C219.607 462.036 219.991 466.325 220.503 470.55C225.623 509.019 230.679 547.489 235.798 585.895C236.886 594.344 238.166 602.793 239.062 611.243C239.126 612.075 238.998 612.971 239.894 613.547C241.43 614.251 243.03 614.123 244.63 614.123C259.925 614.123 275.284 614.123 290.578 614.123C292.37 614.123 294.226 614.443 295.762 613.035C294.866 606.25 294.034 599.401 293.138 592.616C292.626 591.656 293.394 590.76 293.202 589.863C293.266 588.071 293.33 586.215 293.01 584.423C290.514 569.252 289.107 553.89 286.867 538.656C286.611 537.76 286.355 536.928 286.419 535.967C285.843 528.99 284.883 522.077 283.923 515.228C283.923 514.46 283.859 513.756 283.731 512.988C283.347 511.004 283.155 509.019 282.835 507.035C282.323 503.195 282.707 502.746 286.483 502.746C293.266 502.746 300.05 502.746 306.833 502.746C308.305 502.746 309.841 502.938 311.121 501.914C310.609 499.61 308.689 500.25 307.281 500.25C300.562 500.122 293.842 500.186 287.123 500.186C282.003 500.186 282.003 500.058 281.299 494.873C280.147 485.784 278.867 476.695 277.523 467.605C277.011 463.893 277.139 463.765 280.787 463.701C283.347 463.701 285.907 463.701 288.467 463.701C290.067 463.701 291.666 463.637 293.074 462.676C294.29 461.78 294.546 460.372 294.866 459.028C298.706 443.09 302.354 427.087 306.129 411.149C306.513 409.549 307.281 407.82 305.425 406.476C304.018 405.9 302.482 405.964 301.01 405.964C270.932 405.964 240.854 405.964 210.776 405.964C209.496 405.964 208.216 405.964 206.936 406.22C200.409 407.948 194.713 411.085 190.234 416.27C184.346 422.927 182.298 430.672 183.258 439.377C183.77 443.73 183.77 448.082 184.026 452.435C184.282 457.556 184.922 462.612 184.986 467.733C185.434 469.269 185.498 470.998 186.202 472.598Z" fill="#8F3600"/>
<path d="M293.458 461.971C288.403 462.995 283.283 462.355 278.227 462.547C276.691 462.611 275.859 462.803 276.115 464.659C277.779 475.861 279.379 487.063 280.851 498.328C281.107 500.505 281.875 501.081 283.987 501.017C292.498 500.889 301.01 500.953 309.457 500.953C309.969 500.953 310.481 501.209 310.929 501.273C309.073 504.793 308.689 508.762 307.601 512.538C307.473 513.371 307.089 514.139 306.961 515.035C305.297 522.012 303.825 528.989 302.162 535.966C302.034 536.478 301.906 536.99 301.842 537.502C298.642 551.264 295.762 565.09 292.754 578.916C292.306 580.901 292.114 582.885 292.434 584.933C292.498 586.597 292.562 588.198 292.626 589.862C292.946 590.246 293.33 590.246 293.65 589.926C297.298 573.347 301.01 556.769 304.657 540.255C304.849 539.294 305.169 538.398 305.425 537.502C305.937 536.798 306.385 536.094 306.577 535.262C308.241 528.669 309.649 522.012 311.249 515.419C311.377 514.587 311.697 513.755 311.825 512.922C312.337 510.234 313.105 507.61 313.681 504.921C314.193 502.681 315.473 501.785 317.713 501.849C320.976 501.913 324.24 501.721 327.504 502.169C328.08 502.169 328.528 501.913 328.912 501.529C330.064 501.465 331.216 501.273 332.367 501.273C347.598 501.273 362.829 501.401 378.06 501.145C381.324 501.081 382.604 501.977 383.308 505.241C388.491 528.733 393.931 552.096 399.115 575.588C405.002 602.152 410.634 628.78 416.393 655.408C416.649 656.496 416.521 658.224 418.185 657.84C419.849 657.456 419.017 655.92 418.761 654.896C407.946 605.096 397.579 555.233 385.804 505.625C384.78 501.401 384.78 501.401 389.131 501.273C419.209 500.377 442.632 480.086 447.943 450.321C450.439 436.495 452.999 422.669 455.559 408.843C455.687 408.011 455.687 407.051 456.839 406.923C458.631 407.627 460.55 407.819 462.47 407.755C468.934 407.691 475.461 407.691 481.925 407.755C486.149 407.819 490.116 408.715 493.38 411.787C496.004 414.22 497.284 417.292 497.796 420.749C498.308 422.541 498.116 424.333 498.116 426.19C498.116 501.913 498.116 577.636 498.116 653.295C498.116 661.425 498.308 659.632 504.963 659.952C507.331 660.08 508.291 659.056 508.355 656.816C508.355 655.856 508.419 654.896 508.419 653.935C508.419 576.74 508.419 499.544 508.419 422.349C508.419 411.019 501.827 401.674 491.908 398.665C490.756 398.345 489.604 398.217 488.516 397.833C487.492 397.577 486.405 397.449 485.381 397.577C464.838 397.577 444.36 398.537 423.817 398.217C414.026 398.089 404.234 398.153 394.443 398.217C369.421 398.345 344.463 397.193 319.44 397.577C276.371 397.577 233.303 397.577 190.298 397.577C161.564 397.385 132.83 397.513 104.096 397.449C92.8325 397.449 81.5054 397.705 70.2422 397.577C69.1542 397.577 68.1303 397.513 67.0424 397.833C66.4664 398.089 65.6984 398.409 66.0184 399.177C67.4903 402.186 68.0663 405.77 71.394 407.563C72.8659 407.947 74.3378 407.883 75.8098 407.883C93.4085 407.883 111.071 407.883 128.67 407.883C130.462 407.883 132.318 408.203 133.918 406.987C150.108 406.987 166.299 407.051 182.49 407.051C183.194 407.563 183.962 407.755 184.794 407.819C191.898 407.819 199.065 408.523 206.168 407.051C233.622 407.051 261.077 406.987 288.467 406.987C294.29 406.987 300.178 407.115 306.001 407.115C307.665 408.203 309.521 407.883 311.313 407.883C348.814 407.883 386.252 407.883 423.753 407.883C429.641 407.883 429.705 407.947 428.297 413.516C426.697 419.725 425.545 425.997 423.753 432.142C420.361 443.792 413.258 452.433 402.443 458.002C400.331 459.09 398.091 459.602 395.659 459.667C381.964 460.179 368.205 460.563 354.51 460.307C335.439 459.923 316.433 461.395 297.362 460.947C296.018 461.011 294.61 461.075 293.458 461.971Z" fill="black"/>
<path d="M488.324 398.797C498.308 401.165 504.771 407.182 507.139 417.295C507.459 418.704 507.523 420.24 507.523 421.712C507.523 499.996 507.523 578.216 507.587 656.499C507.587 658.932 507.011 660.084 504.451 659.7C503.491 659.572 502.531 659.572 501.571 659.7C499.524 660.02 498.948 658.996 499.076 657.139C499.14 656.307 499.076 655.411 499.076 654.579C499.076 577.895 499.076 501.276 499.076 424.593C499.076 423.12 499.523 421.584 498.564 420.24C497.092 421.712 497.476 423.632 497.476 425.425C497.412 443.155 497.476 460.822 497.476 478.553C497.476 536.801 497.476 594.986 497.476 653.235C497.476 655.667 497.924 658.292 494.916 659.508C494.276 660.34 494.852 660.788 495.492 660.788C496.516 660.788 497.604 660.98 498.564 660.532C515.202 659.828 531.777 660.276 548.416 660.276C551.168 660.276 552 659.7 552 656.819C551.936 578.087 551.936 499.42 551.936 420.688C551.936 406.606 544.065 398.797 529.921 398.797C518.402 398.797 506.883 398.733 495.428 398.669C494.98 398.349 494.468 398.029 493.892 397.965C491.908 397.837 489.924 397.196 488.324 398.797Z" fill="#202B6D"/>
<path d="M74.6758 399.066C64.6924 401.435 58.2288 407.451 55.861 417.565C55.541 418.973 55.477 420.509 55.477 421.982C55.477 500.265 55.4771 578.485 55.4131 656.769C55.4131 659.201 55.989 660.353 58.5488 659.969C59.5087 659.841 60.4687 659.841 61.4286 659.969C63.4765 660.289 64.0524 659.265 63.9244 657.409C63.8605 656.577 63.9244 655.681 63.9244 654.848C63.9244 578.165 63.9244 501.546 63.9244 424.862C63.9244 423.39 63.4765 421.854 64.4364 420.509C65.9083 421.982 65.5243 423.902 65.5243 425.694C65.5883 443.425 65.5243 461.091 65.5243 478.822C65.5243 537.071 65.5243 595.256 65.5243 653.504C65.5243 655.937 65.0764 658.561 68.0842 659.777C68.7241 660.609 68.1481 661.057 67.5082 661.057C66.4843 661.057 65.3964 661.249 64.4364 660.801C47.7976 660.097 31.2226 660.545 14.5837 660.545C11.8319 660.545 11 659.969 11 657.089C11.064 578.357 11.064 499.689 11.064 420.958C11.064 406.875 18.9355 399.066 33.0785 399.066C44.5978 399.066 56.117 399.002 67.5723 398.938C68.0202 398.618 68.5321 398.298 69.1081 398.234C71.092 398.106 73.0759 397.466 74.6758 399.066Z" fill="#202B6D"/>
<path d="M494.661 659.762C497.668 660.274 498.564 659.057 498.564 655.985C498.5 578.918 498.5 501.85 498.5 424.783C498.5 423.31 498.5 421.774 498.564 420.302C498.18 412.877 491.717 407.18 483.397 407.052C474.63 406.924 465.799 407.052 457.032 407.052C457.992 407.756 458.887 408.524 459.847 409.164C463.047 411.405 464.327 414.285 464.327 418.382C464.199 461.396 464.263 504.41 464.263 547.489C464.263 548.897 464.135 550.241 464.071 551.65C463.687 552.098 463.559 552.61 463.623 553.25C463.687 553.634 463.751 554.018 463.815 554.402C463.879 587.815 463.879 621.228 463.815 654.641C463.751 655.025 463.687 655.409 463.623 655.793C463.559 656.369 463.751 656.945 464.071 657.393C464.519 658.161 463.943 659.25 464.711 659.954C467.015 660.594 469.511 659.762 471.814 660.402C472.006 660.466 472.198 660.466 472.454 660.466C474.31 661.042 476.166 660.85 478.022 660.786C483.078 660.658 488.197 660.914 493.253 660.658C493.701 660.466 494.277 660.274 494.661 659.762Z" fill="#202B6D"/>
<path d="M52.9476 659.858C49.906 660.386 49 659.131 49 655.96C49.0647 576.426 49.0647 496.891 49.0647 417.357C49.0647 415.838 49.0647 414.252 49 412.733C49.3883 405.07 55.9245 399.191 64.3374 399.059C73.2034 398.927 82.1341 399.059 91 399.059C90.0293 399.785 89.1233 400.578 88.1525 401.239C84.9168 403.551 83.6225 406.523 83.6225 410.751C83.7519 455.142 83.6872 499.534 83.6872 543.991C83.6872 545.444 83.8166 546.832 83.8814 548.285C84.2696 548.747 84.399 549.276 84.3343 549.936C84.2696 550.333 84.2049 550.729 84.1402 551.126C84.0754 585.608 84.0754 620.091 84.1402 654.573C84.2049 654.97 84.2696 655.366 84.3343 655.762C84.399 656.357 84.2049 656.951 83.8814 657.414C83.4284 658.206 84.0108 659.329 83.2342 660.056C80.9045 660.717 78.3805 659.858 76.0508 660.518C75.8566 660.585 75.6625 660.585 75.4036 660.585C73.5269 661.179 71.6502 660.981 69.7735 660.915C64.661 660.783 59.4838 661.047 54.3713 660.783C53.9183 660.585 53.3359 660.386 52.9476 659.858Z" fill="#202B6D"/>
<path d="M238.166 612.781C223.639 613.293 209.112 612.46 194.585 612.396C179.162 621.358 163.739 630.255 148.316 639.281C141.213 643.441 138.333 650.29 137.501 658.163C137.245 660.532 139.037 659.7 140.125 659.7C153.628 659.764 167.195 659.828 180.698 659.828C181.146 659.828 181.53 659.828 181.978 659.892C188.889 660.212 195.801 660.084 202.713 660.084C234.006 660.084 265.364 660.084 296.658 660.084C297.81 660.084 299.026 660.34 300.114 659.828C299.474 652.21 298.898 644.593 298.194 637.04C297.426 629.039 296.53 621.038 295.698 612.973C277.011 612.909 258.325 612.909 239.638 612.845C239.19 612.524 238.678 612.524 238.166 612.781Z" fill="black"/>
<path d="M347.726 197.679C347.342 200.239 346.894 202.799 346.51 205.36C344.974 206.64 345.358 208.24 345.742 209.84C345.806 209.904 345.806 210.032 345.87 210.096C348.622 212.529 348.622 212.529 345.422 214.385C344.398 219.954 343.822 225.523 346.446 230.899C347.022 231.412 346.958 232.052 347.022 232.692C347.406 233.076 347.15 233.78 347.726 234.036C347.918 234.42 348.046 234.868 348.238 235.252C350.542 240.885 355.341 243.317 360.717 245.046C362.125 245.494 363.597 245.75 365.005 246.198C365.453 246.326 365.965 246.39 366.413 246.454C372.429 247.606 372.685 245.878 372.173 253.687C372.109 254.519 371.853 255.351 372.493 256.119C372.557 256.247 372.685 256.375 372.749 256.503C373.708 257.591 375.052 257.527 376.332 257.527C382.284 257.591 388.236 257.591 394.187 257.527C395.467 257.527 396.747 257.399 397.771 256.503C397.899 256.247 398.027 255.991 398.091 255.735C398.155 249.398 398.155 242.997 398.219 236.66C398.219 234.1 398.859 232.244 401.931 231.412C405.131 230.515 407.627 228.083 408.33 224.563C409.098 220.722 407.179 218.034 404.235 215.921C403.467 215.345 402.571 214.961 402.507 213.809C401.419 212.657 399.947 212.913 398.603 212.913C388.62 212.977 380.044 209.904 373.325 202.223C369.357 197.679 364.621 194.094 358.669 192.366C353.55 190.83 349.582 192.75 347.726 197.679Z" fill="#FD9993"/>
<path d="M493.892 398.54C494.404 398.54 494.852 398.54 495.364 398.54C495.364 337.667 495.364 276.73 495.3 215.857C495.3 213.616 496.324 212.08 497.668 210.48C518.21 186.54 532.225 159.208 539.649 128.548C544.704 107.873 546.24 86.9414 544.448 65.7542C544.384 64.9221 544.64 63.834 543.552 63.5779C542.593 63.3859 542.209 64.5381 541.761 65.1782C532.481 77.468 524.546 90.5259 517.826 104.416C517.314 105.44 516.803 106.464 515.971 108.193C515.331 100.383 514.819 93.3424 513.923 86.3653C511.427 67.3545 506.499 49.0477 499.588 31.1891C499.268 30.357 499.204 29.0768 497.988 29.0128C496.708 29.0128 496.772 30.2929 496.452 31.1251C492.292 42.0707 489.029 53.3364 486.341 64.7301C486.085 65.7542 485.829 66.7784 485.381 68.6347C483.205 60.5055 481.157 53.0804 478.661 45.7833C473.542 30.741 467.27 16.2108 459.591 2.25677C459.143 1.36063 458.951 -0.175595 457.671 0.0164336C456.391 0.208462 456.711 1.74469 456.455 2.70484C452.168 20.8835 449.544 39.3183 448.392 57.9451C447.752 68.6987 447.944 79.4523 447.944 90.2699C446.728 90.3339 446.664 89.3098 446.28 88.6697C441.736 81.8206 436.873 75.2277 431.497 69.0187C430.921 68.3786 430.537 67.0344 429.385 67.4825C428.233 67.8666 428.617 69.0827 428.553 70.0429C427.977 95.0706 431.305 119.522 438.601 143.462C446.408 169.066 458.375 192.621 474.374 214.064C475.654 215.729 475.91 217.457 475.91 219.441C475.91 264.44 475.91 309.439 475.91 354.437C476.102 356.87 476.294 359.238 477.19 361.542C478.853 359.878 478.342 357.766 478.342 355.781C478.406 314.303 478.342 272.825 478.342 231.347C478.342 227.826 478.406 224.306 478.342 220.785C478.278 218.417 479.237 217.265 481.733 217.329C484.293 217.393 486.853 217.393 489.413 217.329C492.036 217.265 493.06 218.481 492.932 220.977C492.868 222.13 492.932 223.346 492.932 224.498C492.932 280.57 492.932 336.643 492.932 392.715C492.996 394.699 492.548 396.812 493.892 398.54Z" fill="#5882AE"/>
<path d="M347.726 197.678C352.589 191.789 355.789 191.149 362.701 194.669C366.285 196.461 369.548 198.766 372.044 201.838C379.404 210.928 389.131 214 400.33 213.808C401.098 213.808 401.802 213.808 402.57 213.744C403.146 209.007 402.954 204.207 402.698 199.47C402.25 191.085 395.211 184.3 386.827 183.531C379.98 182.955 373.068 182.763 366.285 181.611C365.837 181.611 365.389 181.611 364.877 181.611C356.877 178.283 349.198 182.251 348.75 190.06C348.174 192.557 347.342 195.053 347.726 197.678Z" fill="black"/>
<path d="M300.114 659.828C274.004 659.828 247.957 659.892 221.847 659.892C208.536 659.892 195.225 659.892 181.978 659.892C186.265 660.916 190.617 660.02 194.969 660.404C196.057 660.468 197.657 659.636 197.977 661.748C198.041 662.196 198.745 662.452 198.873 662.004C199.769 659.188 202.008 660.532 203.672 660.468C208.344 660.276 213.016 660.34 217.751 660.468C218.967 660.468 220.695 659.7 221.079 661.876C221.143 662.26 221.911 662.58 222.039 662.068C222.807 659.124 225.175 660.468 226.711 660.468C250.133 660.404 273.556 660.404 296.978 660.404C297.938 660.34 299.154 660.98 300.114 659.828Z" fill="#50749B"/>
<path d="M293.65 590.055C293.33 590.055 292.946 589.991 292.627 589.991C292.563 590.887 292.371 591.783 293.074 592.552C293.266 591.719 293.458 590.887 293.65 590.055Z" fill="#3F1700"/>
<path d="M256.789 336.576C253.781 332.096 249.877 328.383 246.229 324.479C244.181 322.302 244.181 320.958 246.741 319.486C247.445 319.102 248.021 318.398 248.725 317.886C247.573 313.917 244.565 311.293 241.686 308.732C238.102 305.596 233.878 303.227 229.846 300.667C228.694 299.963 227.287 299.067 226.583 301.307C226.007 308.476 226.455 315.581 226.327 322.75C226.263 327.807 226.199 327.871 221.079 327.871C195.929 327.871 170.778 327.871 145.628 327.871C140.893 327.871 140.765 327.743 140.765 323.07C140.765 291.514 140.765 259.957 140.765 228.4C140.765 223.664 140.829 223.664 145.628 223.664C170.97 223.664 196.377 223.664 221.719 223.664C226.263 223.664 226.327 223.728 226.327 228.336C226.391 238.898 226.135 249.459 226.455 260.021C226.647 261.813 227.798 262.773 229.206 263.67C234.966 267.254 240.726 270.903 246.485 274.487C247.445 275.063 248.469 276.151 249.621 275.127C250.517 274.295 249.877 273.143 249.621 272.119C249.109 270.262 248.405 268.47 247.829 266.678C247.253 264.758 247.637 263.093 249.237 261.813C250.901 260.533 252.565 260.853 254.229 261.941C255.061 262.517 255.829 263.99 257.109 262.517C257.876 260.917 257.684 259.189 257.684 257.461C257.684 244.531 257.684 231.665 257.684 218.735C257.684 209.389 254.613 206.317 245.205 206.253C181.082 206.253 116.894 206.253 52.7707 206.253C42.7234 206.253 32.7401 206.253 22.6928 206.253C21.2209 206.253 19.685 206.253 18.2132 206.509C13.6695 207.341 11.0457 210.222 10.7257 214.766C10.6617 215.918 10.6616 217.135 10.6616 218.287C10.6616 256.756 10.6616 295.29 10.6616 333.76C10.6616 335.168 10.5977 336.512 10.7897 337.921C11.2377 341.889 14.1175 344.77 18.0852 345.218C19.4931 345.346 20.837 345.346 22.2449 345.346C96.6077 345.346 170.97 345.346 245.333 345.346C247.253 345.346 249.173 345.474 251.093 345.026C255.509 343.874 257.812 340.417 256.789 336.576Z" fill="black"/>
<path d="M247.893 344.323C253.653 344.323 255.893 342.403 256.789 336.578C260.117 339.139 262.676 342.467 265.428 345.668C266.196 347.46 265.108 348.74 264.148 350.02C260.181 355.269 254.613 356.741 248.341 356.741H174.554C169.819 356.741 169.691 356.805 169.691 361.478V380.361C169.691 387.466 169.499 386.698 176.09 386.826C182.106 386.954 184.282 389.45 183.258 395.275C182.938 396.939 183.642 397.067 184.858 397.067C186.585 397.067 188.313 396.811 189.913 397.515C190.297 397.643 190.489 397.963 190.489 398.411C185.497 398.987 180.506 398.539 175.514 398.539C139.165 398.539 102.879 398.603 66.5935 398.603C66.2735 398.283 66.2735 397.963 66.6574 397.643C68.1293 396.811 69.7293 397.003 71.3291 397.003H85.0243C82.4644 390.666 84.9603 386.89 91.4238 386.762H94.3036C97.6314 386.634 98.0153 386.378 98.0153 383.049C98.0793 375.752 98.0153 368.391 98.0153 361.03C98.0153 356.997 97.7594 356.741 93.5997 356.741C84.1283 356.741 74.657 356.805 65.1856 356.741C54.9463 356.677 44.771 356.997 34.5316 356.549C33.6357 356.357 32.6757 356.357 31.7798 356.549C26.5961 356.805 21.4765 356.933 16.2928 356.485L16.1539 356.448C15.246 356.205 14.3905 355.976 13.477 356.037C5.60556 354.693 0.485931 348.612 0.22995 340.035C0.0379639 334.722 0.101929 295.036 0.0379333 289.723C0.101929 283.898 -0.0900269 278.009 0.165955 272.185C0.22995 271.545 0.229889 270.968 0.421875 270.392C0.869843 269.176 0.805847 267.896 0.741852 266.616C0.549866 258.231 0.869904 249.845 0.293915 241.46C-0.282043 231.859 0.165955 222.129 0.165955 212.464C0.165955 210.799 0.613953 209.327 1.12592 207.791C1.63788 206.511 2.08582 205.231 2.78976 204.014C5.28561 199.726 10.2133 196.973 14.245 197.613H15.8449H156.891C157.787 196.781 158.747 197.165 159.643 197.613C190.297 197.613 220.951 197.549 251.605 197.613C259.796 197.613 266.196 203.758 266.26 211.888C266.388 236.595 266.196 261.303 266.196 286.011C264.349 286.011 263.77 284.489 263.26 283.15L263.252 283.13C260.948 277.369 258.709 271.481 256.533 265.656C256.213 264.824 255.509 263.927 256.405 263.031C256.469 261.879 256.661 260.727 256.661 259.575V216.688C256.661 210.031 254.101 207.471 247.317 207.471H20.6446C14.373 207.471 11.7492 210.095 11.7492 216.432V335.426C11.7492 341.891 14.117 344.323 20.5805 344.323H247.893Z" fill="#5494A2"/>
<path d="M493.891 398.537C493.891 338.816 493.891 279.159 493.955 219.438C493.955 216.558 493.123 215.726 490.372 215.918C486.788 216.174 483.14 216.046 479.493 215.918C477.829 215.854 477.189 216.494 477.317 218.158C477.381 218.99 477.317 219.886 477.317 220.719C477.317 266.101 477.317 311.548 477.317 356.931C477.317 358.403 477.253 359.939 477.189 361.412C478.789 367.621 478.981 373.893 477.189 380.102C476.037 385.159 476.485 390.28 476.421 395.337C476.421 397.449 477.253 398.409 479.493 398.281C481.476 398.153 483.524 398.025 485.508 398.409C486.404 398.537 487.3 398.601 488.196 398.729C490.18 398.729 492.035 398.665 493.891 398.537Z" fill="#FEFEFE"/>
<path d="M266.132 286.011C264.852 285.243 264.276 284.027 263.828 282.682C261.332 276.089 258.836 269.56 256.341 263.031C254.101 260.023 251.861 259.255 249.365 260.535C246.933 261.751 246.101 264.376 247.189 267.64C247.957 270.008 248.789 272.377 249.941 275.705C241.878 270.585 234.518 265.912 227.223 261.175C226.583 259.895 225.303 259.639 224.087 259.255C220.503 258.039 216.983 258.103 213.592 259.767C210.584 261.175 210.456 262.711 213.272 264.44C218.135 267.448 223.063 270.329 227.735 273.657C226.327 273.593 225.303 272.761 224.215 272.057C220.631 269.752 216.919 267.704 213.336 265.4C208.152 262.071 206.04 262.455 202.072 267.32C201.944 267.768 201.944 268.216 202.136 268.664C208.28 272.569 214.679 276.089 220.439 280.57C214.231 276.729 207.448 273.721 201.752 269.048C201.304 268.856 200.856 268.92 200.408 269.176C197.849 277.242 199.769 282.554 207.192 287.291C212.888 290.94 218.583 294.652 224.087 298.621C225.175 299.197 226.007 300.157 227.351 300.093C235.222 305.086 243.542 309.502 248.661 317.824C257.493 310.783 266.388 303.742 275.219 296.764C272.212 293.18 269.204 289.595 266.132 286.011Z" fill="#FD9993"/>
<path d="M367.692 319.58L367.692 319.58C367.34 323.633 367.007 327.687 366.674 331.739C366.162 337.985 365.65 344.223 365.068 350.435L365.067 350.439C364.94 351.647 365.106 352.201 365.426 352.487C365.592 352.635 365.83 352.742 366.178 352.81C366.527 352.877 366.961 352.902 367.497 352.902C373.002 352.774 378.574 352.71 384.147 352.838L384.15 352.838C385.094 352.869 385.607 352.736 385.925 352.448C386.249 352.156 386.447 351.637 386.574 350.686C387.617 341.466 388.72 332.274 389.822 323.093C390.341 318.762 390.86 314.434 391.373 310.107C393.344 292.367 395.378 274.627 397.412 256.887H397.38H397.332H397.283H397.234H397.185H397.137H397.088H397.039H396.99H396.942H396.893H396.844H396.795H396.747H396.698H396.649H396.6H396.551H396.503H396.454H396.405H396.356H396.307H396.259H396.21H396.161H396.112H396.064H396.015H395.966H395.917H395.868H395.82H395.771H395.722H395.673H395.624H395.576H395.527H395.478H395.429H395.38H395.331H395.283H395.234H395.185H395.136H395.087H395.039H394.99H394.941H394.892H394.843H394.794H394.746H394.697H394.648H394.599H394.55H394.502H394.453H394.404H394.355H394.306H394.257H394.209H394.16H394.111H394.062H394.013H393.964H393.915H393.867H393.818H393.769H393.72H393.671H393.622H393.574H393.525H393.476H393.427H393.378H393.329H393.28H393.232H393.183H393.134H393.085H393.036H392.987H392.938H392.89H392.841H392.792H392.743H392.694H392.645H392.596H392.547H392.499H392.45H392.401H392.352H392.303H392.254H392.205H392.156H392.108H392.059H392.01H391.961H391.912H391.863H391.814H391.765H391.717H391.668H391.619H391.57H391.521H391.472H391.423H391.374H391.325H391.277H391.228H391.179H391.13H391.081H391.032H390.983H390.934H390.885H390.837H390.788H390.739H390.69H390.641H390.592H390.543H390.494H390.445H390.396H390.348H390.299H390.25H390.201H390.152H390.103H390.054H390.005H389.956H389.907H389.858H389.81H389.761H389.712H389.663H389.614H389.565H389.516H389.467H389.418H389.369H389.32H389.272H389.223H389.174H389.125H389.076H389.027H388.978H388.929H388.88H388.831H388.782H388.733H388.685H388.636H388.587H388.538H388.489H388.44H388.391H388.342H388.293H388.244H388.195H388.146H388.097H388.049H388H387.951H387.902H387.853H387.804H387.755H387.706H387.657H387.608H387.559H387.51H387.461H387.413H387.364H387.315H387.266H387.217H387.168H387.119H387.07H387.021H386.972H386.923H386.874H386.825H386.776H386.728H386.679H386.63H386.581H386.532H386.483H386.434H386.385H386.336H386.287H386.238H386.189H386.14H386.091H386.042H385.994H385.945H385.896H385.847H385.798H385.749H385.7H385.651H385.602H385.553H385.504H385.455H385.406H385.357H385.308H385.26H385.211H385.162H385.113H385.064H385.015H384.966H384.917H384.868H384.819H384.77H384.721H384.672H384.623H384.574H384.526H384.477H384.428H384.379H384.33H384.281H384.232H384.183H384.134H384.085H384.036H383.987H383.938H383.889H383.84H383.792H383.743H383.694H383.645H383.596H383.547H383.498H383.449H383.4H383.351H383.302H383.253H383.204H383.155H383.107H383.058H383.009H382.96H382.911H382.862H382.813H382.764H382.715H382.666H382.617H382.568H382.519H382.47H382.422H382.373H382.324H382.275H382.226H382.177H382.128H382.079H382.03H381.981H381.932H381.883H381.835H381.786H381.737H381.688H381.639H381.59H381.541H381.492H381.443H381.394H381.345H381.296H381.248H381.199H381.15H381.101H381.052H381.003H380.954H380.905H380.856H380.807H380.758H380.709H380.661H380.612H380.563H380.514H380.465H380.416H380.367H380.318H380.269H380.22H380.172H380.123H380.074H380.025H379.976H379.927H379.878H379.829H379.78H379.731H379.683H379.634H379.585H379.536H379.487H379.438H379.389H379.34H379.291H379.242H379.194H379.145H379.096H379.047H378.998H378.949H378.9H378.851H378.802H378.754H378.705H378.656H378.607H378.558H378.509H378.46H378.411H378.363H378.314H378.265H378.216H378.167H378.118H378.069H378.02H377.972H377.923H377.874H377.825H377.776H377.727H377.678H377.63H377.581H377.532H377.483H377.434H377.385H377.336H377.287H377.239H377.19H377.141H377.092H377.043H376.994H376.946H376.897H376.848H376.799H376.75H376.701H376.652H376.604H376.555H376.506H376.457H376.408H376.359H376.311H376.262H376.213H376.164H376.115H376.066H376.018H375.969H375.92H375.871H375.822H375.773H375.725H375.676H375.627H375.578H375.529H375.48H375.432H375.383H375.334H375.285H375.236H375.188H375.139H375.09H375.041H374.992H374.944H374.895H374.846H374.797H374.748H374.699H374.651H374.602H374.553H374.504H374.456H374.407H374.358H374.309H374.26H374.212H374.163H374.114H374.065H374.016H373.968H373.919H373.87H373.821H373.773H373.724H373.675H373.626H373.577H373.529H373.48H373.431H373.382H373.334H373.285H373.236H373.187H373.139H373.09H373.042L367.692 319.58Z" fill="#6DB5DE" stroke="#6DB5DE" stroke-width="0.640095"/>
<path d="M316.625 390.283C316.881 391.819 317.201 393.291 317.457 394.828C317.137 395.532 317.457 396.108 317.777 396.684C318.225 397.516 318.865 398.028 319.761 398.284C320.145 398.284 320.529 398.348 320.913 398.284C334.672 398.284 348.367 398.284 362.126 398.284C363.278 398.284 364.494 398.732 365.518 397.9C363.406 388.939 361.102 379.977 359.182 371.016C358.542 368.2 357.646 366.791 354.446 367.175C351.823 367.496 349.135 367.624 346.575 368.2C341.327 369.352 336.144 370.952 330.896 372.104C321.553 374.153 317.393 379.913 316.625 390.283Z" fill="#FD9993"/>
<path d="M365.453 397.899C362.317 398.475 359.118 398.155 355.982 398.155C343.823 398.283 331.664 398.347 319.441 398.411V398.539C360.782 398.539 402.123 398.539 443.464 398.603C456.327 398.603 469.254 398.667 482.117 398.667C483.269 398.667 484.421 398.539 485.637 398.475C483.717 397.707 481.669 398.155 479.685 398.155C477.829 398.155 477.317 397.514 477.381 395.786C477.445 390.601 477.317 385.353 477.317 380.168C476.485 381.32 476.229 382.728 475.973 384.073C474.757 386.825 475.205 389.705 475.141 392.586C475.077 396.874 475.013 397.002 470.598 397.002C467.398 397.002 464.198 396.81 461.126 398.027C430.601 398.027 400.075 398.027 369.549 397.963C368.205 397.963 366.797 397.899 365.453 397.899Z" fill="#5781AD"/>
<path d="M461.126 398.029C465.286 398.093 469.381 398.029 473.541 398.157C475.589 398.221 476.037 397.389 476.037 395.533C475.909 391.692 475.973 387.916 475.973 384.075C473.093 387.852 470.597 391.948 466.502 394.573C464.71 395.725 462.918 396.877 461.126 398.029Z" fill="#F8F9FA"/>
<path d="M293.458 461.974C326.672 461.654 359.949 461.27 393.163 461.014C403.467 460.95 410.442 455.125 416.586 448.02C421.321 442.515 424.137 436.051 425.673 428.945C427.017 422.609 428.489 416.272 430.217 409.999C430.921 407.438 430.345 406.99 427.849 406.99C390.667 407.054 353.486 407.054 316.304 407.054C312.913 407.054 309.521 407.118 306.065 407.182C302.097 424.209 298.13 441.235 294.162 458.262C293.906 459.478 293.714 460.758 293.458 461.974Z" fill="white"/>
<path d="M238.166 612.779C238.678 612.779 239.126 612.843 239.638 612.843C240.534 608.427 239.062 604.202 238.55 599.978C235.735 577.894 232.791 555.875 229.847 533.792C226.711 510.492 223.576 487.193 220.504 463.829C220.184 461.589 219.928 459.413 219.672 457.172C219.544 456.148 219.544 454.74 218.008 455.06C216.728 455.316 217.112 456.596 217.24 457.492C218.136 464.341 219.032 471.19 219.992 478.103C222.68 498.138 225.368 518.173 227.991 538.208C231.255 562.596 234.455 586.984 237.654 611.307C237.654 611.883 237.974 612.331 238.166 612.779Z" fill="#FDFDFD"/>
<path d="M366.989 212.142C367.245 213.359 367.821 214.255 369.101 214.191C370.253 214.127 371.085 213.359 371.021 212.142C370.957 210.99 370.253 210.158 368.973 210.222C367.757 210.286 367.117 211.054 366.989 212.142Z" fill="#1B100F"/>
<path d="M346.383 210.671C345.487 211.823 345.423 213.039 346.319 214.191C347.855 214.448 349.518 214.64 349.518 212.399C349.518 210.351 347.983 210.287 346.383 210.671Z" fill="#0D0A0A"/>
<path d="M497.987 31.252C487.364 59.8642 481.796 88.6685 480.708 118.305C479.557 150.374 484.036 181.738 494.148 213.103C506.435 185.515 513.026 157.479 514.306 128.162C515.778 95.0055 510.53 62.9367 497.987 31.252Z" fill="#FEFEFE"/>
<path d="M458.054 2.83496C455.239 14.4207 453.319 25.4943 451.911 36.632C449.991 52.3143 449.159 68.0607 449.351 83.807C449.415 90.144 450.695 95.8408 453.959 101.602C466.502 124.069 474.053 148.201 476.933 173.804C478.277 186.158 478.661 198.448 477.509 210.802C477.253 213.554 477.829 214.643 480.837 214.387C484.037 214.13 487.237 214.194 490.436 214.387C492.868 214.515 492.996 213.682 492.356 211.634C488.325 198.96 485.189 186.03 483.013 172.908C479.557 151.977 478.597 130.982 479.941 109.859C480.709 97.9532 482.181 86.1114 484.485 74.3976C484.741 73.0534 484.741 71.6452 484.421 70.301C478.853 47.1936 470.47 25.2383 459.27 4.24317C458.95 3.92313 458.63 3.66708 458.054 2.83496Z" fill="#FEFEFE"/>
<path d="M430.344 70.1719C429.321 122.788 444.296 170.283 475.59 212.593C479.749 159.017 464.646 111.522 430.344 70.1719Z" fill="#FEFEFE"/>
<path d="M543.105 66.0107C539.137 71.0035 536.129 75.4842 533.185 80.0288C526.978 89.6303 521.538 99.6157 516.803 109.985C516.099 111.522 515.843 112.994 515.843 114.594C516.419 145.447 510.787 175.147 499.652 203.887C499.396 204.463 499.268 205.103 499.076 205.68C499.012 205.872 499.204 206.064 499.268 206.448C531.97 165.546 546.56 119.139 543.105 66.0107Z" fill="#FEFEFE"/>
<path d="M133.789 32.3389C135.837 34.5792 304.082 202.796 305.745 204.397C248.405 147.044 191.129 89.6914 133.789 32.3389Z" fill="#5E86B1"/>
<path d="M90.272 31.125C134.813 75.6756 179.29 120.226 223.831 164.777C223.383 165.225 222.871 165.737 222.423 166.185C177.882 121.634 133.405 77.0839 88.8641 32.5332C89.376 32.0851 89.824 31.5731 90.272 31.125Z" fill="#5882AF"/>
<path d="M156.827 197.615C157.723 197.615 158.683 197.615 159.579 197.615C148.38 186.413 137.181 175.211 125.918 164.01C125.662 164.266 125.406 164.458 125.15 164.714C125.214 165.93 126.302 166.57 127.07 167.274C136.221 176.492 145.436 185.645 154.587 194.862C155.483 195.759 156.507 196.399 156.827 197.615Z" fill="#638AB4"/>
<path d="M252.373 286.396C251.413 286.972 250.837 287.292 250.389 287.676C247.574 290.108 244.758 292.54 242.006 294.973C241.366 295.549 240.214 296.189 241.046 297.277C241.814 298.237 242.774 297.597 243.542 296.893C246.422 294.397 249.301 291.9 252.181 289.34C252.757 288.828 253.333 288.38 253.013 287.484C252.821 287.164 252.565 286.78 252.373 286.396Z" fill="#090605"/>
<path d="M97.8273 260.231C97.662 260.34 97.4968 260.394 97.3866 260.502C94.9621 262.561 93.4192 264.294 95.0172 268.249C97.8273 275.183 93.9703 283.417 87.4683 287.046C80.4153 290.947 72.0399 289.809 66.5297 284.121C61.2951 278.704 60.4134 270.307 64.4359 263.861C68.5134 257.36 76.6684 254.218 83.9969 256.927C86.752 257.956 88.3499 257.468 89.9479 255.41C90.3887 254.868 91.0499 254.543 91.7111 254.056C82.2336 247.23 68.5684 249.288 60.9644 258.335C53.1951 267.544 54.187 281.033 63.2237 289.376C71.8195 297.285 85.7601 297.393 94.2457 289.538C102.952 281.575 104.55 268.195 97.8273 260.231Z" fill="#60A9FC"/>
<defs>
<linearGradient id="paint0_linear_6176_37900" x1="419.246" y1="235.322" x2="419.246" y2="393.92" gradientUnits="userSpaceOnUse">
<stop stop-color="#C4E2FF"/>
<stop offset="1" stop-color="#ECF6FF"/>
</linearGradient>
</defs>
</svg>
