

<svg width="57" height="112" viewBox="0 0 57 112" fill="none" xmlns="http://www.w3.org/2000/svg">
<rect x="0.100098" width="56.8" height="112" rx="8.8" fill="#BCBEC0"/>
<rect x="1.7002" y="1.59961" width="52.8" height="108.8" rx="8.8" fill="#292D32"/>
<path d="M9.51348 58.7595L8.8935 58.2994L10.3705 56.257L8 55.4841L8.23705 54.7481L10.6076 55.5209V53H11.3734V55.5209L13.7439 54.7481L13.981 55.4841L11.6105 56.257L13.0693 58.2994L12.4493 58.7595L10.9905 56.717L9.51348 58.7595Z" fill="white"/>
<path d="M16.3172 58.7595L15.6972 58.2994L17.1742 56.257L14.8037 55.4841L15.0408 54.7481L17.4113 55.5209V53H18.1771V55.5209L20.5476 54.7481L20.7847 55.4841L18.4142 56.257L19.873 58.2994L19.253 58.7595L17.7942 56.717L16.3172 58.7595Z" fill="white"/>
<path d="M23.1214 58.7595L22.5014 58.2994L23.9784 56.257L21.6079 55.4841L21.845 54.7481L24.2155 55.5209V53H24.9813V55.5209L27.3518 54.7481L27.5889 55.4841L25.2184 56.257L26.6772 58.2994L26.0572 58.7595L24.5984 56.717L23.1214 58.7595Z" fill="white"/>
<path d="M29.9251 58.7595L29.3051 58.2994L30.7821 56.257L28.4116 55.4841L28.6487 54.7481L31.0192 55.5209V53H31.785V55.5209L34.1556 54.7481L34.3926 55.4841L32.0221 56.257L33.4809 58.2994L32.8609 58.7595L31.4021 56.717L29.9251 58.7595Z" fill="white"/>
<path d="M36.7288 58.7595L36.1088 58.2994L37.5858 56.257L35.2153 55.4841L35.4524 54.7481L37.8229 55.5209V53H38.5888V55.5209L40.9593 54.7481L41.1963 55.4841L38.8258 56.257L40.2846 58.2994L39.6646 58.7595L38.2058 56.717L36.7288 58.7595Z" fill="white"/>
<path d="M43.5325 58.7595L42.9125 58.2994L44.3896 56.257L42.019 55.4841L42.2561 54.7481L44.6266 55.5209V53H45.3925V55.5209L47.763 54.7481L48 55.4841L45.6295 56.257L47.0883 58.2994L46.4683 58.7595L45.0095 56.717L43.5325 58.7595Z" fill="white"/>
</svg>
