<svg width="343" height="357" viewBox="0 0 343 357" fill="none" xmlns="http://www.w3.org/2000/svg">
<path d="M268.38 518.224C278.621 518.005 288.862 518.224 299.103 518.224C300.661 519.465 328.342 517.932 330.271 518.078H337.692C342.813 518.078 342.664 518.151 341.922 513.263C339.919 500.572 338.064 487.88 336.209 475.189L336.208 475.179C333.388 455.919 330.42 436.658 327.674 417.324C326.486 408.861 313.945 333.058 313.871 324.449C312.832 316.935 311.644 309.347 310.531 301.832C308.453 287.971 306.375 274.036 304.298 260.174C304.001 258.058 304.52 257.11 306.969 257.11C310.457 257.11 313.722 256.015 316.765 254.191C323.741 250.033 325.67 243.758 326.041 236.025C327.154 212.168 328.787 188.384 330.271 164.527C330.939 154.094 331.681 143.734 332.275 133.301C332.423 130.164 332.794 127.027 332.126 123.889C329.306 110.246 315.206 99.0109 299.993 98.2083C299.325 97.7706 298.732 97.114 297.841 97.041C297.396 97.041 297.025 97.114 296.58 97.1869C290.643 97.4058 284.706 97.2599 278.769 97.2599C275.949 97.2599 274.762 98.2083 274.836 101.127C275.059 115.062 274.984 129.069 274.91 143.004C274.91 146.506 275.875 148.914 279.511 149.862C287.007 151.832 286.635 165.11 281.96 168.393C280.773 169.269 279.437 169.998 277.953 170.071C267.489 170.582 263.037 170.144 263.853 157.158C264.15 153.583 265.783 150.884 269.122 150.008C273.575 148.841 274.391 146.068 274.317 142.129C274.168 129.507 274.242 116.885 274.242 104.264V104.263C274.242 103.023 274.242 101.856 274.094 100.616C273.871 98.6461 272.832 97.4788 270.755 97.4058C268.899 97.3328 267.044 96.9681 265.411 98.2813C263.93 99.9564 263.853 102.068 263.779 104.107L263.779 104.118C263.556 108.641 263.111 113.092 262.666 117.542L262.666 117.542C261.181 133.301 259.92 148.987 258.584 164.673C257.397 178.17 256.209 191.74 255.17 205.237C254.874 209.614 253.463 214.065 254.873 218.515C258.732 220.412 263.037 220.12 267.118 220.266C273.945 220.485 280.699 220.266 287.526 220.339C290.94 220.412 291.311 220.923 290.272 223.914C287.303 232.158 284.483 240.475 281.812 248.792C280.773 252.148 278.843 253.17 275.356 253.243C269.048 253.316 262.814 252.586 256.506 252.513C254.948 252.513 252.944 252.003 252.128 254.191C252.054 255.723 251.831 257.328 251.905 258.861C252.499 271.482 253.167 284.031 253.76 296.653C254.799 318.977 255.838 341.23 256.951 363.554C258.658 397.699 260.291 431.916 261.998 466.06L261.999 466.085C262.815 482.2 263.631 498.315 264.298 514.43C264.447 517.349 265.337 518.297 268.38 518.224Z" fill="#6DB5DE"/>
<path d="M167.751 253.604C167.529 253.823 167.306 254.115 167.084 254.334C166.638 254.626 166.193 254.845 165.673 254.99C164.709 255.136 163.67 255.136 162.779 255.428C162.334 255.574 161.889 255.647 161.369 255.72C160.776 255.866 160.108 255.72 159.514 255.866C156.768 255.428 154.171 256.523 151.574 257.033C144.895 258.274 141.555 256.158 140.219 249.592C138.513 241.42 136.732 233.322 135.025 225.151C133.689 223.765 133.466 221.941 133.095 220.117C129.014 199.981 124.858 179.771 120.999 159.562C120.554 157.446 119.96 155.331 119.663 153.142C118.773 147.962 121.147 144.095 126.491 142.709C134.208 140.666 142.149 139.426 150.015 138.04C151.203 138.04 152.242 137.602 153.355 137.383C154.839 137.091 156.249 136.654 157.733 136.508C158.624 136.289 159.514 135.997 160.479 135.851C163.744 135.267 166.935 134.538 170.2 133.735C177.028 132.714 183.707 131.109 190.46 129.868C198.326 128.409 202.036 130.817 203.669 138.55C205.153 145.554 206.563 152.558 207.973 159.562C208.27 161.021 208.641 162.408 209.161 163.721C211.609 179.261 215.32 194.509 218.214 209.976C218.585 211.8 219.476 213.697 218.362 215.593C216.804 216.615 215.246 215.958 213.762 215.448C211.164 214.645 208.715 213.478 206.118 212.748C200.033 210.924 194.022 210.924 188.011 213.186C186.23 213.842 184.449 214.718 183.113 214.791C182 215.156 182.668 215.812 182.445 215.375C182.371 215.302 182.445 215.229 182.593 215.156C188.011 213.697 193.502 214.353 198.994 214.718C199.736 214.791 200.775 215.156 200.181 216.396C198.771 217.417 197.138 217.199 195.506 217.199C189.866 217.126 184.152 217.563 178.512 216.834C177.324 216.688 176.063 216.688 175.024 217.636C171.388 219.46 167.306 219.825 163.373 220.482C158.104 221.357 153.948 223.546 151.499 228.434C150.089 229.674 150.831 231.06 151.351 232.447C151.722 234.271 151.574 236.167 151.351 237.991C151.648 240.034 153.28 239.159 154.245 239.159C159.811 239.232 165.302 239.159 170.868 239.232C172.427 239.232 174.059 239.086 175.543 239.888C175.84 242.515 173.688 241.858 172.501 241.931C167.083 242.15 161.666 242.004 156.249 242.004C155.136 242.004 153.503 241.493 152.984 242.88C152.464 244.12 153.503 245.141 154.245 246.09C156.546 249.081 159.44 251.197 163.225 251.926C164.857 252.364 166.564 252.145 167.751 253.604Z" fill="#202B6D"/>
<path d="M6.19588 94.1189C6.71536 93.7542 7.23472 93.3894 7.7542 93.0975C8.12525 92.368 8.42224 91.6384 9.01592 91.0548C10.2775 89.9604 11.168 88.4283 13.0975 88.3553C18.9602 90.69 23.8581 94.7026 29.4239 97.6209C31.1307 98.4964 32.6891 99.6637 35.2864 100.758C33.5796 98.5694 31.8727 97.8398 30.3885 96.9643C25.9358 94.3378 21.4832 91.7843 17.1048 89.0119C16.0659 88.3553 14.3589 87.9905 15.1753 86.0936C20.2216 82.1539 25.7875 82.1539 31.6502 83.759C32.6891 84.1967 33.5797 84.8534 34.6186 85.3641C42.2623 90.1063 49.9059 94.8485 58.0691 99.6637C57.4754 94.5567 53.3938 89.8874 57.9207 85.2911C60.2954 83.4672 62.7443 82.8835 65.4901 84.4156C65.9354 84.7075 66.3806 85.0722 66.7517 85.51C70.4622 89.6686 71.7981 94.9944 73.3565 100.029C76.3992 109.513 81.8907 117.392 88.2728 124.907C91.3154 128.555 94.2839 132.276 97.104 136.142C97.5492 136.872 98.0686 137.529 98.7365 138.112C102.224 142.49 105.638 146.94 109.126 151.318C110.017 152.412 111.056 153.579 111.056 155.111C110.536 156.498 109.349 157.519 108.236 158.394C100.74 164.669 93.3934 171.016 85.9724 177.29C85.0818 178.093 84.0428 178.822 82.707 178.531C72.4659 166.201 62.2248 153.871 51.9095 141.614C50.5738 140.009 48.6443 139.134 46.7891 138.185C45.8243 137.602 44.5627 137.675 43.598 137.091C32.0211 129.649 20.9637 121.478 9.23841 114.255C8.64472 113.817 8.27382 113.234 7.90276 112.723C7.08645 112.139 6.34419 111.483 5.52788 111.045C-1.52214 107.324 -1.89319 101.342 4.78577 96.6725C6.71525 96.1618 8.05108 97.475 9.46108 98.3505C14.9527 101.488 20.2958 104.917 26.5295 108.346C25.7874 106.595 24.7485 106.23 23.9322 105.719C19.0343 102.874 14.359 99.8096 9.46108 96.9643C8.05108 96.2347 6.41851 95.797 6.19588 94.1189Z" fill="#FD9993"/>
<path d="M82.5582 178.534C92.2797 171.02 101.408 162.849 110.758 154.896C113.355 150.884 114.32 150.811 117.511 154.24C119.07 155.918 120.554 157.669 121.89 159.492C124.561 172.698 127.307 185.976 129.979 199.181C131.685 207.79 133.392 216.472 135.099 225.081C126.862 226.394 120.48 223.184 115.137 217.348C104.524 205.747 93.9866 194.074 83.3746 182.474C82.2614 181.307 80.8514 180.212 82.5582 178.534Z" fill="#6DB5DE"/>
<path d="M6.19664 94.1203C12.8755 98.1329 19.6285 102.146 26.3074 106.158C27.1979 106.669 28.6821 107.253 28.0142 108.493C27.1979 110.025 25.9364 109.15 24.8975 108.493C18.1444 104.553 11.3912 100.541 4.63816 96.6008C4.26711 95.2876 4.19297 94.0473 6.19664 94.1203Z" fill="#060403"/>
<path d="M210.498 501.079C202.112 479.63 193.726 458.107 185.266 436.731C184.524 434.834 185.34 433.375 185.785 431.842C195.581 398.72 205.525 365.597 215.395 332.474C216.805 327.805 218.29 323.209 219.551 318.539C220.071 316.643 220.887 315.986 222.891 316.132C227.343 316.424 231.796 316.716 236.174 316.716C238.623 316.716 238.92 317.737 238.92 319.78C238.623 337.727 238.401 355.675 238.104 373.622C237.584 412.728 237.065 451.76 236.471 490.865C236.397 494.148 236.174 497.358 235.952 500.641C235.432 501.006 234.913 501.444 234.319 501.444C226.453 501.736 218.438 502.246 210.498 501.079Z" fill="#6DB5DE"/>
<path d="M200.33 215.961C193.948 215.085 187.566 216.034 180.591 215.45C188.902 210.854 196.991 208.884 205.896 211.729C209.978 213.043 214.059 214.356 218.141 215.669C220.887 215.085 223.41 216.399 226.081 216.69C234.022 217.639 241.962 217.201 249.977 217.347C251.758 217.42 253.687 217.055 255.246 218.441C266.526 219.244 277.88 219.171 289.234 219.244C292.202 219.244 293.167 219.755 292.054 222.892C288.863 231.647 285.672 240.402 283 249.375C281.813 253.461 279.884 254.628 275.802 254.264C269.197 253.753 262.518 253.826 255.914 253.68C254.726 253.68 253.465 253.388 252.352 254.118C250.793 253.972 249.161 253.68 247.602 253.607C221.555 253.534 195.507 253.461 169.385 253.388C168.866 253.388 168.42 253.461 167.901 253.534C161.073 253.242 155.434 251.053 152.243 244.633C150.536 241.204 150.833 240.912 154.617 240.766C161.741 240.548 168.791 241.277 175.915 240.402C175.248 238.651 173.763 239.161 172.502 239.161C166.788 239.088 161.073 239.161 155.285 239.088C153.727 239.088 152.02 239.38 150.981 237.775C150.981 235.732 150.907 233.617 150.907 231.574C152.243 230.115 154.098 230.406 155.73 230.406C161.667 230.333 167.53 230.406 173.467 230.042C167.827 229.677 162.261 229.75 156.621 229.677C154.691 229.677 152.614 230.115 151.055 228.437C152.539 223.767 155.805 220.995 160.702 220.119C165.229 219.317 169.83 218.441 174.357 217.566C181.852 216.836 189.347 217.493 196.843 217.201C198.03 217.274 199.885 218.223 200.33 215.961Z" fill="#FD9993"/>
<path d="M299.254 577.827C299.105 583.226 299.031 588.625 298.883 594.023C297.621 595.045 296.137 594.972 294.653 594.972C280.775 595.045 266.898 594.972 253.02 594.972C251.759 594.972 250.572 594.972 249.458 594.315C245.377 584.977 241.369 575.638 237.288 566.373C236.917 565.57 236.687 499.843 235.5 500.5C194 478 210 500.5 234.987 567.905C238.327 575.346 241.592 582.715 244.857 590.157C245.377 591.397 245.822 592.637 246.267 593.878C244.857 595.118 243.076 594.972 241.369 594.972C220.961 594.972 200.479 594.972 180.071 594.972C178.735 594.972 177.325 595.118 176.138 594.315C174.283 588.771 172.427 583.153 170.646 577.608C169.904 576.951 169.311 576.222 169.014 575.273C155.359 535.22 142.149 494.947 128.569 454.894C125.749 446.649 124.042 438.259 124.413 429.504C124.636 425.2 125.304 421.041 126.268 416.883C128.198 409.076 130.053 401.27 131.983 393.463C132.131 392.661 132.502 392.004 132.576 391.202C137.4 371.795 142.001 352.315 146.899 332.982C147.418 331.741 147.419 330.282 147.79 328.969C153.504 306.279 158.773 283.517 164.561 260.9C164.932 259.587 165.229 258.273 165.452 256.96C165.823 255.793 166.045 254.553 166.862 253.531C167.307 253.02 167.975 252.729 168.643 252.51C170.201 252.145 171.834 252.145 173.466 252.145C197.14 252.145 220.887 252.145 244.56 252.145C247.232 252.145 250.052 251.926 252.352 253.75C253.466 255.282 253.095 257.033 253.169 258.711C253.317 266.809 253.837 274.981 254.282 283.079C254.95 295.773 255.321 308.541 256.286 321.236C256.731 326.707 256.879 332.179 257.102 337.578C257.696 355.526 258.809 373.473 259.551 391.348C260.441 411.484 261.48 431.547 262.445 451.683C263.484 471.82 264.523 491.883 265.339 512.019C265.488 516.105 266.156 516.689 270.534 516.762C278.326 516.835 286.118 516.762 293.911 516.762C295.766 516.762 297.621 516.543 299.254 517.783C299.996 518.804 300.144 520.045 300.144 521.212C300.144 539.086 300.367 557.034 300.07 574.909C300.07 576.076 299.847 577.024 299.254 577.827Z" fill="#8F3600"/>
<path d="M166.341 256.745C165.079 256.161 165.599 255.067 165.599 254.191C166.118 254.264 166.638 254.264 167.157 254.337C166.861 255.14 166.564 255.942 166.341 256.745Z" fill="#E7EDF3"/>
<path d="M255.172 218.439C245.079 218.585 235.061 218.585 224.968 217.928C222.519 217.782 220.219 216.834 218.067 215.667C214.95 200.273 211.907 184.952 208.79 169.558C208.419 167.661 207.9 165.764 208.419 163.867C207.677 162.408 208.419 161.022 208.939 159.708C216.36 140.083 223.855 120.53 230.682 100.759C231.128 99.5185 231.573 98.2053 232.983 97.6216C243.075 96.8191 253.168 97.1109 263.26 97.2568C263.854 97.2568 264.448 97.5486 264.967 97.8405C265.116 97.9864 265.338 98.1323 265.487 98.2782C264.522 109.003 263.483 119.728 262.518 130.452C260.366 155.331 258.214 180.209 256.136 205.015C255.839 209.465 255.543 213.916 255.172 218.439Z" fill="black"/>
<path d="M293.264 96.765C296.617 96.765 297.419 96.765 297.546 97.4826C297.419 97.9523 286.563 97.8474 281.071 98.0662C275.951 98.2122 275.951 98.0662 275.951 103.173C275.951 117.035 276.025 130.897 275.877 144.686C275.877 146.802 276.396 147.823 278.697 148.407C285.005 149.939 287.379 154.754 286.192 162.853C285.45 167.887 281.962 171.826 275.654 171.243C273.799 171.097 271.944 171.316 270.088 171.097C269.049 171.024 267.862 170.659 266.971 170.148C260.886 166.573 262.519 160.664 262.742 155.338C262.964 151.398 265.858 148.845 269.717 148.334C272.908 147.896 273.131 146.291 273.131 143.738C272.983 130.168 273.131 116.525 273.057 102.954C273.057 97.6285 274.021 98.1392 268.233 98.0662C267.342 98.0662 266.526 98.1392 265.636 98.2122L265.362 97.3606C265.237 96.2144 292.967 96.765 293.264 96.765Z" fill="#FDFDFE"/>
<path d="M208.492 163.794C216.804 141.98 225.041 120.165 232.759 98.1321C232.462 97.8403 216.507 97.3296 216.062 97.1837C209.68 96.8918 203.965 98.7887 198.696 102.218C196.989 102.655 196.619 104.698 195.06 105.428C193.947 106.814 192.908 108.273 191.721 109.659C184.448 118.049 156.279 130.597 149.006 138.915C150.194 140.102 184.374 131.984 191.646 130.744C197.806 129.723 201.22 131.838 202.481 137.967C203.372 142.052 203.891 146.284 205.004 150.37C206.192 154.82 205.821 159.708 208.492 163.794Z" fill="#6DB5DE"/>
<path d="M121.816 159.49C119.441 159.198 118.625 157.009 117.66 155.55C115.359 152.121 113.356 152.048 110.758 154.893C106.528 149.422 102.373 143.95 98.1426 138.478C99.1815 137.238 100.666 137.602 101.927 137.602C116.918 137.602 131.983 137.53 146.973 137.602C148.235 137.602 150.09 136.8 150.609 138.916C142.669 140.448 134.728 141.907 126.788 143.512C122.113 144.46 119.738 148.327 120.703 153.069C121.074 155.185 121.445 157.301 121.816 159.49Z" fill="#ECF6FF"/>
<path d="M150.905 228.51C158.178 228.583 165.376 228.583 172.649 228.729C174.059 228.729 176.507 227.78 176.582 230.042C176.656 232.449 174.207 231.501 172.797 231.501C165.45 231.647 158.029 231.574 150.683 231.574C148.753 230.48 149.05 229.458 150.905 228.51Z" fill="#050303"/>
<path d="M200.329 215.96C202.184 216.981 201.962 218.441 200.107 218.441C191.647 218.587 183.113 218.951 174.653 218.222C174.505 218.222 174.356 217.857 174.208 217.638C174.727 214.939 176.805 215.376 178.586 215.595C185.859 216.617 193.057 216.179 200.329 215.96Z" fill="#0B0707"/>
<path d="M150.832 237.85C158.624 237.85 166.342 237.85 174.134 237.923C175.693 237.923 178.364 237.704 175.767 240.476C167.752 240.476 159.811 240.403 151.796 240.33C150.906 240.33 149.644 240.622 149.422 239.236C149.273 238.36 150.164 238.141 150.832 237.85Z" fill="#120B0B"/>
<path d="M162.483 254.702C163.299 255.067 163.596 256.161 163.077 256.38C161.964 256.891 161.593 255.724 161.147 254.921C161.667 254.921 162.038 254.848 162.483 254.702Z" fill="#F2F4F8"/>
<path d="M43.8953 136.58C33.2088 136.653 22.5221 136.653 11.8356 136.726C9.60919 136.726 9.16392 135.705 9.23813 133.881C9.31235 127.096 9.31249 120.384 9.3867 113.599C21.2606 120.603 32.4667 128.774 43.8953 136.58Z" fill="#ECF6FF"/>
<path d="M34.1732 85.8037C42.1138 85.8037 50.0545 85.8037 57.995 85.8037C56.1398 88.2843 56.214 90.8378 57.2529 93.6831C58.1435 96.0178 59.3307 98.2795 59.3307 101.708C50.5738 96.1637 42.4106 90.9837 34.1732 85.8037Z" fill="#ECF6FF"/>
<path d="M12.7996 88.5764C12.5769 86.8254 13.4676 86.2417 15.1002 86.5336C20.8146 90.0355 26.6032 93.5375 32.3175 97.0394C33.2823 97.6231 34.1729 98.2067 35.1376 98.7904C36.0282 99.3011 36.9928 99.8847 36.3249 101.052C35.5086 102.511 34.4698 101.636 33.505 101.052C26.6774 96.8935 19.7014 92.7349 12.7996 88.5764Z" fill="#060404"/>
<path d="M51.0933 127.319C50.4996 127.319 50.0543 127.173 49.9059 126.662C49.6833 126.078 49.7576 125.422 50.2028 124.984C53.9875 121.701 57.772 118.491 61.6308 115.281C62.2245 114.77 62.9665 114.77 63.6344 115.354C64.1539 115.864 64.1539 116.594 63.7087 116.959C59.7757 120.388 55.7683 123.744 51.7611 127.173C51.5385 127.319 51.2417 127.319 51.0933 127.319Z" fill="#080505"/>
<path d="M211.016 51.6604C206.415 50.2012 204.188 46.3345 201.665 42.6866C200.181 40.5708 198.697 38.528 197.287 36.4123C195.877 34.3695 196.619 33.494 198.919 33.5669C201.591 33.6399 204.337 33.9317 207.083 34.0776C205.079 25.1039 207.825 19.0484 216.062 14.8899C213.765 3.7546 224.709 -0.772109 229.816 0.106515C235.752 1.12792 255.393 12.0445 261.404 12.7741C273.946 14.2332 280.699 20.3616 283.519 32.6914C285.449 41.0086 283.519 43.1528 283.519 46.8007C283.519 50.4486 285.993 54.4612 286.722 57.7443C287.452 61.0274 284.41 63.9457 283.075 66.1344C281.813 68.2502 278.39 72.3483 275.414 76.3485C271.599 81.4758 273.872 89.7442 265.709 89.5253C263.557 90.1819 263.26 88.4309 263.408 87.2636C264.447 78.4358 261.108 70.3375 259.178 62.0203C257.917 56.6945 257.175 51.2956 257.249 45.3131C255.987 46.8452 255.097 48.0855 254.058 49.2528C247.898 56.1837 237.286 55.5271 232.166 47.8666C229.346 43.708 229.346 43.708 226.229 47.5018C223.706 50.566 220.737 52.6818 216.656 53.1195C214.504 53.3384 212.574 53.1925 211.016 51.6604Z" fill="black"/>
<path d="M211.017 51.6587C220.442 54.1393 225.117 48.3757 229.124 40.7881C232.39 46.5517 234.913 52.4613 242.408 53.0449C249.755 53.6286 253.391 48.6675 257.472 43.1227C258.214 49.1782 258.882 54.3582 259.625 59.6111C260.292 64.2074 261.554 68.5119 263.409 72.8164C265.19 76.975 263.706 81.6442 264.077 86.0946C264.151 87.3349 263.261 89.1588 265.635 89.4507C265.71 92.0771 265.784 94.7036 265.858 97.403C265.784 97.6219 265.71 97.7678 265.487 97.9137C254.578 97.9867 243.67 98.0596 232.761 98.1326C232.687 97.9867 232.612 97.8408 232.612 97.6949C233.651 95.9439 235.432 96.4546 236.916 96.4546C239.365 96.4546 240.256 95.3602 240.107 93.0985C240.107 92.5878 240.107 93.2445 240.107 92.7338C240.404 84.0518 243.932 84.7814 235.546 82.3738C233.394 81.7902 231.713 82.2279 229.71 81.2795C228.819 80.9876 224.004 79.0178 223.188 78.58C220.739 77.1938 224.566 79.4555 222.414 77.6316C221.894 77.0479 215.915 72.3057 215.841 71.5761C212.353 66.7609 211.166 61.3621 211.389 55.5255C211.463 54.2852 211.166 52.972 211.017 51.6587Z" fill="#FD9993"/>
<path d="M283.371 159.781C283.371 166.639 281.293 168.755 274.465 168.755C267.119 168.755 265.486 167.077 265.486 159.344C265.486 152.486 267.193 150.808 274.169 150.808C281.367 150.735 283.371 152.704 283.371 159.781Z" fill="#6DB6DE"/>
<path d="M240.699 35.6816C232.536 35.9005 224.447 34.8061 216.284 34.6602C214.354 34.5873 213.464 34.2225 213.612 31.9608C214.577 18.0259 212.331 17.588 226.06 21.4548C235.262 24.0083 258.362 25.1757 257.1 34.2954C256.878 36.1194 255.616 35.6087 254.651 35.6087C250.05 35.7546 245.375 35.6816 240.699 35.6816Z" fill="#FD9993"/>
<path d="M268.233 55.526C268.233 52.5347 268.307 49.4705 268.233 46.4793C268.158 44.3635 268.826 43.9258 270.83 44.7283C272.017 45.239 273.502 45.3849 274.615 45.9686C278.399 47.8655 281.442 50.4919 281.442 55.0883C281.442 59.7575 278.548 62.6758 274.54 64.4997C268.307 67.418 268.307 67.3451 268.307 60.633C268.233 58.882 268.233 57.204 268.233 55.526Z" fill="#FB9892"/>
<path d="M231.127 38.5986C240.032 38.5986 248.492 38.5986 257.397 38.5986C254.726 42.2465 252.574 45.6025 249.531 48.156C245.45 51.658 239.142 50.9284 235.803 46.551C234.022 44.2163 232.834 41.444 231.127 38.5986Z" fill="#FB9893"/>
<path d="M211.758 37.1426C216.285 37.3615 220.812 37.5803 225.338 37.8722C226.081 37.9451 227.639 37.9451 226.897 39.1124C224.522 42.9792 222.964 47.6485 217.843 49.1076C215.765 49.6913 213.539 49.9831 211.461 48.7428C210.422 47.3566 211.238 46.0434 211.683 44.7302C211.906 44.4383 212.129 44.2195 212.5 44.0735C213.539 43.8547 214.949 44.1465 215.023 42.6873C215.097 41.3011 213.465 41.4471 212.722 40.7905C212.277 39.5502 211.312 38.5288 211.758 37.1426Z" fill="#FB9892"/>
<path d="M212.278 44.221C211.981 45.6801 211.758 47.1393 211.461 48.6714C206.192 46.7745 204.782 41.5945 201.665 37.8007C202.11 35.539 203.743 36.9252 204.856 36.8523C207.157 36.9252 209.383 37.0711 211.684 37.1441C213.094 37.8737 212.797 39.1869 212.797 40.4272C212.872 41.7404 212.872 42.9807 212.278 44.221Z" fill="#FCFBFB"/>
<path d="M204.932 36.8526C203.968 37.4362 202.483 36.4878 201.741 37.801C200.702 36.9985 200.777 36.4148 202.112 36.4148C203.077 36.3419 203.968 36.7066 204.932 36.8526Z" fill="#AEAEAE"/>
<path d="M238.845 41.0088C240.255 41.1547 241.146 41.8843 241.072 43.3434C240.997 44.8026 239.958 45.5321 238.622 45.4592C237.509 45.3862 236.619 44.5837 236.619 43.3434C236.619 41.8843 237.435 41.1547 238.845 41.0088Z" fill="#0D0807"/>
<path d="M212.278 44.2189C211.684 42.8327 211.61 41.5194 212.872 40.4251C214.207 40.2062 215.543 39.9873 216.285 41.5924C216.656 42.4679 216.508 43.1975 215.914 43.927C214.801 45.1673 213.539 44.8755 212.278 44.2189Z" fill="#120C0B"/>
<path d="M210.498 501.078C202.112 479.629 193.726 458.106 185.266 436.73C184.524 434.833 185.34 433.374 185.786 431.841C195.582 398.719 205.526 365.596 215.396 332.473C216.806 327.804 218.29 323.208 219.552 318.538C220.071 316.642 220.887 315.985 222.891 316.131C227.344 316.423 231.796 316.715 236.175 316.715C238.624 316.715 238.92 317.736 238.92 319.779C238.624 337.726 238.401 355.674 238.104 373.621C237.585 412.727 237.065 451.759 236.472 490.864C236.397 494.147 236.175 497.357 235.952 500.64C235.432 501.005 234.913 501.443 234.319 501.443C226.453 501.735 218.438 502.245 210.498 501.078Z" fill="#6DB5DE"/>
</svg>
