<svg width="593" height="394" viewBox="0 0 593 394" fill="none" xmlns="http://www.w3.org/2000/svg">
<path d="M254.148 51.2109H249.455V41.8073H254.148V51.2109Z" fill="#263238"/>
<path d="M290.895 66.6856V62.1922L296.282 55.7656H297.914C297.814 58.1473 298.125 60.5284 298.832 62.8049V66.6815L290.895 66.6856Z" fill="#263238"/>
<path d="M289.339 86.0723H300.664V65.9241C300.664 65.7211 300.583 65.5264 300.44 65.3828C300.296 65.2393 300.101 65.1587 299.898 65.1587H290.105C289.902 65.1587 289.707 65.2393 289.564 65.3828C289.42 65.5264 289.339 65.7211 289.339 65.9241V86.0723Z" fill="#263238"/>
<path opacity="0.1" d="M289.339 86.0723H300.664V65.9241C300.664 65.7211 300.583 65.5264 300.44 65.3828C300.296 65.2393 300.101 65.1587 299.898 65.1587H290.105C289.902 65.1587 289.707 65.2393 289.564 65.3828C289.42 65.5264 289.339 65.7211 289.339 65.9241V86.0723Z" fill="white"/>
<path d="M287.946 93.3457H301.888V80.7505C301.888 80.5667 301.815 80.3903 301.685 80.2603C301.555 80.1303 301.379 80.0573 301.195 80.0573H288.639C288.455 80.0573 288.279 80.1303 288.149 80.2603C288.019 80.3903 287.946 80.5667 287.946 80.7505V93.3457Z" fill="#263238"/>
<path d="M288.311 100.064H284.909C283.481 100.064 282.326 101.863 282.326 104.083C282.326 106.303 283.481 108.104 284.909 108.104H288.311C289.736 108.104 290.894 106.305 290.894 104.083C290.894 101.861 289.736 100.064 288.311 100.064Z" fill="#263238"/>
<path opacity="0.1" d="M290.894 104.083C290.894 106.305 289.736 108.104 288.311 108.104C286.885 108.104 285.726 106.305 285.726 104.083C285.726 101.861 286.883 100.064 288.311 100.064C289.738 100.064 290.894 101.863 290.894 104.083Z" fill="white"/>
<path d="M286.043 118.918H303.992V92.8012C303.992 92.224 303.763 91.6704 303.355 91.2622C302.947 90.854 302.393 90.6247 301.816 90.6247H288.22C287.643 90.6247 287.089 90.854 286.681 91.2622C286.273 91.6704 286.043 92.224 286.043 92.8012V118.918Z" fill="#263238"/>
<path opacity="0.2" d="M286.043 118.918H303.992V92.8012C303.992 92.224 303.763 91.6704 303.355 91.2622C302.947 90.854 302.393 90.6247 301.816 90.6247H288.22C287.643 90.6247 287.089 90.854 286.681 91.2622C286.273 91.6704 286.043 92.224 286.043 92.8012V118.918Z" fill="white"/>
<path d="M304.815 100.064H301.415C299.987 100.064 298.83 101.863 298.83 104.083C298.83 106.303 299.987 108.104 301.415 108.104H304.815C306.243 108.104 307.4 106.305 307.4 104.083C307.4 101.861 306.243 100.064 304.815 100.064Z" fill="#263238"/>
<path opacity="0.1" d="M307.4 104.083C307.4 106.305 306.243 108.104 304.815 108.104C303.387 108.104 302.23 106.305 302.23 104.083C302.23 101.861 303.387 100.064 304.815 100.064C306.243 100.064 307.4 101.863 307.4 104.083Z" fill="white"/>
<path d="M330.907 18.125H328.039V8.33148H330.907V18.125Z" fill="#263238"/>
<path opacity="0.2" d="M330.907 18.125H328.039V8.33148H330.907V18.125Z" fill="white"/>
<path d="M382.072 178.15H375.891V13.2946H382.072V178.15Z" fill="#263238"/>
<path opacity="0.6" d="M382.072 178.15H375.891V13.2946H382.072V178.15Z" fill="white"/>
<path d="M382.624 32.4355H375.281V14.86H382.624V32.4355Z" fill="#263238"/>
<path opacity="0.2" d="M382.624 32.4355H375.281V14.86H382.624V32.4355Z" fill="white"/>
<path d="M332.589 178.15H326.408V13.2946H332.589V178.15Z" fill="#263238"/>
<path opacity="0.6" d="M332.589 178.15H326.408V13.2946H332.589V178.15Z" fill="white"/>
<path d="M333.147 32.4355H325.804V14.86H333.147V32.4355Z" fill="#263238"/>
<path opacity="0.1" d="M333.147 32.4355H325.804V14.86H333.147V32.4355Z" fill="white"/>
<path d="M330.942 30.373L376.636 30.373V18.1306L330.942 18.1306C330.657 18.1306 330.383 18.2441 330.181 18.4461C329.979 18.648 329.865 18.922 329.865 19.2076V29.2961C329.865 29.5817 329.979 29.8557 330.181 30.0576C330.383 30.2596 330.657 30.373 330.942 30.373Z" fill="#263238"/>
<path opacity="0.2" d="M330.942 30.373L376.636 30.373V18.1306L330.942 18.1306C330.657 18.1306 330.383 18.2441 330.181 18.4461C329.979 18.648 329.865 18.922 329.865 19.2076V29.2961C329.865 29.5817 329.979 29.8557 330.181 30.0576C330.383 30.2596 330.657 30.373 330.942 30.373Z" fill="white"/>
<path d="M382.624 94.332H375.281V76.7565H382.624V94.332Z" fill="#263238"/>
<path opacity="0.2" d="M382.624 94.332H375.281V76.7565H382.624V94.332Z" fill="white"/>
<path d="M333.149 94.332H325.807V76.7565H333.149V94.332Z" fill="#263238"/>
<path opacity="0.1" d="M333.149 94.332H325.807V76.7565H333.149V94.332Z" fill="white"/>
<path d="M329.513 78.9492H378.01V89.8836H376.844C376.844 89.8836 366.842 81.984 349.779 81.984C332.715 81.984 332.611 89.8836 332.611 89.8836H329.517L329.513 78.9492Z" fill="#263238"/>
<path opacity="0.2" d="M329.513 78.9492H378.01V89.8836H376.844C376.844 89.8836 366.842 81.984 349.779 81.984C332.715 81.984 332.611 89.8836 332.611 89.8836H329.517L329.513 78.9492Z" fill="white"/>
<path d="M328.524 59.5428H321.85C321.643 59.5431 321.438 59.5025 321.247 59.4235C321.056 59.3445 320.882 59.2286 320.736 59.0824C320.59 58.9361 320.474 58.7625 320.395 58.5714C320.316 58.3803 320.275 58.1755 320.276 57.9687C320.276 57.5512 320.442 57.1508 320.737 56.8556C321.032 56.5604 321.432 56.3945 321.85 56.3945H328.524C328.942 56.3945 329.342 56.5603 329.638 56.8554C329.933 57.1506 330.1 57.551 330.1 57.9687C330.1 58.1756 330.059 58.3804 329.98 58.5715C329.901 58.7626 329.785 58.9363 329.638 59.0825C329.492 59.2287 329.318 59.3446 329.127 59.4236C328.936 59.5026 328.731 59.5431 328.524 59.5428Z" fill="#263238"/>
<path opacity="0.7" d="M328.524 59.5428H321.85C321.643 59.5431 321.438 59.5025 321.247 59.4235C321.056 59.3445 320.882 59.2286 320.736 59.0824C320.59 58.9361 320.474 58.7625 320.395 58.5714C320.316 58.3803 320.275 58.1755 320.276 57.9687C320.276 57.5512 320.442 57.1508 320.737 56.8556C321.032 56.5604 321.432 56.3945 321.85 56.3945H328.524C328.942 56.3945 329.342 56.5603 329.638 56.8554C329.933 57.1506 330.1 57.551 330.1 57.9687C330.1 58.1756 330.059 58.3804 329.98 58.5715C329.901 58.7626 329.785 58.9363 329.638 59.0825C329.492 59.2287 329.318 59.3446 329.127 59.4236C328.936 59.5026 328.731 59.5431 328.524 59.5428Z" fill="white"/>
<path d="M383.244 102.396H374.682C374.26 102.396 373.917 102.054 373.917 101.631V95.0993C373.917 94.6766 374.26 94.3339 374.682 94.3339H383.244C383.667 94.3339 384.01 94.6766 384.01 95.0993V101.631C384.01 102.054 383.667 102.396 383.244 102.396Z" fill="#263238"/>
<path d="M333.746 102.396H325.184C324.761 102.396 324.419 102.054 324.419 101.631V95.0993C324.419 94.6766 324.761 94.3339 325.184 94.3339H333.746C334.169 94.3339 334.511 94.6766 334.511 95.0993V101.631C334.511 102.054 334.169 102.396 333.746 102.396Z" fill="#263238"/>
<path d="M340.728 159.051H283.597V152.521H340.728V159.051Z" fill="#263238"/>
<path d="M280.357 178.148H342.662V157.592C342.662 157.421 342.628 157.252 342.563 157.094C342.497 156.936 342.402 156.792 342.281 156.671C342.16 156.55 342.016 156.454 341.858 156.389C341.7 156.324 341.531 156.29 341.36 156.29H281.658C281.487 156.29 281.318 156.324 281.16 156.389C281.002 156.454 280.859 156.55 280.738 156.671C280.617 156.792 280.521 156.936 280.456 157.094C280.39 157.252 280.357 157.421 280.357 157.592V178.148Z" fill="#263238"/>
<path opacity="0.4" d="M342.667 157.593V178.141H280.361V157.593C280.36 157.422 280.394 157.252 280.459 157.094C280.524 156.936 280.619 156.793 280.74 156.672C280.861 156.551 281.005 156.455 281.163 156.39C281.321 156.325 281.49 156.292 281.661 156.293H341.346C341.694 156.291 342.028 156.426 342.275 156.67C342.523 156.914 342.663 157.245 342.667 157.593Z" fill="white"/>
<path opacity="0.2" d="M293.132 157.593V178.141H280.361V157.593C280.36 157.422 280.393 157.252 280.458 157.094C280.523 156.936 280.619 156.793 280.74 156.672C280.861 156.551 281.004 156.455 281.162 156.39C281.32 156.325 281.49 156.292 281.661 156.293H291.832C292.003 156.292 292.172 156.325 292.33 156.39C292.488 156.455 292.632 156.551 292.753 156.672C292.874 156.793 292.969 156.936 293.034 157.094C293.099 157.252 293.132 157.422 293.132 157.593Z" fill="white"/>
<path d="M327.242 135.736H340.089V129.432C340.089 129.117 339.964 128.815 339.742 128.593C339.519 128.37 339.218 128.245 338.903 128.245H328.429C328.114 128.245 327.812 128.37 327.59 128.593C327.367 128.815 327.242 129.117 327.242 129.432V135.736Z" fill="#263238"/>
<path d="M324.801 136.617V140.553C324.801 140.749 324.763 140.943 324.688 141.124C324.614 141.305 324.504 141.469 324.366 141.608C324.227 141.746 324.063 141.856 323.882 141.931C323.701 142.006 323.507 142.045 323.312 142.045H274.523C274.252 142.045 273.988 141.95 273.779 141.776C273.57 141.602 273.428 141.361 273.378 141.094L256.461 49.8555H244.173L263.566 154.413C263.622 154.704 263.777 154.966 264.006 155.154C264.234 155.342 264.521 155.445 264.817 155.445H341.38C341.547 155.445 341.713 155.412 341.867 155.348C342.021 155.284 342.161 155.19 342.279 155.072C342.398 154.954 342.491 154.813 342.555 154.659C342.619 154.504 342.651 154.339 342.651 154.172V136.609C342.65 136.101 342.449 135.614 342.09 135.255C341.731 134.897 341.244 134.695 340.736 134.694H326.718C326.466 134.694 326.216 134.744 325.983 134.841C325.75 134.937 325.538 135.079 325.36 135.258C325.182 135.436 325.041 135.648 324.945 135.882C324.849 136.115 324.8 136.365 324.801 136.617Z" fill="#263238"/>
<path opacity="0.5" d="M324.801 136.617V140.553C324.801 140.749 324.763 140.943 324.688 141.124C324.614 141.305 324.504 141.469 324.366 141.608C324.227 141.746 324.063 141.856 323.882 141.931C323.701 142.006 323.507 142.045 323.312 142.045H274.523C274.252 142.045 273.988 141.95 273.779 141.776C273.57 141.602 273.428 141.361 273.378 141.094L256.461 49.8555H244.173L263.566 154.413C263.622 154.704 263.777 154.966 264.006 155.154C264.234 155.342 264.521 155.445 264.817 155.445H341.38C341.547 155.445 341.713 155.412 341.867 155.348C342.021 155.284 342.161 155.19 342.279 155.072C342.398 154.954 342.491 154.813 342.555 154.659C342.619 154.504 342.651 154.339 342.651 154.172V136.609C342.65 136.101 342.449 135.614 342.09 135.255C341.731 134.897 341.244 134.695 340.736 134.694H326.718C326.466 134.694 326.216 134.744 325.983 134.841C325.75 134.937 325.538 135.079 325.36 135.258C325.182 135.436 325.041 135.648 324.945 135.882C324.849 136.115 324.8 136.365 324.801 136.617Z" fill="white"/>
<path opacity="0.2" d="M271.01 155.447H264.82C264.523 155.45 264.234 155.348 264.003 155.16C263.773 154.971 263.617 154.707 263.562 154.415L244.169 49.8574H250.358L269.751 154.415C269.806 154.707 269.963 154.971 270.193 155.16C270.423 155.348 270.712 155.45 271.01 155.447Z" fill="white"/>
<path opacity="0.2" d="M332.903 134.709C332.397 134.707 331.911 134.905 331.551 135.261C331.191 135.617 330.987 136.101 330.984 136.607V140.548C330.985 140.743 330.947 140.936 330.873 141.117C330.798 141.298 330.689 141.462 330.551 141.6C330.413 141.738 330.249 141.847 330.068 141.922C329.888 141.996 329.694 142.034 329.499 142.033H323.309C323.505 142.034 323.698 141.996 323.879 141.922C324.059 141.847 324.224 141.738 324.362 141.6C324.5 141.462 324.609 141.298 324.683 141.117C324.758 140.936 324.796 140.743 324.795 140.548V136.607C324.798 136.101 325.002 135.617 325.362 135.261C325.721 134.905 326.208 134.707 326.714 134.709H332.903Z" fill="white"/>
<path d="M341.231 122.458H328.591C328.444 122.458 328.299 122.429 328.163 122.372C328.028 122.316 327.904 122.234 327.801 122.13C327.697 122.026 327.615 121.903 327.559 121.767C327.503 121.631 327.474 121.486 327.475 121.339V116.594C327.475 116.057 327.261 115.543 326.882 115.163C326.502 114.784 325.987 114.57 325.451 114.57H282.379C281.843 114.571 281.329 114.784 280.95 115.164C280.571 115.543 280.358 116.058 280.358 116.594V139.065C280.358 139.602 280.571 140.116 280.95 140.495C281.329 140.874 281.843 141.087 282.379 141.087H325.451C325.987 141.087 326.502 140.874 326.881 140.495C327.261 140.116 327.474 139.602 327.475 139.065V135.131C327.475 134.835 327.592 134.551 327.801 134.341C328.011 134.132 328.295 134.013 328.591 134.013H341.231C341.618 134.013 341.988 133.859 342.261 133.586C342.534 133.313 342.688 132.943 342.688 132.556V123.908C342.686 123.523 342.532 123.154 342.259 122.882C341.986 122.61 341.617 122.458 341.231 122.458Z" fill="#263238"/>
<path opacity="0.4" d="M341.231 122.458H328.591C328.444 122.458 328.299 122.429 328.163 122.372C328.028 122.316 327.904 122.234 327.801 122.13C327.697 122.026 327.615 121.903 327.559 121.767C327.503 121.631 327.474 121.486 327.475 121.339V116.594C327.475 116.057 327.261 115.543 326.882 115.163C326.502 114.784 325.987 114.57 325.451 114.57H282.379C281.843 114.571 281.329 114.784 280.95 115.164C280.571 115.543 280.358 116.058 280.358 116.594V139.065C280.358 139.602 280.571 140.116 280.95 140.495C281.329 140.874 281.843 141.087 282.379 141.087H325.451C325.987 141.087 326.502 140.874 326.881 140.495C327.261 140.116 327.474 139.602 327.475 139.065V135.131C327.475 134.835 327.592 134.551 327.801 134.341C328.011 134.132 328.295 134.013 328.591 134.013H341.231C341.618 134.013 341.988 133.859 342.261 133.586C342.534 133.313 342.688 132.943 342.688 132.556V123.908C342.686 123.523 342.532 123.154 342.259 122.882C341.986 122.61 341.617 122.458 341.231 122.458Z" fill="white"/>
<path opacity="0.2" d="M294.757 141.085H282.379C281.843 141.084 281.329 140.871 280.95 140.492C280.571 140.113 280.358 139.599 280.357 139.063V116.596C280.358 116.06 280.571 115.547 280.95 115.168C281.329 114.789 281.843 114.575 282.379 114.574H294.757C294.221 114.575 293.708 114.789 293.329 115.168C292.95 115.547 292.736 116.06 292.735 116.596V139.063C292.736 139.599 292.95 140.113 293.329 140.492C293.708 140.871 294.221 141.084 294.757 141.085Z" fill="white"/>
<path d="M259.339 68.6665H241.198C239.853 68.6665 238.52 68.4014 237.277 67.8866C236.034 67.3717 234.905 66.617 233.954 65.6657C233.002 64.7143 232.248 63.5849 231.733 62.3418C231.218 61.0988 230.953 59.7666 230.953 58.4211C230.953 55.7039 232.032 53.098 233.954 51.1766C235.875 49.2552 238.481 48.1758 241.198 48.1758H259.339C262.056 48.1758 264.662 49.2552 266.584 51.1766C268.505 53.098 269.584 55.7039 269.584 58.4211C269.584 59.7666 269.319 61.0988 268.804 62.3418C268.29 63.5849 267.535 64.7143 266.584 65.6657C265.632 66.617 264.503 67.3717 263.26 67.8866C262.017 68.4014 260.684 68.6665 259.339 68.6665Z" fill="#263238"/>
<path opacity="0.1" d="M259.339 68.6665H241.198C239.853 68.6665 238.52 68.4014 237.277 67.8866C236.034 67.3717 234.905 66.617 233.954 65.6657C233.002 64.7143 232.248 63.5849 231.733 62.3418C231.218 61.0988 230.953 59.7666 230.953 58.4211C230.953 55.7039 232.032 53.098 233.954 51.1766C235.875 49.2552 238.481 48.1758 241.198 48.1758H259.339C262.056 48.1758 264.662 49.2552 266.584 51.1766C268.505 53.098 269.584 55.7039 269.584 58.4211C269.584 59.7666 269.319 61.0988 268.804 62.3418C268.29 63.5849 267.535 64.7143 266.584 65.6657C265.632 66.617 264.503 67.3717 263.26 67.8866C262.017 68.4014 260.684 68.6665 259.339 68.6665Z" fill="white"/>
<path d="M267.573 51.7148H261.901C259.523 51.7148 257.594 54.7166 257.594 58.4178C257.594 62.119 259.523 65.1208 261.901 65.1208H267.573C269.952 65.1208 271.883 62.119 271.883 58.4178C271.883 54.7166 269.952 51.7148 267.573 51.7148Z" fill="#263238"/>
<path opacity="0.1" d="M271.883 58.4178C271.883 62.119 269.954 65.1208 267.573 65.1208C265.192 65.1208 263.263 62.119 263.263 58.4178C263.263 54.7166 265.192 51.7148 267.573 51.7148C269.954 51.7148 271.883 54.7166 271.883 58.4178Z" fill="white"/>
<path d="M243.539 44.2148H206.051C205.097 44.2148 204.152 44.4028 203.271 44.7679C202.39 45.1329 201.589 45.668 200.915 46.3426C200.241 47.0172 199.706 47.818 199.341 48.6993C198.976 49.5806 198.788 50.5252 198.789 51.479V60.0739C198.789 62.0001 199.554 63.8474 200.915 65.2097C202.277 66.5719 204.124 67.3375 206.051 67.338H243.539C245.466 67.338 247.313 66.5727 248.676 65.2104C250.038 63.8481 250.803 62.0005 250.803 60.0739V51.4708C250.802 49.5455 250.036 47.6996 248.673 46.3389C247.311 44.9783 245.465 44.2143 243.539 44.2148Z" fill="#263238"/>
<path opacity="0.4" d="M243.539 44.2148H206.051C205.097 44.2148 204.152 44.4028 203.271 44.7679C202.39 45.1329 201.589 45.668 200.915 46.3426C200.241 47.0172 199.706 47.818 199.341 48.6993C198.976 49.5806 198.788 50.5252 198.789 51.479V60.0739C198.789 62.0001 199.554 63.8474 200.915 65.2097C202.277 66.5719 204.124 67.3375 206.051 67.338H243.539C245.466 67.338 247.313 66.5727 248.676 65.2104C250.038 63.8481 250.803 62.0005 250.803 60.0739V51.4708C250.802 49.5455 250.036 47.6996 248.673 46.3389C247.311 44.9783 245.465 44.2143 243.539 44.2148Z" fill="white"/>
<path opacity="0.2" d="M228.722 67.334H206.049C202.037 67.334 198.785 64.0817 198.785 60.0698V51.475C198.785 47.4631 202.037 44.2108 206.049 44.2108H228.722C232.734 44.2108 235.987 47.4631 235.987 51.475V60.0698C235.987 64.0817 232.734 67.334 228.722 67.334Z" fill="white"/>
<path d="M201.523 49.5156H206.813C209.035 49.5156 210.834 52.3152 210.834 55.7688C210.834 59.2225 209.035 62.02 206.813 62.02H201.523C199.303 62.02 197.504 59.2225 197.504 55.7688C197.504 52.3152 199.303 49.5156 201.523 49.5156Z" fill="#263238"/>
<path opacity="0.1" d="M197.506 55.7688C197.506 59.2225 199.305 62.02 201.525 62.02C203.745 62.02 205.546 59.2225 205.546 55.7688C205.546 52.3152 203.747 49.5156 201.525 49.5156C199.303 49.5156 197.506 52.3152 197.506 55.7688Z" fill="white"/>
<path d="M193.849 48.3184H200.153C202.8 48.3184 204.944 51.6544 204.944 55.7703C204.944 59.8861 202.8 63.2201 200.153 63.2201H193.849C191.204 63.2201 189.058 59.8841 189.058 55.7703C189.058 51.6564 191.204 48.3184 193.849 48.3184Z" fill="#263238"/>
<path opacity="0.1" d="M189.059 55.7703C189.059 59.8841 191.205 63.2222 193.852 63.2222C196.499 63.2222 198.642 59.8841 198.642 55.7703C198.642 51.6564 196.497 48.3184 193.852 48.3184C191.207 48.3184 189.059 51.6544 189.059 55.7703Z" fill="white"/>
<path d="M222.146 49.5156H227.436C229.655 49.5156 231.454 52.3152 231.454 55.7688C231.454 59.2225 229.655 62.02 227.436 62.02H222.146C219.926 62.02 218.127 59.2225 218.127 55.7688C218.127 52.3152 219.926 49.5156 222.146 49.5156Z" fill="#263238"/>
<path opacity="0.1" d="M218.129 55.7688C218.129 59.2225 219.928 62.02 222.148 62.02C224.368 62.02 226.169 59.2225 226.169 55.7688C226.169 52.3152 224.368 49.5156 222.148 49.5156C219.928 49.5156 218.129 52.3152 218.129 55.7688Z" fill="white"/>
<path d="M214.48 48.3184H220.784C223.429 48.3184 225.575 51.6544 225.575 55.7703C225.575 59.8861 223.429 63.2201 220.784 63.2201H214.48C211.835 63.2201 209.689 59.8841 209.689 55.7703C209.689 51.6564 211.835 48.3184 214.48 48.3184Z" fill="#263238"/>
<path opacity="0.1" d="M209.689 55.7703C209.689 59.8841 211.835 63.2222 214.48 63.2222C217.125 63.2222 219.271 59.8841 219.271 55.7703C219.271 51.6564 217.127 48.3184 214.48 48.3184C211.833 48.3184 209.689 51.6544 209.689 55.7703Z" fill="white"/>
<path d="M62.0006 141.857C64.2448 136.01 65.132 129.798 66.5411 123.743C69.9334 109.492 73.1692 95.189 76.4571 80.9381C79.171 69.2973 88.6695 61.7282 100.725 61.5716C108.971 61.4672 117.217 61.4672 125.463 61.3628C125.724 61.5194 125.985 61.7282 126.141 61.9892C127.342 65.4867 127.29 69.1407 127.707 72.7948C130.056 93.0487 132.456 113.355 134.857 133.609C134.857 133.765 134.909 133.974 134.909 134.131C135.431 141.126 135.744 139.977 141.537 140.082C143.886 140.134 146.234 140.134 148.583 140.082C151.506 140.03 151.923 139.716 151.714 136.689C151.401 131.991 150.931 127.345 150.514 122.699C149.731 113.094 148.948 103.489 148.061 93.8839C147.226 84.6966 146.652 75.5614 145.66 66.3741C145.556 65.1735 145.399 63.9728 145.713 62.7722C145.817 62.459 145.921 62.198 146.13 61.9892C147.696 60.9974 149.47 61.4672 151.14 61.2062C151.819 61.3106 152.549 61.2062 153.228 61.2062C156.516 61.3628 159.804 61.154 163.092 61.3106C164.762 61.3628 165.388 60.7364 165.388 59.066C165.388 54.3157 165.127 49.5654 165.545 44.8151C165.805 44.2931 165.858 43.4579 166.849 43.9277C167.006 49.8786 166.901 55.7773 166.954 60.4232C166.745 55.4641 167.319 49.3044 166.693 43.0925C166.588 42.2573 166.641 41.5264 167.476 41.0566C168.832 41.8397 168.415 43.1969 168.415 44.3453C168.467 49.461 168.519 54.6289 168.415 59.7446C168.363 61.676 169.041 63.0332 170.607 64.1294C173.634 66.2697 175.304 69.2451 176.452 72.7948C179.792 83.235 183.967 93.3619 187.621 103.698C187.777 104.22 187.986 104.742 188.143 105.212C189.865 109.805 191.483 114.451 193.205 119.045C193.361 119.515 193.518 119.984 193.675 120.454C194.353 122.386 195.084 124.317 195.867 126.353C198.424 124.735 199.676 122.177 201.712 120.298C202.129 119.88 202.547 119.462 202.964 119.045C206.931 114.295 211.262 109.91 215.281 105.159C215.699 104.742 216.116 104.324 216.534 103.854C218.673 101.14 221.231 98.843 223.37 96.1286C223.945 95.3978 224.571 94.667 225.615 94.5626C227.441 94.928 228.589 96.2852 229.946 97.3814C235.896 102.184 241.95 106.83 247.847 111.737C251.866 115.078 251.866 115.495 248.213 119.41C245.76 122.02 243.359 124.63 241.115 127.345C238.714 129.798 236.47 132.408 234.226 134.966C224.571 145.667 215.177 156.629 205.261 167.07C202.181 170.306 198.319 171.924 193.779 171.715C192.944 171.663 192.005 171.768 191.43 170.88C191.17 170.41 191.117 169.888 191.065 169.366C190.439 162.789 187.099 158.509 180.627 156.995C175.826 155.899 171.077 154.437 166.223 153.497C165.962 153.445 165.701 153.393 165.44 153.341C159.282 152.192 158.916 152.453 157.455 158.352C156.098 163.729 154.95 169.21 153.645 174.587C153.332 175.944 153.123 177.353 151.506 177.927C150.723 178.136 149.94 178.084 149.157 178.084C124.941 178.084 100.725 178.084 76.5093 178.084C75.9874 178.084 75.4655 178.084 74.9436 178.032C69.6725 176.205 65.8105 172.707 62.8357 168.114C62.366 167.383 61.9484 166.652 61.4787 165.921C61.009 164.773 60.6437 163.572 60.174 162.476C58.5561 157.517 58.7649 152.61 60.2262 147.703C61.0612 145.824 60.6437 143.579 62.0006 141.857Z" fill="#6DB5DE"/>
<path d="M298.315 238.271C297.637 250.538 296.906 262.805 296.228 275.02C296.384 275.594 296.697 276.168 296.75 276.795C296.645 280.605 296.228 284.364 296.123 288.175C295.81 289.271 295.758 290.471 295.184 291.515C294.245 307.176 293.305 322.888 292.366 338.548C292.105 343.142 291.739 347.736 291.426 352.329C290.643 353.165 289.547 353.165 288.504 353.165C279.005 353.165 269.507 354.052 260.008 353.687C258.704 353.635 257.399 353.791 256.198 353.217C255.103 352.329 255.572 351.129 255.729 350.085C260.217 316.833 264.549 283.581 268.985 250.329C270.081 242.342 271.125 234.303 272.012 226.264C271.072 229.657 270.759 233.155 270.342 236.6C266.167 267.973 262.044 299.346 257.869 330.666C256.981 337.557 255.938 344.447 255.207 351.338C255.155 352.016 255.259 352.747 254.528 353.217C253.276 353.791 251.971 353.687 250.666 353.687C238.193 353.687 225.668 353.687 213.194 353.687C211.733 353.687 210.22 353.948 208.967 352.799C209.698 347.266 210.376 341.681 211.107 336.147C211.524 335.364 210.898 334.633 211.055 333.903C211.002 332.441 210.95 330.927 211.211 329.466C213.247 317.094 214.395 304.566 216.221 292.142C216.43 291.411 216.639 290.732 216.587 289.949C217.056 284.26 217.839 278.622 218.622 273.036C218.622 272.41 218.674 271.836 218.779 271.209C219.092 269.591 219.248 267.973 219.509 266.355C219.927 263.223 219.614 262.857 216.535 262.857C211.002 262.857 205.47 262.857 199.938 262.857C198.738 262.857 197.485 263.014 196.442 262.179C196.859 260.299 198.425 260.821 199.573 260.821C205.053 260.717 210.533 260.769 216.013 260.769C220.188 260.769 220.188 260.665 220.762 256.436C221.701 249.024 222.745 241.611 223.841 234.199C224.259 231.171 224.154 231.067 221.179 231.015C219.092 231.015 217.004 231.015 214.917 231.015C213.612 231.015 212.307 230.962 211.159 230.179C210.167 229.449 209.959 228.3 209.698 227.204C206.566 214.206 203.592 201.156 200.512 188.158C200.199 186.853 199.573 185.443 201.086 184.347C202.235 183.877 203.487 183.929 204.687 183.929C229.217 183.929 253.746 183.929 278.275 183.929C279.318 183.929 280.362 183.929 281.406 184.138C286.729 185.548 291.374 188.106 295.027 192.334C299.829 197.763 301.499 204.079 300.716 211.178C300.299 214.728 300.299 218.278 300.09 221.827C299.881 226.003 299.359 230.127 299.307 234.303C298.942 235.556 298.889 236.966 298.315 238.271Z" fill="#8F3600"/>
<path d="M210.845 229.605C214.968 230.44 219.143 229.918 223.266 230.075C224.519 230.127 225.197 230.283 224.988 231.797C223.632 240.932 222.327 250.068 221.126 259.255C220.918 261.03 220.291 261.5 218.569 261.447C211.628 261.343 204.687 261.395 197.798 261.395C197.38 261.395 196.963 261.604 196.597 261.656C198.111 264.527 198.424 267.764 199.311 270.844C199.416 271.522 199.729 272.149 199.833 272.879C201.19 278.569 202.39 284.259 203.747 289.949C203.852 290.367 203.956 290.784 204.008 291.202C206.618 302.425 208.966 313.7 211.419 324.976C211.785 326.594 211.941 328.212 211.68 329.883C211.628 331.24 211.576 332.545 211.524 333.902C211.263 334.215 210.95 334.215 210.689 333.954C207.714 320.434 204.687 306.914 201.712 293.447C201.555 292.664 201.294 291.933 201.086 291.202C200.668 290.628 200.303 290.053 200.146 289.375C198.789 283.998 197.641 278.569 196.336 273.193C196.232 272.514 195.971 271.835 195.867 271.157C195.449 268.964 194.823 266.824 194.353 264.632C193.936 262.805 192.892 262.074 191.065 262.126C188.404 262.178 185.742 262.022 183.08 262.387C182.611 262.387 182.245 262.178 181.932 261.865C180.993 261.813 180.053 261.656 179.114 261.656C166.693 261.656 154.272 261.761 141.851 261.552C139.189 261.5 138.145 262.23 137.571 264.893C133.344 284.05 128.908 303.104 124.681 322.261C119.879 343.925 115.286 365.64 110.589 387.356C110.381 388.243 110.485 389.653 109.128 389.34C107.771 389.026 108.45 387.774 108.658 386.938C117.478 346.326 125.933 305.662 135.536 265.206C136.371 261.761 136.371 261.761 132.822 261.656C108.293 260.925 89.1917 244.378 84.86 220.104C82.8246 208.829 80.737 197.554 78.6494 186.278C78.5451 185.6 78.5451 184.816 77.6056 184.712C76.1443 185.286 74.5787 185.443 73.013 185.391C67.7419 185.338 62.4186 185.338 57.1474 185.391C53.7029 185.443 50.4672 186.174 47.8055 188.679C45.6658 190.663 44.622 193.169 44.2044 195.987C43.7869 197.449 43.9435 198.911 43.9435 200.425C43.9435 262.178 43.9435 323.932 43.9435 385.633C43.9435 392.263 43.787 390.801 38.3593 391.062C36.4282 391.167 35.6454 390.331 35.5932 388.504C35.5932 387.721 35.541 386.938 35.541 386.155C35.541 323.201 35.541 260.247 35.541 197.292C35.541 188.053 40.9165 180.432 49.0059 177.978C49.9453 177.717 50.8847 177.613 51.7719 177.3C52.6069 177.091 53.4942 176.986 54.3292 177.091C71.082 177.091 87.7826 177.874 104.535 177.613C112.52 177.508 120.505 177.561 128.49 177.613C148.896 177.717 169.25 176.778 189.656 177.091C224.78 177.091 259.903 177.091 294.974 177.091C318.407 176.934 341.841 177.039 365.274 176.986C374.459 176.986 383.696 177.195 392.882 177.091C393.769 177.091 394.604 177.039 395.491 177.3C395.961 177.508 396.587 177.769 396.326 178.396C395.126 180.849 394.656 183.772 391.942 185.234C390.742 185.547 389.542 185.495 388.341 185.495C373.989 185.495 359.585 185.495 345.233 185.495C343.772 185.495 342.258 185.756 340.953 184.764C327.749 184.764 314.545 184.816 301.342 184.816C300.767 185.234 300.141 185.391 299.463 185.443C293.67 185.443 287.825 186.017 282.031 184.816C259.642 184.816 237.253 184.764 214.916 184.764C210.167 184.764 205.365 184.869 200.616 184.869C199.259 185.756 197.746 185.495 196.284 185.495C165.701 185.495 135.171 185.495 104.588 185.495C99.7862 185.495 99.7339 185.547 100.882 190.089C102.187 195.152 103.126 200.268 104.588 205.279C107.354 214.78 113.147 221.827 121.967 226.368C123.689 227.256 125.515 227.673 127.499 227.726C138.667 228.143 149.888 228.456 161.056 228.248C176.609 227.934 192.109 229.135 207.662 228.77C208.758 228.822 209.906 228.874 210.845 229.605Z" fill="black"/>
<path d="M51.9287 178.086C43.7871 180.018 38.5159 184.925 36.5849 193.172C36.324 194.321 36.2718 195.574 36.2718 196.774C36.2718 260.616 36.2718 324.405 36.2196 388.247C36.2196 390.231 36.6893 391.17 38.7769 390.857C39.5597 390.753 40.3425 390.753 41.1254 390.857C42.7955 391.118 43.2652 390.283 43.1608 388.769C43.1086 388.091 43.1608 387.36 43.1608 386.681C43.1608 324.144 43.1608 261.66 43.1608 199.123C43.1608 197.923 42.7955 196.67 43.5783 195.574C44.7787 196.774 44.4655 198.34 44.4655 199.802C44.5177 214.262 44.4655 228.669 44.4655 243.129C44.4655 290.631 44.4655 338.082 44.4655 385.585C44.4655 387.569 44.1002 389.709 46.5531 390.701C47.075 391.379 46.6053 391.745 46.0834 391.745C45.2484 391.745 44.3612 391.901 43.5783 391.536C30.009 390.962 16.4919 391.327 2.92261 391.327C0.678452 391.327 0 390.857 0 388.508C0.0521896 324.301 0.0521769 260.146 0.0521769 195.939C0.0521769 184.455 6.47151 178.086 18.0054 178.086C27.3996 178.086 36.7937 178.034 46.1356 177.982C46.501 177.721 46.9184 177.46 47.3881 177.408C49.006 177.303 50.6239 176.781 51.9287 178.086Z" fill="#202B6D"/>
<path d="M585.673 164.977C584.733 170.354 583.794 175.678 582.854 181.055C582.489 183.247 582.489 185.492 582.124 187.684C581.237 192.8 580.506 197.916 579.358 202.927C578.784 206.216 578.209 209.504 577.479 212.793C576.018 221.615 574.608 230.437 569.964 238.372C565.214 246.515 558.795 252.883 550.549 257.477C549.14 258.26 547.731 258.886 546.27 259.513C540.372 262.332 534.057 263.271 527.638 263.741C524.924 263.95 524.82 264.054 525.394 266.664C525.811 268.544 526.386 270.371 526.699 272.25C526.751 273.085 526.803 273.92 527.168 274.703C529.882 285.457 532.178 296.367 534.579 307.224C537.502 320.536 540.529 333.847 543.243 347.21C543.451 348.046 543.138 348.881 543.138 349.716C545.852 362.505 548.618 375.294 551.28 388.084C551.436 388.867 552.376 390.015 550.914 390.381C549.453 390.746 549.61 389.389 549.453 388.501C546.635 375.555 543.869 362.61 541.051 349.612C540.685 348.881 539.955 348.307 539.902 347.419C537.397 337.188 535.362 326.904 533.118 316.621C529.987 302.265 526.699 287.962 523.463 273.607C523.306 272.615 523.202 271.571 522.784 270.579C522.628 270.11 522.471 269.588 522.315 269.066C520.801 263.48 521.636 263.846 515.374 263.846C500.395 263.846 485.365 263.846 470.386 263.846C466.368 263.846 466.316 263.898 465.324 267.813C464.959 269.222 464.646 270.684 464.228 272.093C464.124 272.667 463.863 273.242 463.758 273.816C458.122 298.298 452.851 322.833 447.475 347.315C447.319 348.046 446.901 348.62 446.379 349.142C444.605 357.494 442.778 365.898 441.004 374.25C440.586 375.19 441.421 376.077 441.056 377.017C439.856 381.402 439.595 385.996 437.768 390.224C437.559 390.485 437.351 390.642 437.037 390.694C435.263 390.798 435.159 389.493 435.263 388.292C435.367 386.674 435.785 385.108 436.202 383.542C436.933 380.828 437.246 378.061 437.977 375.347C438.342 374.146 438.707 372.998 438.812 371.745C440.221 364.176 442.1 356.763 443.561 349.194C443.613 348.463 443.926 347.837 444.031 347.106C449.354 322.572 454.73 297.985 460.314 273.503C460.418 272.928 460.679 272.406 460.731 271.832C461.097 270.057 461.619 268.283 461.984 266.508C462.506 264.107 462.297 263.793 459.74 263.793C453.32 263.741 446.953 263.793 440.534 263.793C439.908 263.793 439.334 263.793 438.707 263.741C438.238 263.741 437.82 263.741 437.351 263.741C434.115 263.48 430.775 263.585 428.009 261.34C427.278 260.348 427.226 259.252 427.226 258.103C427.174 252.883 427.174 247.663 427.226 242.495C427.278 239.363 427.904 238.737 431.14 238.737C438.446 238.685 445.701 238.685 453.007 238.737C464.802 238.789 476.597 239.155 488.392 238.424C495.124 238.006 501.961 238.424 508.693 238.319C525.968 238.006 538.493 230.019 546.217 214.672C549.505 208.147 550.393 201.152 549.558 193.844C548.775 187.215 548.514 180.533 547.835 173.851C547.627 171.868 548.462 170.354 550.027 169.153C553.628 166.282 557.229 163.411 560.83 160.54C565.006 157.147 568.137 153.127 568.92 147.594C569.233 145.506 569.076 143.47 568.659 141.382C565.841 127.497 562.918 113.664 560.152 99.726C559.891 98.5253 559.526 97.3769 559.839 96.1241C562.344 94.7147 564.901 95.8631 567.354 96.1241C572.625 96.6983 577.27 98.9429 581.445 102.232C582.124 102.91 582.802 103.589 583.533 104.267C592.144 112.411 594.597 122.329 592.04 133.761C592.04 134.909 591.57 135.953 591.518 137.102C590.109 144.932 588.7 152.814 587.134 160.644C586.716 162.054 586.612 163.672 585.673 164.977Z" fill="black"/>
<path d="M46.7627 390.909C44.3099 391.326 43.5792 390.335 43.5792 387.829C43.6314 324.979 43.6314 262.129 43.6314 199.279C43.6314 198.079 43.6314 196.826 43.5792 195.625C43.8924 189.57 49.1634 184.924 55.9479 184.82C63.0978 184.715 70.2999 184.82 77.4498 184.82C76.6669 185.394 75.9363 186.02 75.1534 186.542C72.544 188.37 71.5002 190.719 71.5002 194.059C71.6046 229.138 71.5524 264.217 71.5524 299.349C71.5524 300.497 71.6568 301.593 71.709 302.742C72.0221 303.107 72.1265 303.525 72.0743 304.047C72.0221 304.36 71.9699 304.673 71.9177 304.986C71.8655 332.235 71.8655 359.484 71.9177 386.733C71.9699 387.046 72.0221 387.359 72.0743 387.672C72.1265 388.142 71.9699 388.612 71.709 388.977C71.3437 389.604 71.8134 390.491 71.1871 391.065C69.3083 391.587 67.2729 390.909 65.3941 391.431C65.2375 391.483 65.081 391.483 64.8722 391.483C63.3587 391.953 61.8453 391.796 60.3318 391.744C56.2089 391.64 52.0338 391.848 47.9109 391.64C47.5455 391.483 47.0759 391.326 46.7627 390.909Z" fill="#2F3133"/>
<path d="M340.902 184.869C358.124 184.869 375.346 184.869 392.517 184.816C393.352 185.756 392.882 186.8 392.673 187.792C388.342 206.219 384.062 224.698 379.783 243.125C378.373 249.232 376.912 255.288 375.555 261.395C375.346 262.335 375.19 263.274 374.668 264.11C373.572 264.423 373.363 265.206 373.155 266.302C370.075 280.814 366.787 295.326 363.656 309.837C363.291 311.56 362.456 312.865 360.733 313.544C355.254 315.788 349.826 318.137 344.398 320.382C343.459 320.8 342.467 321.322 341.424 320.747C341.371 319.703 341.267 318.659 341.267 317.668C341.267 274.55 341.267 231.38 341.267 188.262C341.163 187.061 341.319 185.913 340.902 184.869Z" fill="#2F3133"/>
<path d="M255.933 352.591C267.78 353.008 279.627 352.33 291.474 352.277C304.052 359.585 316.63 366.841 329.207 374.202C335 377.595 337.349 383.18 338.027 389.601C338.236 391.532 336.775 390.854 335.888 390.854C324.876 390.906 313.811 390.958 302.8 390.958C302.434 390.958 302.121 390.958 301.756 391.01C296.119 391.271 290.483 391.167 284.846 391.167C259.326 391.167 233.753 391.167 208.232 391.167C207.293 391.167 206.301 391.376 205.414 390.958C205.936 384.746 206.406 378.534 206.98 372.375C207.606 365.85 208.337 359.324 209.015 352.747C224.254 352.695 239.494 352.695 254.733 352.643C255.098 352.382 255.516 352.382 255.933 352.591Z" fill="black"/>
<path d="M341.37 320.696C348.051 317.981 354.679 315.215 361.359 312.5C362.507 312.03 362.664 310.986 362.872 309.942C366.004 295.639 361.7 318.347 364.884 304.044C365.145 303 372.214 264.267 374.093 264.162C378.582 264.789 382.548 267.033 386.827 268.338C387.819 268.651 388.758 269.017 389.698 269.487C390.429 269.904 390.898 270.478 391.055 271.314C391.264 281.18 391.577 291.046 390.898 300.859C389.854 302.53 389.594 304.409 389.646 306.34C389.907 315.162 389.072 323.984 388.967 332.806C388.915 337.713 388.759 342.672 388.498 347.579C388.289 352.121 384.792 354.261 381.348 356.401C377.538 356.14 373.884 354.992 370.179 354.156C361.516 352.173 352.8 350.241 344.136 348.258C343.04 347.997 341.892 347.945 341.109 347.005C333.699 345.282 326.34 343.455 318.877 341.837C316.789 341.367 316.215 340.793 317.05 338.653C319.399 332.754 322.947 328.16 329.106 325.864C333.333 324.35 337.3 322.471 341.37 320.696Z" fill="#0B0B0B"/>
<path d="M166.588 14.0669C166.901 16.1549 167.267 18.243 167.58 20.331C168.832 21.375 168.519 22.68 168.206 23.985C168.154 24.0372 168.154 24.1416 168.102 24.1938C165.858 26.1775 165.858 26.1775 168.467 27.6913C169.302 32.2328 169.772 36.7743 167.632 41.1591C167.162 41.5767 167.215 42.0988 167.162 42.6208C166.849 42.934 167.058 43.5082 166.588 43.717C166.432 44.0302 166.327 44.3956 166.171 44.7088C164.292 49.3025 160.378 51.2861 155.994 52.6955C154.845 53.0609 153.645 53.2697 152.497 53.6351C152.132 53.7395 151.714 53.7918 151.349 53.844C146.443 54.7836 146.234 53.3741 146.652 59.7427C146.704 60.4213 146.913 61.0999 146.391 61.7263C146.338 61.8307 146.234 61.9351 146.182 62.0395C145.399 62.9269 144.303 62.8747 143.259 62.8747C138.406 62.9269 133.552 62.9269 128.698 62.8747C127.654 62.8747 126.611 62.7703 125.776 62.0395C125.671 61.8307 125.567 61.6219 125.515 61.4131C125.462 56.2452 125.462 51.0251 125.41 45.8572C125.41 43.7692 124.888 42.2554 122.383 41.5768C119.774 40.8459 117.738 38.8623 117.164 35.9913C116.538 32.8592 118.104 30.6668 120.504 28.9441C121.131 28.4743 121.861 28.1611 121.913 27.2215C122.801 26.2819 124.001 26.4907 125.097 26.4907C133.239 26.5429 140.232 24.0373 145.712 17.7731C148.948 14.0669 152.81 11.1436 157.664 9.73421C161.839 8.48138 165.075 10.0474 166.588 14.0669Z" fill="#FD9993"/>
<path d="M341.266 347.059C348.677 348.677 356.088 350.243 363.499 351.861C369.448 353.218 375.398 354.628 381.399 355.985C381.713 356.611 381.608 357.186 381.347 357.76C380.773 358.752 379.834 359.378 378.894 360.057C372.736 364.441 366.578 368.879 360.419 373.211C355.879 376.448 353.739 381.041 352.852 386.366C352.539 388.089 353.165 389.028 355.044 389.028C355.931 389.028 356.766 389.028 357.653 389.028C379.207 389.028 400.762 389.028 422.316 389.028C423.673 389.028 425.082 388.819 426.439 389.498C426.856 389.811 426.961 390.229 426.909 390.751C426.648 391.429 426.335 391.899 425.552 391.325C424.612 390.907 423.673 391.116 422.733 391.116C396.639 391.116 370.492 391.116 344.397 391.116C343.458 391.116 342.466 391.325 341.579 390.907C341.475 390.594 341.318 390.281 341.318 389.916C341.214 375.665 341.214 361.362 341.266 347.059Z" fill="#2F3133"/>
<path d="M166.59 14.0675C162.624 9.26506 160.014 8.74305 154.378 11.6141C151.455 13.0757 148.794 14.955 146.758 17.4606C140.756 24.8731 132.824 27.3788 123.69 27.2222C123.064 27.2222 122.49 27.2222 121.864 27.17C121.394 23.3071 121.551 19.392 121.759 15.5292C122.125 8.69085 127.866 3.15755 134.702 2.53114C140.287 2.06133 145.923 1.90473 151.455 0.965111C151.821 0.965111 152.186 0.965111 152.604 0.965111C159.127 -1.74934 165.39 1.48713 165.755 7.85564C166.225 9.89147 166.904 11.9273 166.59 14.0675Z" fill="black"/>
<path d="M205.414 390.957C226.707 390.957 247.948 391.009 269.242 391.009C280.097 391.009 290.953 391.009 301.756 391.009C298.259 391.844 294.71 391.114 291.161 391.427C290.274 391.479 288.969 390.8 288.709 392.523C288.656 392.888 288.082 393.097 287.978 392.732C287.247 390.435 285.421 391.531 284.064 391.479C280.254 391.322 276.444 391.375 272.582 391.479C271.59 391.479 270.181 390.853 269.868 392.627C269.816 392.941 269.19 393.202 269.085 392.784C268.459 390.383 266.528 391.479 265.275 391.479C246.174 391.427 227.073 391.427 207.971 391.427C207.188 391.375 206.197 391.897 205.414 390.957Z" fill="#50749B"/>
<path d="M341.477 390.96C368.929 390.96 396.381 390.907 423.78 390.907C424.407 390.907 425.033 390.855 425.45 391.429C398.416 391.429 371.434 391.429 344.4 391.429C343.46 391.377 342.364 391.795 341.477 390.96Z" fill="#6088B2"/>
<path d="M46.7593 390.906C47.1246 390.906 47.4899 390.958 47.8553 390.958C48.6903 391.48 49.6297 391.376 50.517 391.428C52.9177 391.428 55.2664 391.428 57.6149 391.428C58.6588 391.48 59.7548 391.428 60.7464 391.011C62.1555 391.167 63.5647 391.272 64.9738 391.428C57.8237 393.673 50.6736 393.83 43.5235 391.48C44.6195 391.063 45.8199 391.794 46.7593 390.906Z" fill="#5B82AE"/>
<path d="M65.4982 391.377C67.3769 390.437 69.36 391.012 71.2909 391.012C69.4122 391.795 67.4291 391.22 65.4982 391.377Z" fill="#5B82AE"/>
<path d="M210.687 334.058C210.947 334.058 211.26 334.006 211.521 334.006C211.573 334.737 211.73 335.467 211.156 336.094C211 335.415 210.843 334.737 210.687 334.058Z" fill="#3F1700"/>
<path d="M233.126 86.1025C234.17 85.476 234.64 84.4842 235.005 83.388C237.04 78.0113 239.076 72.6868 241.111 67.3623C242.938 64.9089 244.764 64.2825 246.8 65.3265C248.783 66.3183 249.461 68.4586 248.574 71.1208C247.948 73.0522 247.27 74.9837 246.33 77.6981C252.906 73.522 258.908 69.7114 264.857 65.8485C265.379 64.8045 266.423 64.5957 267.415 64.2825C270.337 63.2907 273.208 63.3429 275.974 64.7001C278.427 65.8485 278.531 67.1013 276.235 68.5108C272.268 70.9642 268.25 73.3132 264.44 76.0277C265.588 75.9755 266.423 75.2969 267.31 74.7227C270.233 72.8434 273.26 71.173 276.182 69.2938C280.41 66.5793 282.132 66.8925 285.368 70.8598C285.472 71.2252 285.472 71.5906 285.316 71.956C280.305 75.1403 275.087 78.0113 270.389 81.6654C275.452 78.5333 280.984 76.0799 285.629 72.2692C285.994 72.1126 286.36 72.1648 286.725 72.3736C288.812 78.9509 287.247 83.2836 281.193 87.1465C276.548 90.1219 271.903 93.1496 267.415 96.386C266.527 96.8558 265.849 97.6389 264.753 97.5867C258.334 101.658 251.549 105.26 247.374 112.046C240.172 106.304 232.917 100.562 225.715 94.8722C228.168 91.9489 230.621 89.0257 233.126 86.1025Z" fill="#FD9993"/>
<path d="M125.776 62.0918C132.561 62.0918 139.398 62.0918 146.182 62.0918C147.644 79.2137 149.105 96.3356 150.566 113.457C151.297 121.862 151.923 130.266 152.706 138.618C152.915 140.602 152.236 140.915 150.462 140.915C145.973 140.811 141.433 140.759 136.893 140.863C135.327 140.915 134.857 140.445 134.649 138.879C133.396 127.813 132.039 116.798 130.734 105.784C129.117 91.2199 127.446 76.6558 125.776 62.0918Z" fill="black"/>
<path d="M191.951 171.137C191.743 172.39 191.482 173.591 191.273 174.844C191.534 175.418 191.273 175.888 191.012 176.357C190.647 177.036 190.125 177.454 189.394 177.662C189.081 177.662 188.768 177.715 188.455 177.662C177.234 177.662 166.065 177.662 154.845 177.662C153.905 177.662 152.914 178.028 152.079 177.349C153.801 170.041 155.68 162.733 157.245 155.425C157.767 153.128 158.498 151.98 161.107 152.293C163.247 152.554 165.439 152.658 167.527 153.128C171.806 154.068 176.034 155.373 180.313 156.312C187.933 157.983 191.325 162.681 191.951 171.137Z" fill="#FD9993"/>
<path d="M151.053 53.215C156.849 51.8759 163.059 48.517 166.452 43.8189C167.581 42.9434 167.933 38.4302 169.062 37.5547C169.062 42.7563 172.641 55.2661 172.716 60.4677C172.716 61.6523 172.641 62.2188 170.307 62.0643C165.715 61.7553 161.123 61.9098 156.531 61.8583C155.327 61.8583 147.409 62.5278 146.355 61.8583C144.774 59.0772 149.547 55.996 151.053 53.215Z" fill="#FDFDFD"/>
<path d="M146.393 61.7783C146.236 61.0997 146.027 60.4211 145.975 59.7424C145.349 54.0525 145.61 53.7393 151.403 53.2695C152.551 55.984 152.447 58.7506 151.455 61.5173C149.837 62.3525 148.115 62.0915 146.393 61.7783Z" fill="#FAFAFB"/>
<path d="M202.129 120.612C200.25 123.117 198.215 125.414 195.71 127.763C194.927 125.205 193.727 123.013 193.309 120.559C196.284 119.724 199.207 119.672 202.129 120.612Z" fill="#FDFDFE"/>
<path d="M210.845 229.602C183.759 229.341 156.62 229.028 129.534 228.819C121.131 228.767 115.443 224.017 110.432 218.222C106.57 213.733 104.274 208.461 103.021 202.667C101.925 197.499 100.725 192.331 99.3159 187.215C98.7418 185.127 99.2116 184.762 101.247 184.762C131.569 184.814 161.891 184.814 192.213 184.814C194.979 184.814 197.745 184.866 200.564 184.918C203.799 198.804 207.035 212.689 210.271 226.575C210.48 227.566 210.636 228.61 210.845 229.602Z" fill="#6DB5DE"/>
<path d="M255.937 352.587C255.52 352.587 255.154 352.639 254.737 352.639C254.006 349.037 255.206 345.592 255.624 342.146C257.92 324.137 260.321 306.18 262.722 288.171C265.279 269.169 267.836 250.168 270.341 231.115C270.602 229.288 270.811 227.513 271.019 225.686C271.124 224.851 271.124 223.703 272.376 223.964C273.42 224.172 273.107 225.216 273.003 225.947C272.272 231.533 271.541 237.118 270.759 242.756C268.567 259.095 266.375 275.434 264.235 291.772C261.573 311.661 258.964 331.55 256.355 351.386C256.355 351.856 256.094 352.221 255.937 352.587Z" fill="#FDFDFD"/>
<path d="M396.068 177.976C396.12 177.871 396.172 177.715 396.172 177.558C397.529 174.635 400.243 173.121 402.853 171.607C408.176 168.58 413.865 167.692 419.866 169.258C420.858 169.519 421.902 169.676 422.893 169.885C423.311 169.937 423.728 169.989 424.146 170.093C428.582 171.294 433.07 171.92 437.506 173.173C437.767 173.278 437.976 173.434 438.237 173.591C442.621 180.273 446.326 187.372 450.345 194.262C458.173 207.73 465.845 221.198 473.569 234.718C474.3 235.971 475.709 237.433 475.03 238.685C474.3 240.043 472.369 239.207 470.96 239.207C465.219 239.364 459.53 239.103 453.789 239.364C446.013 239.416 438.185 239.468 430.409 239.468C429.365 239.468 428.373 239.26 428.373 240.93C428.373 247.507 428.269 254.085 428.269 260.662C428.269 260.923 428.478 261.132 428.582 261.393C429.104 262.541 429 263.794 429 264.995C429 275.226 429.052 285.457 429 295.689C429 299.343 428.686 302.945 428.06 306.547C427.225 307.695 426.025 307.277 424.929 307.173C415.587 306.233 406.297 304.824 397.008 303.623C395.076 303.362 393.198 303.258 391.319 303.832C390.223 303.101 390.432 302.057 390.536 301.013C390.588 290.939 390.64 280.864 390.745 270.737C391.11 259.2 390.797 247.612 390.954 236.075C391.006 230.333 391.319 224.591 391.58 218.901C391.997 208.618 401.757 199.378 412.038 199.065C415.952 198.961 419.814 199.013 423.728 198.647C427.486 198.282 431.348 198.595 435.158 198.491C427.956 198.543 420.806 198.491 413.604 198.543C400.817 198.647 391.006 208.461 390.954 221.303C390.901 228.767 390.797 236.284 390.954 243.749C391.162 251.579 390.171 259.357 390.379 267.187C390.379 268.127 389.996 302.005 389.161 302.736C383.994 301.065 370.367 303.362 365.409 301.013C370.108 274.547 386.57 211.593 392.676 185.284C392.728 185.127 392.676 184.919 392.676 184.762C393.72 182.517 394.868 180.273 396.068 177.976Z" fill="#202B6D"/>
<path d="M196.493 271.418C192.787 271.418 189.03 271.314 185.325 271.523C183.237 271.627 182.819 270.792 182.924 268.965C183.028 266.616 182.924 264.319 182.924 261.97C186.368 261.5 189.761 261.866 193.205 261.709C194.092 261.657 194.353 262.127 194.562 262.91C195.188 265.728 196.18 268.495 196.493 271.418Z" fill="#FDFDFD"/>
<path d="M453.684 239.422C459.216 238.952 464.748 239.265 470.28 239.109C471.742 239.057 473.203 239.109 475.186 239.109C462.556 217.08 450.187 195.469 437.766 173.858C437.766 173.336 438.131 173.075 438.601 173.022C444.499 173.753 450.187 175.319 455.928 176.572C460.521 177.564 465.166 178.295 469.654 179.704C470.176 179.965 470.698 180.278 471.324 180.383C485.624 183.149 500.029 185.551 514.276 188.839C514.694 187.795 514.015 187.221 513.65 186.647C510.31 181.375 507.178 175.946 503.891 170.621C502.899 169.055 501.751 168.429 499.924 168.22C496.584 167.802 493.192 167.855 489.799 167.385C486.616 166.915 483.589 167.594 480.666 168.951C479.883 169.316 479.153 169.838 478.265 169.838C477.952 169.734 477.743 169.577 477.587 169.316C477.222 168.638 476.961 167.907 476.856 167.176C475.395 152.873 473.829 138.57 472.264 124.267C471.95 121.448 471.637 118.577 471.429 115.706C471.376 114.871 471.168 113.983 471.794 113.2C471.898 113.044 471.898 112.939 471.794 112.783C471.429 112.626 471.429 112.417 471.742 112.208C471.742 112.052 471.689 111.843 471.689 111.686C470.124 109.807 470.593 107.458 470.333 105.266C469.915 102.186 469.445 99.1582 469.393 96.0783C469.445 95.3475 469.289 94.6167 469.758 93.9381C469.811 93.7815 469.811 93.6249 469.706 93.5205C468.193 90.2318 468.61 86.7343 470.019 83.7589C471.637 80.3136 473.829 76.9728 477.274 74.8325C478.109 74.3627 478.735 73.6841 479.57 73.2143C480.196 72.9011 480.823 72.5879 481.449 72.2225C487.66 69.4036 494.235 70.1866 500.759 70.3432C506.03 69.9256 511.249 70.4999 516.521 70.1866C519.704 71.2307 522.888 70.4476 526.071 70.4476C527.898 70.9175 529.725 70.9175 531.499 70.5521C535.518 69.8212 539.484 70.3433 543.45 70.7609C545.277 70.9697 547.312 71.0741 548.408 73.0577C549.452 73.7363 550.496 74.4149 551.54 75.0413C552.792 74.8325 553.471 75.6677 554.097 76.4508C556.602 79.2696 558.429 82.4539 558.899 86.2645C559.16 88.5092 559.629 90.7016 560.047 92.894C560.099 93.5727 560.308 94.1991 560.36 94.8255C560.36 95.2431 560.203 95.6085 559.995 95.9217C562.239 106.779 564.483 117.637 566.727 128.443C567.51 132.149 568.136 135.96 569.076 139.614C571.32 148.384 568.293 155.274 561.508 160.755C557.75 163.783 553.941 166.811 550.078 169.786C548.826 170.726 548.356 171.822 548.513 173.336C549.191 180.487 549.922 187.639 550.496 194.79C551.383 206.118 547.991 216.036 540.58 224.545C532.073 234.254 521.218 238.743 508.379 238.848C491.208 238.952 473.986 239.161 456.815 239.37C455.772 239.579 454.728 239.474 453.684 239.422Z" fill="#202B6D"/>
<path d="M560.045 96.026C560.045 95.6606 560.045 95.3474 559.993 94.982C560.776 94.0946 561.872 94.199 562.916 94.199C568.291 94.199 573.667 94.1468 579.042 94.199C582.069 94.199 582.539 94.6166 582.383 97.6964C582.278 99.4713 583.374 101.507 581.391 102.916C575.18 97.853 567.769 96.3392 560.045 96.026Z" fill="#F6F8FA"/>
<path d="M438.601 375.244C438.601 374.461 438.34 373.782 437.766 373.26C437.975 373.104 438.184 372.895 438.445 372.738C438.758 372.529 439.071 372.373 439.384 372.164C439.071 373.156 439.28 374.304 438.601 375.244Z" fill="#678BB2"/>
<path d="M60.8022 391.009C60.0194 391.74 59.1844 392.105 58.0885 391.844C55.4269 391.531 52.7133 391.531 50.0517 391.844C49.1124 392.053 48.3295 391.897 47.8599 390.957C52.1392 391.009 56.4707 391.009 60.8022 391.009Z" fill="#929BBA"/>
<path d="M389.421 298.696C389.787 275.712 386.811 252.578 386.811 229.594C386.811 208.946 399.828 194.854 414.158 194.628C421.375 194.478 428.592 194.93 435.809 194.176C436.541 194.101 437.326 194.251 437.43 195.533C437.587 197.341 436.541 197.04 435.809 197.04C428.592 197.266 421.375 202.367 414.158 201.99C402.077 201.387 391.827 211.584 391.879 229.594C391.931 251.824 391.565 273.979 391.565 296.209C391.565 297.641 391.931 299.299 390.624 300.128C390.206 299.525 389.839 299.148 389.421 298.696Z" fill="#202B6D"/>
<path d="M390.376 301.07C391.42 301.749 390.689 302.897 391.106 303.733C391.889 304.672 391.785 305.873 391.785 306.969C391.681 316.522 391.367 326.075 390.846 335.627C390.637 339.386 390.689 343.092 390.793 346.85C390.898 350.243 389.697 352.958 386.983 354.994C385.887 355.829 384.896 356.821 383.747 357.656C382.912 358.282 381.921 358.909 381.19 357.499C381.242 357.03 381.295 356.56 381.347 356.09C383.121 354.576 384.844 352.958 386.67 351.496C387.766 350.609 387.766 349.46 387.818 348.208C388.236 333.539 388.706 318.871 389.228 304.202C389.228 303.054 388.706 301.54 390.376 301.07Z" fill="#FDFCFC"/>
<path d="M150.881 25.8657C150.672 26.8575 150.203 27.5884 149.159 27.5362C148.219 27.484 147.54 26.8575 147.593 25.8657C147.645 24.9261 148.219 24.2475 149.263 24.2997C150.255 24.3519 150.777 24.9783 150.881 25.8657Z" fill="#1B100F"/>
<path d="M167.685 24.6654C168.416 25.605 168.468 26.5968 167.738 27.5364C166.485 27.7452 165.128 27.9018 165.128 26.0748C165.128 24.4044 166.381 24.3522 167.685 24.6654Z" fill="#0D0A0A"/>
<path d="M381.188 357.443C381.866 357.809 382.441 357.913 383.067 357.339C384.998 355.564 386.877 353.842 388.86 352.119C389.851 351.232 389.695 350.083 389.695 348.987C390.165 333.901 390.634 318.867 391.104 303.781C391.417 302.789 391.835 302.372 393.139 302.528C402.377 303.781 411.667 304.877 420.904 306.026C423.148 306.287 425.34 306.495 427.585 306.756C428.628 307.383 428.263 308.427 428.315 309.314C429.255 328.002 429.881 346.69 431.447 365.326C431.655 367.831 431.864 370.285 432.073 372.791C432.438 374.409 431.916 376.184 432.699 377.75C433.012 378.063 433.273 378.428 433.378 378.898C433.586 380.36 433.482 381.821 433.534 383.283C433.378 384.223 433.952 385.267 433.325 386.154C433.273 389.808 433.273 389.808 429.568 389.808C428.524 389.808 427.532 389.86 426.489 389.912C407.909 389.86 389.33 389.86 370.698 389.808C365.113 389.808 359.581 389.756 353.997 389.86C352.327 389.86 351.596 389.39 351.857 387.668C352.588 381.665 354.676 376.445 359.79 372.791C366.94 367.675 374.038 362.559 381.188 357.443Z" fill="#0B0B0B"/>
<path d="M50.0499 391.843C52.7116 391.164 55.4256 391.164 58.0873 391.843C55.4256 391.895 52.7116 391.843 50.0499 391.843Z" fill="#E3EAF1"/>
<path d="M190.858 175.893C199.521 175.945 208.237 175.945 216.9 175.945C239.655 175.945 262.41 175.945 285.164 175.945C287.356 175.945 289.444 176.154 292.105 177.302C290.957 177.459 290.488 177.563 289.966 177.563C257.034 177.563 224.102 177.563 191.223 177.563C190.806 177.563 190.336 177.511 189.918 177.459C189.866 176.78 190.545 176.415 190.858 175.893Z" fill="#E7EAED"/>
<path d="M535.932 50.7132C536.141 51.183 536.35 51.705 536.559 52.1748C539.951 61.1533 535.724 68.8791 526.173 71.0715C523.72 71.4369 521.267 71.4891 518.762 71.4369C517.927 71.4369 516.988 71.6457 516.57 70.5495C515.787 69.5577 515.996 68.4093 516.153 67.313C516.674 63.5024 517.144 59.7439 517.771 55.9332C518.188 53.4798 517.666 52.1748 515.265 51.0786C510.673 48.9905 507.124 45.8063 505.871 40.5862C505.349 38.4459 505.715 36.4101 506.132 34.3743C507.594 26.8051 504.201 21.2196 498.878 16.4693C497.26 15.0077 495.538 13.7027 493.711 12.4499C493.085 12.0323 492.354 11.6147 492.511 10.6228C494.599 8.69141 497.364 8.84801 499.87 8.69141C506.706 8.2738 513.491 8.48261 520.223 10.414C526.277 12.1889 530.139 15.8429 531.705 21.9504C533.166 27.5881 533.219 33.4346 534.001 39.1768C534.471 42.2566 534.784 45.3887 535.776 48.3641C536.037 49.1471 536.141 49.9301 535.932 50.7132Z" fill="black"/>
<path d="M492.721 10.8852C496.009 13.3908 499.505 15.6877 502.219 18.8719C506.029 23.309 507.804 28.2159 506.864 34.1668C505.507 42.7277 508.325 47.478 516.467 50.8189C518.607 51.7063 518.972 52.8025 518.659 54.8383C517.876 60.0584 517.198 65.2785 516.519 70.5508C516.102 71.125 515.528 71.386 514.745 71.386C510.204 71.2816 505.664 71.2294 501.123 71.125C501.384 68.7238 501.228 66.2703 501.332 63.8691C501.436 61.8855 500.81 60.8414 498.67 60.5282C496.113 60.1106 493.556 59.4842 491.155 58.4402C488.076 57.083 485.101 55.4647 483.692 52.0717C483.692 51.4453 483.275 51.0277 482.805 50.6623C482.126 50.2969 481.709 49.7226 481.5 49.044C480.248 44.8158 479.987 40.5353 480.717 36.1504C481.03 34.3234 480.874 32.3397 484.318 32.2875C481.396 30.4083 481.396 28.4247 481.865 26.18C482.179 24.5618 482.492 22.9436 482.492 21.2732C483.483 16.7839 485.988 13.443 490.111 11.355C490.999 10.8852 491.834 10.5198 492.721 10.8852Z" fill="#FD9993"/>
<path d="M478.157 169.472C482.071 166.809 486.403 166.131 491.1 166.705C494.44 167.123 497.833 167.331 501.225 167.54C502.217 167.592 502.999 167.645 503.626 168.689C507.749 175.527 511.872 182.365 515.995 189.204C516.047 189.308 515.995 189.517 515.995 189.83C508.323 188.316 500.703 186.75 493.083 185.289C485.829 183.879 478.575 182.574 471.372 181.217C470.746 181.112 469.911 181.269 469.702 180.329C471.059 176.101 473.564 172.656 477.009 169.837C477.322 169.472 477.74 169.367 478.157 169.472Z" fill="#FD9993"/>
<path d="M531.234 107.088C532.383 107.244 532.33 108.289 532.539 109.072C534.575 116.693 536.558 124.314 538.593 131.936C539.376 134.859 540.054 137.834 540.942 140.758C541.359 142.063 541.046 142.846 540.054 143.681C534.94 148.013 529.93 152.398 524.815 156.731C524.189 157.253 523.458 158.297 522.623 157.462C521.579 156.418 522.884 155.791 523.563 155.217C527.947 151.406 532.278 147.491 536.819 143.837C538.645 142.376 539.063 141.123 538.437 138.878C535.723 129.117 533.27 119.251 530.66 109.437C530.399 108.55 529.825 107.61 531.234 107.088Z" fill="#FCFCFD"/>
<path d="M313.864 65.2768C313.655 64.3894 313.864 63.6585 314.543 62.9277C315.065 63.5541 314.908 64.1284 314.752 64.7548C314.438 64.9636 314.177 65.1202 313.864 65.2768Z" fill="#8C8C8C"/>
<path d="M521.37 49.0987C521.37 43.983 521.422 39.2327 521.37 34.4824C521.37 33.1252 521.683 32.7598 522.988 33.334C523.51 33.595 524.136 33.6472 524.71 33.856C528.102 34.9522 530.555 37.7711 530.711 40.6421C530.868 43.4088 528.519 46.4886 525.179 47.7937C523.979 48.2113 522.831 48.5767 521.37 49.0987Z" fill="#FC9993"/>
<path d="M482.285 49.0429C477.64 46.0674 475.501 41.7347 475.918 36.3059C476.388 30.1984 479.467 25.2915 483.329 20.75C483.016 23.3078 482.703 25.8657 482.389 28.4235C482.285 29.3631 482.024 30.3028 483.59 30.2506C484.529 30.1984 484.947 30.9814 484.842 31.8688C484.738 32.7562 484.112 33.5392 483.329 33.2782C481.607 32.7562 481.815 33.8524 481.711 34.8442C480.98 39.6467 481.033 44.3448 482.285 49.0429Z" fill="#010101"/>
<path d="M500.654 33.906C499.663 33.8016 499.037 33.2796 499.037 32.2878C499.037 31.296 499.663 30.6696 500.706 30.7218C501.593 30.774 502.167 31.296 502.22 32.1834C502.272 33.1752 501.698 33.8016 500.654 33.906Z" fill="#0C0707"/>
</svg>
