<svg width="630" height="549" viewBox="0 0 630 549" fill="none" xmlns="http://www.w3.org/2000/svg">
<path d="M99.7115 212.388C99.7626 211.484 99.8137 210.58 99.8137 209.625C99.8137 167.971 99.8137 126.318 99.8137 84.6639C99.8137 80.1418 101.245 76.5241 105.333 74.1625C106.816 73.3084 108.4 72.9566 110.035 72.6049C111.058 72.3034 112.08 72.4542 113.102 72.4542C175.506 72.4542 237.909 72.4542 300.313 72.4542C300.977 72.3034 301.539 71.9517 302.255 72.002C309.104 71.8512 315.952 71.8512 322.801 72.002C323.414 72.002 324.078 72.0522 324.692 72.002C329.956 71.9517 335.22 71.9517 340.484 72.002C347.23 72.0522 351.83 76.0216 353.057 82.5033C353.568 85.1663 353.517 87.8294 353.517 90.4924C353.517 96.7731 353.568 103.004 353.466 109.284C353.415 109.736 353.363 110.189 353.312 110.641C353.261 110.942 353.21 111.244 353.108 111.495C352.801 116.67 352.904 121.896 353.108 127.071C352.904 128.478 352.955 129.885 352.955 131.342C352.955 157.671 352.955 184 352.955 210.278C352.955 211.635 353.517 213.444 352.137 214.248C350.706 215.051 349.479 213.594 348.304 212.891C345.339 211.233 342.58 209.273 339.36 208.118C338.644 207.866 337.98 207.414 337.622 206.761C336.958 205.254 337.162 203.646 337.162 202.038C337.162 165.961 337.162 129.885 337.162 93.8086C337.162 89.1357 337.162 89.1357 332.409 89.1357C261.726 89.1357 191.043 89.1357 120.359 89.1357C115.555 89.1357 115.555 89.1357 115.555 93.8086C115.555 202.892 115.555 311.975 115.555 421.059C115.555 425.581 115.555 425.581 120.206 425.581C190.991 425.581 261.726 425.581 332.511 425.581C337.213 425.581 337.213 425.581 337.213 420.808C337.213 360.864 337.213 300.921 337.213 240.978C337.213 239.32 336.855 237.612 337.878 236.104C339.002 235.501 339.871 236.255 340.74 236.707C344.164 238.566 347.537 240.576 350.91 242.486C352.086 243.139 352.699 243.993 352.699 245.5C352.597 306.599 352.648 367.648 352.648 428.746C352.648 429.751 352.75 430.756 352.546 431.761C351.421 438.343 345.851 442.061 339.769 441.911C331.182 441.71 322.596 441.861 314.01 441.861C313.192 441.861 312.323 441.961 311.506 442.061C311.301 442.212 311.046 442.363 310.79 442.514C310.381 442.664 309.972 442.715 309.563 442.715C307.621 442.765 305.679 442.765 303.737 442.715C303.328 442.715 302.919 442.664 302.51 442.514C302.255 442.413 302.05 442.212 301.795 442.061C295.611 442.011 289.376 441.911 283.191 441.911C276.138 441.861 269.034 441.961 261.981 441.861C259.937 441.81 259.733 442.313 260.193 444.272C263.617 459.045 266.837 473.817 270.159 488.639C272.765 500.447 275.423 512.255 278.029 524.062C279.614 531.298 281.249 538.483 282.834 545.769C282.987 546.472 283.6 547.678 282.22 548.03C280.585 548.482 281.096 546.974 280.943 546.321C279.869 542 278.949 537.629 277.927 533.308C275.883 524.213 273.89 515.068 271.794 505.974C269.852 497.432 268.063 488.84 266.121 480.298C263.923 470.551 262.084 460.803 259.528 451.156C258.915 448.794 258.148 446.383 258.046 443.921C257.944 442.162 256.973 441.961 255.542 441.961C246.495 442.011 237.5 441.961 228.454 441.961C217.875 441.961 207.346 441.961 196.767 441.961C195.387 441.961 194.671 442.061 194.262 443.82C191.707 455.628 188.947 467.385 186.289 479.193C182.201 497.432 178.163 515.621 174.075 533.86C173.155 538.031 172.286 542.251 171.468 546.472C171.315 547.326 171.264 548.18 170.037 548.18C169.373 548.18 168.861 548.331 169.117 547.125C170.906 538.684 172.797 530.243 174.637 521.801C176.17 514.717 177.805 507.632 179.339 500.497C181.485 490.649 183.887 480.851 185.829 470.953C187.363 463.215 189.356 455.578 191.349 447.94C192.882 442.061 192.985 442.061 186.698 442.061C161.093 442.061 135.436 442.112 109.831 442.011C105.231 442.011 100.325 437.64 100.12 432.867C99.7626 423.42 99.9159 413.974 99.8648 404.528C99.8648 400.508 99.8137 396.489 99.8137 392.469C99.3537 391.916 99.2004 391.313 99.1492 390.61C98.8937 387.796 99.0471 384.932 99.0471 382.118C99.0982 362.271 98.9448 342.374 99.0981 322.527C99.0981 321.874 99.047 321.271 99.0981 320.618C99.047 317.804 99.047 314.99 99.0981 312.227C99.0981 311.724 99.0981 311.272 99.0981 310.769C98.9448 296.248 98.9448 281.677 99.0981 267.156C99.0981 266.654 99.0981 266.202 99.0981 265.699C98.9959 254.293 98.9448 242.938 99.0981 231.532C99.0981 231.08 99.0981 230.577 99.0981 230.125C98.9959 225 99.047 219.875 99.0981 214.75C99.1493 214.298 99.2004 213.846 99.3026 213.393C99.4048 212.891 99.5582 212.64 99.7115 212.388Z" fill="black"/>
<path d="M397.827 328.959C397.981 328.255 397.674 327.502 398.287 326.899C398.798 325.442 398.798 323.884 399.361 322.427C400.536 317.151 401.66 311.825 402.938 306.549C404.216 301.223 405.698 295.947 407.027 290.621C408.304 285.496 409.48 280.321 410.707 275.196C411.729 274.693 412.853 274.894 413.977 274.894C428.032 274.844 442.087 275.548 456.193 275.497C460.282 275.497 464.473 275.497 468.561 276.301C469.788 277.306 469.532 278.663 469.379 280.02C468.613 282.029 466.926 283.386 465.495 284.893C459.362 291.476 453.28 298.108 447.096 304.64C443.723 308.207 440.452 311.825 437.181 315.392C435.085 317.704 435.085 320.317 437.436 322.527C441.781 326.647 446.329 330.516 450.776 334.536C455.733 338.958 460.691 343.43 465.648 347.851C467.488 349.509 469.43 350.916 471.168 352.675C472.037 353.579 472.957 354.484 473.059 355.84C473.877 362.422 473.877 369.005 474.183 375.587C474.592 383.526 475.206 391.414 475.257 399.353C475.257 400.157 475.461 401.011 475.001 401.815C473.979 402.619 472.752 402.468 471.628 402.518C468.408 402.569 465.188 402.418 462.019 402.82C451.031 402.267 439.992 402.719 429.003 402.569C426.959 402.518 424.915 402.619 422.921 402.518C416.993 402.468 411.115 401.966 405.187 401.765C399.872 401.564 394.556 401.061 389.19 401.061C387.503 401.061 385.817 400.961 384.13 400.71C382.341 400.458 381.319 399.654 381.677 397.745C383.006 388.852 385.51 380.159 387.606 371.416C390.825 357.85 393.943 344.284 397.418 330.818C397.623 330.215 397.265 329.511 397.827 328.959Z" fill="#8F3600"/>
<path d="M468.818 280.622C468.818 279.316 468.766 277.959 468.766 276.653C468.102 275.849 468.358 274.894 468.409 273.99C469.533 260.072 470.76 246.154 471.935 232.235C472.855 221.232 473.775 210.228 474.695 199.224C475.462 189.979 476.177 180.734 477.199 171.488C477.302 170.634 477.302 169.83 477.915 169.127C479.908 168.021 481.952 168.172 483.997 168.926C484.559 169.428 484.457 170.132 484.457 170.785C484.355 180.482 484.406 190.18 484.457 199.927C484.457 202.339 483.792 203.796 481.237 204.5C478.733 205.153 477.404 207.113 477.302 209.776C477.302 210.127 477.302 209.675 477.302 210.027C476.688 218.719 480.726 219.121 487.728 218.468C488.597 218.368 489.312 217.865 489.976 217.312C493.861 213.996 492.685 206.258 487.881 204.45C485.786 203.696 484.968 202.54 484.968 200.38C485.019 190.833 484.968 181.286 484.968 171.74C484.968 170.885 484.968 170.082 485.377 169.278C485.786 168.675 486.45 168.474 487.166 168.474C493.503 168.574 499.892 167.72 506.178 169.378C514.151 171.488 520.284 175.759 523.657 183.397C524.117 184.502 524.526 185.557 524.424 186.763C524.117 191.084 523.861 195.405 523.606 199.727C522.533 216.911 521.459 234.095 520.386 251.228C519.722 262.232 519.006 273.236 518.291 284.24C517.984 288.46 517.984 288.46 513.486 287.958C508.018 287.305 502.498 286.802 496.978 286.099C495.036 285.848 494.167 286.25 493.963 288.31C493.759 290.621 493.452 292.983 491.919 294.942C490.896 295.796 490.181 295.043 489.517 294.44C485.786 291.274 482.157 288.008 478.528 284.692C477.659 283.888 476.739 283.134 475.922 282.28C473.877 280.421 471.373 280.421 468.818 280.622Z" fill="#6DB5DE"/>
<path d="M381.933 397.242C381.626 399.102 382.188 399.956 384.386 400.056C393.228 400.358 402.069 400.86 410.911 401.312C414.795 401.513 418.731 401.714 422.615 401.915C424.097 403.021 424.25 404.779 424.864 406.337C430.128 419.853 435.341 433.369 440.656 446.835C442.905 452.764 445.052 458.693 447.658 464.521C448.016 465.577 448.374 466.682 448.782 467.737C452.82 478.188 456.96 488.539 460.946 498.99C461.151 499.442 461.304 499.895 461.508 500.347C462.428 503.11 463.553 505.773 464.575 508.436C464.779 509.24 465.239 509.994 465.035 510.848C465.035 511.049 465.035 511.2 465.035 511.401C464.115 512.205 462.991 512.154 461.917 512.154C450.009 512.205 438.101 512.154 426.193 512.154C425.017 512.154 423.79 512.305 422.87 511.3C418.935 501.352 415 491.453 411.064 481.505C405.494 467.586 399.872 453.719 394.25 439.801C390.825 431.359 387.452 422.868 384.079 414.426C382.904 411.512 382.086 408.447 381.881 405.282C381.421 404.327 382.035 403.222 381.473 402.267C381.473 400.659 381.473 399.001 381.473 397.393C381.575 397.041 381.728 396.991 381.933 397.242Z" fill="#FD9993"/>
<path d="M477.966 169.177C477.25 178.372 476.535 187.516 475.768 196.661C474.644 209.826 473.52 222.99 472.395 236.154C471.22 249.67 469.993 263.136 468.818 276.652C456.5 276.451 444.132 276.451 431.815 276.049C425.631 275.848 419.395 275.848 413.211 275.698C412.342 275.698 411.524 275.698 410.758 275.195C410.502 274.693 410.656 274.341 411.116 274.039C413.927 263.387 418.578 253.439 422.973 243.39C431.764 223.342 441.525 203.696 449.652 183.346C451.236 179.377 452.616 175.307 454.2 171.337C454.609 170.332 454.814 169.227 455.938 168.674C457.727 168.172 459.516 168.423 461.356 168.373C465.955 168.272 470.606 168.323 475.206 168.323C476.024 168.323 476.893 168.323 477.659 168.775C477.762 168.976 477.864 169.076 477.966 169.177Z" fill="black"/>
<path d="M455.529 169.328C447.096 193.748 435.495 216.81 425.017 240.325C420.367 250.726 415.92 261.177 412.087 271.88C411.831 272.633 411.831 273.538 411.065 274.091C411.525 270.222 411.985 266.302 412.547 261.78C409.48 265.097 406.669 268.061 402.376 268.714C400.69 268.965 399.003 268.965 397.317 268.714C395.528 268.564 393.943 267.961 392.359 267.157C384.182 262.936 375.953 258.766 367.776 254.545C365.987 253.641 364.3 252.535 362.46 251.731C361.234 251.178 360.672 250.475 361.08 249.169C365.169 241.783 369.258 234.447 373.398 227.111C375.34 224.146 375.749 223.996 378.866 225.704C382.342 227.664 385.919 229.422 389.292 231.482C391.081 232.588 392.103 232.286 393.228 230.578C400.128 220.127 406.874 209.575 413.774 199.124C416.278 195.305 418.68 191.487 421.235 187.718C422.718 185.457 423.944 183.096 425.12 180.684C428.646 173.046 435.086 169.328 443.417 168.575C446.79 168.273 450.214 168.474 453.638 168.524C454.252 168.575 455.069 168.524 455.529 169.328Z" fill="#6DB5DE"/>
<path d="M462.275 402.216C466.415 401.563 470.555 402.317 474.695 401.814C475.921 402.468 475.717 403.674 475.717 404.678C475.972 416.888 476.892 429.048 477.404 441.207C477.608 445.93 477.557 450.704 478.17 455.477C478.426 457.688 479.346 458.291 481.39 458.24C486.91 458.19 492.429 458.19 498 458.24C499.278 458.24 500.556 458.09 501.68 458.944C502.293 459.748 502.293 460.652 502.293 461.557C502.293 473.967 502.395 486.378 502.242 498.789C502.242 499.241 502.191 499.743 502.242 500.196C502.293 502.959 502.344 505.672 502.191 508.436C502.14 509.039 502.038 509.642 501.475 510.094C501.424 510.496 501.424 510.848 501.373 511.25C500.504 512.104 499.38 512.054 498.256 512.054C488.75 512.104 479.294 512.104 469.788 512.054C468.766 512.054 467.744 512.104 466.875 511.35C466.62 510.848 466.109 510.747 465.597 510.647C465.086 510.044 464.984 509.29 464.933 508.587C464.984 505.773 464.115 503.06 464.371 500.246C464.371 499.794 464.371 499.341 464.371 498.839C464.218 490.8 463.911 482.811 463.655 474.771C463.349 466.28 463.349 457.738 462.786 449.196C462.735 448.442 462.787 447.689 462.838 446.935C462.838 439.599 462.429 432.263 462.122 424.927C461.867 418.195 462.122 411.411 461.509 404.678C461.509 403.875 461.509 402.97 462.275 402.216Z" fill="#FD9993"/>
<path d="M422.871 511.25C436.926 511.3 451.031 511.3 465.086 511.35C462.429 522.806 459.771 534.313 457.113 545.769C456.96 546.422 457.062 547.075 457.011 547.778C456.5 548.633 455.631 548.231 454.967 548.231C432.224 548.281 409.48 548.281 386.737 548.231C386.022 548.231 385.204 548.582 384.591 547.829L384.693 547.728L384.591 547.628C385.102 546.824 384.591 545.869 384.999 545.015C386.022 538.985 389.395 534.514 394.403 531.097C401.303 526.374 408.152 521.6 415 516.827C417.555 514.968 420.213 513.109 422.871 511.25Z" fill="black"/>
<path d="M483.997 169.278C482.004 169.227 480.011 169.227 477.966 169.177L478.017 169.227C477.302 168.474 477.2 167.569 477.302 166.665C478.171 157.319 475.257 148.878 471.322 140.587C469.073 135.814 466.978 130.94 465.138 126.016C464.116 123.303 462.378 122.097 459.618 122.197C455.274 122.348 450.981 121.494 446.637 121.595C445.052 121.645 443.315 121.544 442.752 119.534C443.059 114.661 445.819 111.143 451.134 110.189C459.772 108.581 468.409 107.877 477.149 110.088C485.684 112.249 490.59 117.123 491.459 125.815C491.51 126.418 491.357 126.971 490.948 127.423C491.203 132.096 490.948 136.769 489.977 141.391C489.823 142.095 489.261 142.949 490.846 143.15C501.987 144.657 505.463 148.476 505.82 159.48C505.82 159.63 505.872 159.781 505.923 159.932C518.393 157.42 524.884 159.178 528.513 166.263C531.477 172.041 530.966 182.09 524.526 186.813C523.3 185.356 523.249 183.447 522.329 181.839C517.575 174.001 510.318 170.031 501.323 169.328C496.212 168.926 490.999 169.278 485.837 169.328C485.07 169.68 484.508 169.73 483.997 169.278Z" fill="black"/>
<path d="M466.978 511.451C478.477 511.401 489.925 511.401 501.425 511.35C506.382 523.058 511.391 534.765 516.348 546.472C516.502 546.824 516.757 547.176 517.013 547.527C516.808 548.532 515.991 548.231 515.377 548.231C496.825 548.231 478.273 548.231 459.72 548.231C459.311 548.231 458.851 548.281 458.698 547.778C460.487 539.94 462.276 532.102 464.116 524.263C465.036 519.993 466.006 515.722 466.978 511.451Z" fill="black"/>
<path d="M373.704 227.412C369.922 234.245 366.191 241.079 362.409 247.912C362.102 248.465 361.847 249.168 360.978 249.219C358.371 247.862 355.816 246.556 352.801 244.998C352.801 246.154 352.801 247.108 352.801 248.063C352.801 308.257 352.801 368.401 352.801 428.596C352.801 429.651 353.158 430.756 352.443 431.761C352.443 370.311 352.443 308.91 352.494 247.46C352.494 245.199 351.983 243.842 349.836 242.787C345.85 240.777 342.017 238.416 338.133 236.205C335.628 236.255 333.891 234.597 332 233.441C322.749 227.713 314.316 220.93 306.599 213.293C302.868 209.575 303.277 201.887 307.161 198.571C308.132 198.32 308.797 198.822 309.461 199.375C311.965 201.535 314.674 203.495 317.178 206.158C315.696 202.842 316.77 200.782 320.245 199.475C321.114 199.274 321.932 199.425 322.698 199.777C327.196 201.686 331.693 203.595 336.242 205.455C336.957 205.756 337.57 206.208 337.928 206.861C340.484 207.766 342.988 208.67 345.288 210.178C347.434 211.635 349.734 212.891 351.983 214.248C352.647 213.243 352.392 212.288 352.392 211.434C352.392 184.301 352.392 157.219 352.392 130.086C352.392 129.081 352.494 128.076 352.545 127.071C352.698 127.172 352.801 127.222 352.954 127.323C353.772 128.629 353.516 130.086 353.516 131.493C353.516 157.52 353.618 183.497 353.465 209.524C353.465 213.092 354.538 215.252 357.707 216.911C362.409 219.423 366.906 222.337 371.404 225.151C372.375 225.754 373.397 226.206 373.704 227.412Z" fill="#FD9993"/>
<path d="M99.763 212.841C99.763 213.192 99.763 213.594 99.763 213.946C98.0764 215.152 96.1343 214.599 94.3455 214.649C92.6589 214.7 91.8411 215.303 91.8922 217.011C91.9945 220.176 91.79 223.342 92.0456 226.507C92.1989 228.417 93.0678 229.321 95.1121 229.271C96.6965 229.221 98.332 228.869 99.763 229.974C99.763 230.326 99.763 230.728 99.7119 231.08C98.3831 232.085 96.7476 231.783 95.2654 231.733C93.2211 231.683 92.3011 232.487 92.1478 234.446C92.0456 235.501 91.8922 236.607 91.8922 237.662C91.8922 245.651 91.8922 253.69 91.8922 261.679C91.8922 264.644 92.0966 264.744 95.061 264.845C96.6453 264.895 98.332 264.493 99.7119 265.599C99.7119 265.95 99.7119 266.352 99.6608 266.704C98.0253 267.809 96.1854 267.307 94.4477 267.357C92.6078 267.407 91.8411 268.111 91.8411 269.92C91.8411 280.622 91.7389 291.274 91.8922 301.976C91.9434 305.745 93.8855 308.458 97.7187 309.614C98.4853 309.865 99.1497 310.116 99.6608 310.719C99.6608 311.071 99.6608 311.473 99.7119 311.825C98.332 312.98 96.6453 312.628 95.061 312.628C66.2867 312.628 37.5636 312.628 8.7893 312.628C8.12488 312.628 7.40936 312.628 6.74495 312.628C2.70735 312.628 1.53186 314.186 2.60514 318.105C2.86069 318.959 3.37176 319.361 4.1895 319.462C5.3139 319.613 6.38718 319.562 7.51158 319.562C36.6947 319.562 65.8778 319.562 95.061 319.562C96.6453 319.562 98.332 319.211 99.7119 320.366C99.7119 320.869 99.7119 321.371 99.7119 321.874C98.4853 322.979 97.0031 322.728 95.5721 322.728C79.7283 322.728 63.8846 322.728 48.0408 322.728C47.172 322.728 46.3543 322.778 45.4854 322.778C43.9521 322.778 43.3389 323.532 43.3389 324.939C43.3389 325.592 43.3389 326.295 43.3389 326.948C43.3389 346.544 43.3389 366.14 43.3389 385.736C43.3389 389.957 43.3388 389.957 47.5298 389.957C63.4757 389.957 79.3706 389.957 95.3165 389.957C96.7987 389.957 98.4342 389.655 99.7119 390.811C99.7119 391.313 99.7119 391.816 99.7119 392.268C80.8017 392.268 61.9425 392.318 43.0322 392.318C42.5211 393.273 42.7767 394.278 42.7767 395.283C42.7767 445.026 42.7767 494.819 42.7256 544.563C42.7256 545.517 43.0322 546.572 42.47 547.527L42.5211 547.477C39.659 548.03 36.7458 547.778 33.8837 547.577C33.2193 546.572 33.526 545.467 33.526 544.412C33.526 471.355 33.526 398.297 33.526 325.24C33.526 321.371 33.9349 321.823 29.9484 321.773C20.851 321.773 11.7536 321.673 2.60514 321.823C0.50968 321.874 0.0496759 321.17 0.151894 319.311C0.30522 316.548 0.20299 313.784 0.20299 311.021C1.02073 310.267 1.99184 310.669 2.86069 310.669C22.2309 310.619 41.5501 310.669 60.9203 310.619C61.738 310.619 62.9646 311.372 63.5268 309.965C60.8692 307.956 60.0003 305.293 60.0514 301.976C60.1536 280.923 60.1026 259.871 60.1026 238.767C60.1026 237.31 60.1536 236.104 58.2626 235.602C56.0138 234.999 57.5471 232.788 56.7805 231.532C51.2096 230.979 45.6898 231.431 40.119 231.23C39.2501 231.18 38.2791 231.632 37.5124 230.879C37.9213 229.522 39.0457 230.075 39.8634 230.075C44.8721 230.025 49.8808 230.025 54.8894 230.075C56.2183 230.075 57.2916 230.025 57.036 228.266C56.9338 227.462 57.2915 226.457 58.0071 226.407C60.8181 226.105 60.0004 224.146 60.1026 222.538C60.307 219.322 59.5915 216.056 60.5114 212.891C66.44 212.69 72.4198 212.489 78.3484 212.991L78.2973 212.941C78.9617 216.056 78.3995 219.172 78.6039 222.287C78.7062 223.493 78.2973 224.749 78.8595 225.955C80.495 226.156 81.6194 226.859 81.4149 228.718C81.3127 229.874 81.926 230.125 82.9482 230.075C84.9414 229.974 87.6502 230.929 87.1903 227.261C87.1391 226.759 87.6502 226.457 88.008 226.457C90.6656 226.357 90.1034 224.447 90.1034 222.89C90.1034 219.624 90.1034 216.358 90.1034 213.092C93.3233 212.338 96.5432 212.64 99.763 212.841Z" fill="#5983AF"/>
<path d="M491.202 295.294C492.633 292.832 493.247 290.169 493.195 287.405C493.144 285.345 494.064 285.044 495.802 285.295C501.833 285.998 507.915 286.651 513.945 287.355C517.574 287.757 517.574 287.807 518.187 284.34C517.881 291.374 517.625 298.409 517.318 305.443C517.267 306.448 517.318 307.453 517.318 308.408C517.727 308.86 517.932 309.413 517.932 310.066C518.085 312.829 517.216 315.593 517.472 318.356C517.523 322.477 516.961 326.546 516.807 330.616C516.654 335.189 514.967 339.158 510.419 341.268C507.608 342.575 506.637 342.022 506.279 339.007C506.279 334.737 506.126 330.516 506.637 326.245C506.024 330.013 505.615 333.782 505.717 337.651C505.768 339.058 506.024 340.515 505.001 341.721C503.519 342.424 501.986 342.424 500.504 341.771C499.073 339.912 499.635 337.751 499.891 335.741C500.3 332.425 500.044 329.109 499.942 325.793C499.431 330.817 500.095 335.942 498.613 340.867C496.415 341.871 495.138 340.414 493.962 339.007C492.991 337.852 492.48 336.395 492.173 334.887C491.56 331.672 490.742 328.506 490.742 325.24C491.304 323.733 491.56 322.175 491.509 320.567C491.304 316.648 491.816 312.729 491.764 308.81C491.662 311.724 490.947 314.588 490.947 317.502C490.947 318.758 491.151 320.015 490.487 321.17C489.158 321.874 489.056 320.618 488.8 320.015C486.092 314.287 485.069 308.358 487.727 302.328C488.851 300.017 489.107 297.203 491.202 295.294Z" fill="#FD9993"/>
<path d="M517.37 309.714C517.37 309.262 517.37 308.81 517.37 308.408C553.759 308.408 590.098 308.408 626.487 308.458C630.218 308.458 629.758 308.106 629.758 311.674C629.758 315.09 629.758 318.557 629.758 321.974C627.458 322.477 625.158 322.075 622.807 322.225C621.938 322.276 620.967 321.974 620.15 322.477C620.099 323.532 619.945 324.637 619.945 325.692C619.945 386.037 619.945 446.332 619.945 506.677C619.945 510.245 619.945 510.245 616.368 510.245C614.681 510.245 612.943 510.345 611.257 510.194C609.315 510.044 608.65 510.647 608.65 512.656C608.752 523.258 608.701 533.91 608.701 544.512C608.701 545.517 608.803 546.522 608.292 547.426C602.517 547.979 596.742 547.728 590.967 547.577C590.353 546.773 590.609 545.819 590.609 544.914C590.609 534.312 590.507 523.66 590.66 513.058C590.66 510.797 590.098 510.144 587.747 510.144C559.024 510.245 530.249 510.194 501.526 510.194C501.526 509.742 501.526 509.34 501.526 508.888C502.906 507.632 504.593 507.984 506.177 507.984C538.989 507.984 571.75 507.984 604.562 507.984C608.037 507.984 611.563 507.933 615.039 507.984C616.981 507.984 617.901 507.23 617.747 505.32C617.696 504.567 617.747 503.813 617.747 503.059C617.747 444.624 617.747 386.188 617.747 327.752C617.747 322.728 617.748 322.728 612.534 322.728C583.3 322.728 554.117 322.728 524.883 322.728C523.861 322.728 522.839 322.627 521.816 322.677C520.641 322.376 519.312 322.276 520.283 320.517C521.714 319.864 523.299 320.065 524.832 320.065C557.337 320.065 589.842 320.065 622.347 320.065C623.216 320.065 624.034 320.065 624.903 320.065C627.714 320.014 627.969 319.763 627.969 317C627.969 309.865 628.634 310.669 621.581 310.669C588.411 310.669 555.191 310.669 522.021 310.619C520.386 310.669 518.699 311.071 517.37 309.714Z" fill="#5D86B1"/>
<path d="M490.845 127.473C490.845 126.971 490.794 126.468 490.794 125.966C492.122 124.861 493.707 125.162 495.189 125.162C513.23 125.162 531.272 125.162 549.364 125.162C549.773 125.162 550.233 125.162 550.642 125.162C554.833 125.162 554.833 125.162 554.833 120.941C554.833 82.7546 554.833 44.6182 554.833 6.43145C554.833 5.67776 554.833 4.92408 554.782 4.17039C554.73 2.9645 554.117 2.36154 552.891 2.3113C552.022 2.26105 551.204 2.26106 550.335 2.26106C469.379 2.26106 388.372 2.26106 307.416 2.26106C307.161 2.26106 306.905 2.26106 306.65 2.26106C303.225 2.3113 303.072 2.41179 303.072 5.82849C303.072 26.6805 303.072 47.5324 303.072 68.3341C303.072 69.7912 303.43 71.3991 302.305 72.6552C301.794 72.6552 301.283 72.6552 300.772 72.6552C300.568 72.5548 300.517 72.5045 300.568 72.404C300.619 72.3035 300.67 72.2533 300.721 72.2533C300.772 71.2484 300.925 70.2435 300.925 69.2888C300.925 47.1304 300.977 24.9219 300.874 2.76351C300.874 0.602948 301.334 0 303.634 0C387.146 0.0502457 470.657 0.0502411 554.168 0.0502411C555.088 0.0502411 556.059 -0.200986 556.877 0.452208C557.184 1.25614 557.03 2.11032 557.03 2.91425C557.03 43.4625 557.03 84.0108 557.03 124.559C557.03 125.363 557.235 126.217 556.775 127.021C555.906 127.473 554.935 127.222 554.015 127.222C534.031 127.222 514.099 127.222 494.116 127.222C493.196 127.222 492.225 126.971 491.356 127.473H491.151H490.845Z" fill="#6289B3"/>
<path d="M300.619 72.2534C300.67 72.4041 300.67 72.5548 300.67 72.6553C299.035 72.6553 297.451 72.7056 295.815 72.7056C234.74 72.7056 173.665 72.7056 112.591 72.7056C111.722 72.7056 110.904 72.6553 110.035 72.6553C110.955 71.9016 111.977 72.2534 112.999 72.2534C175.556 72.2031 238.113 72.2534 300.619 72.2534Z" fill="#FCFCFC"/>
<path d="M42.5721 547.476C42.5721 546.371 42.6233 545.316 42.6233 544.21C42.6233 494.518 42.6232 444.774 42.6744 395.081C42.6744 394.177 42.2142 393.072 43.1346 392.268C43.1346 442.965 43.1346 493.663 43.1346 544.361C43.0835 545.416 43.5437 546.622 42.5721 547.476Z" fill="#FCFCFC"/>
<path d="M556.724 126.971C556.724 89.7387 556.724 52.4564 556.775 15.2243C556.775 10.3003 556.775 5.32593 556.775 0.401855C557.542 1.20579 557.184 2.16045 557.184 3.01463C557.184 43.4624 557.184 83.9102 557.184 124.358C557.184 125.262 557.542 126.267 556.724 126.971Z" fill="#FCFCFC"/>
<path d="M381.933 397.242C381.78 397.292 381.575 397.292 381.422 397.343C381.677 395.283 381.729 393.172 382.189 391.213C386.226 374.581 390.366 358 394.455 341.369C395.477 337.199 396.141 332.928 397.777 328.958C396.755 335.641 394.864 342.123 393.33 348.705C389.65 364.884 385.766 381.063 381.933 397.242Z" fill="#FCFCFC"/>
<path d="M310.943 442.011C311.097 441.91 311.25 441.91 311.403 442.011C311.403 476.228 311.403 510.446 311.403 544.663C311.403 545.617 311.761 546.673 310.943 547.527C310.841 547.426 310.688 547.276 310.586 547.175C310.023 546.17 310.177 545.065 310.177 543.959C310.177 511.149 310.177 478.339 310.177 445.578C310.177 444.372 309.921 443.016 310.943 442.011Z" fill="#FCFCFC"/>
<path d="M301.692 442.011C301.846 441.91 301.999 441.91 302.152 442.011C303.021 442.865 302.919 444.021 302.919 445.076C302.919 478.188 302.919 511.3 302.919 544.462C302.919 545.366 303.021 546.321 302.561 547.175C302.459 547.276 302.305 547.426 302.203 547.527C301.334 546.673 301.743 545.617 301.743 544.663C301.692 510.446 301.692 476.228 301.692 442.011Z" fill="#FCFCFC"/>
<path d="M384.54 547.829C385.357 547.929 386.226 548.08 387.044 548.08C409.531 548.08 431.968 548.08 454.456 548.08C455.325 548.08 456.142 548.231 456.96 547.779C456.5 548.834 455.529 548.482 454.762 548.482C432.121 548.482 409.429 548.482 386.788 548.482C386.022 548.482 385.051 548.834 384.54 547.829Z" fill="#FCFCFC"/>
<path d="M491.305 127.473C492.123 126.77 493.094 127.121 494.014 127.121C513.793 127.121 533.623 127.121 553.402 127.121C554.526 127.121 555.599 127.021 556.724 127.021C555.957 127.825 554.986 127.523 554.066 127.523C533.112 127.523 512.208 127.473 491.305 127.473Z" fill="#FCFCFC"/>
<path d="M63.5265 309.916C64.0375 310.267 64.0376 310.619 63.4243 310.669C62.6576 310.77 61.891 310.719 61.1244 310.719C41.9076 310.719 22.6908 310.719 3.5251 310.719C2.45183 310.719 1.32743 310.87 0.25415 310.971C0.969669 309.916 2.09406 310.368 3.06512 310.368C22.2308 310.317 41.4476 310.368 60.6133 310.317C61.5844 310.317 62.6065 310.669 63.5265 309.916Z" fill="#FCFCFC"/>
<path d="M458.647 547.778C459.516 548.28 460.487 548.08 461.407 548.08C479.09 548.08 496.774 548.08 514.457 548.08C515.275 548.08 516.348 548.632 516.962 547.527C517.268 549.135 515.991 548.481 515.428 548.481C510.522 548.532 505.565 548.532 500.658 548.532C487.574 548.532 474.491 548.532 461.407 548.532C460.436 548.481 459.26 548.984 458.647 547.778Z" fill="#FCFCFC"/>
<path d="M230.038 54.0645C230.14 56.0743 228.658 56.3255 227.891 57.0792C225.694 59.1392 223.394 61.0988 221.043 63.0584C220.736 63.3096 220.225 63.8623 219.714 63.4101C219.356 63.1086 219.459 62.5057 219.765 62.3047C223.241 59.7422 225.949 56.3255 230.038 54.0645Z" fill="#668CB5"/>
<path d="M577.882 240.978C578.189 241.229 578.445 241.38 578.649 241.631C581.102 244.395 583.555 247.158 585.957 249.972C586.315 250.374 586.979 250.826 586.162 251.379C585.549 251.781 585.191 251.278 584.935 250.927C582.789 248.163 580.438 245.601 577.985 243.088C577.576 242.686 577.167 242.184 577.32 241.531C577.371 241.33 577.627 241.179 577.882 240.978Z" fill="#658BB5"/>
<path d="M76.8149 172.594C79.9324 169.378 83.0498 166.665 86.3717 164.203C86.7806 163.901 87.0361 163.449 87.5983 164.002C87.9049 164.303 87.9049 164.605 87.5983 164.856C84.3275 167.419 81.5678 170.584 77.9392 172.745C77.6837 172.795 77.3771 172.644 76.8149 172.594Z" fill="#668CB5"/>
<path d="M78.4507 68.4848C76.8153 68.8868 76.5597 67.9824 76.0487 67.5301C73.4421 65.2188 71.2956 62.4553 69.0979 59.7923C68.7401 59.3401 68.5867 58.8879 68.9956 58.5361C69.0978 58.4356 69.6601 58.5864 69.8645 58.7874C72.6755 61.9026 75.4353 65.0681 78.4507 68.4848Z" fill="#648BB4"/>
<path d="M37.5122 230.828C43.0321 231.431 48.603 230.929 54.174 231.13C55.0429 231.18 56.014 230.778 56.8318 231.482C51.2608 231.482 45.6387 231.482 40.0677 231.482C39.1988 231.482 38.1255 231.884 37.5122 230.828Z" fill="#FCFCFC"/>
<path d="M78.3475 212.941C72.4189 212.891 66.4393 212.891 60.5107 212.84C61.9929 211.936 63.6283 212.489 65.1616 212.439C68.7902 212.338 72.3678 212.388 75.9965 212.439C76.8142 212.388 77.7342 212.137 78.3475 212.941Z" fill="#FCFCFC"/>
<path d="M590.966 547.578C596.742 547.528 602.517 547.477 608.293 547.427C607.884 547.98 607.271 547.98 606.708 547.98C601.955 547.98 597.151 547.98 592.397 547.98C591.886 547.98 591.375 547.98 590.966 547.578Z" fill="#FCFCFC"/>
<path d="M78.859 225.905C77.8375 224.247 78.5015 222.388 78.3993 220.629C78.2461 218.066 78.2972 215.454 78.2972 212.891C79.3698 214.047 78.7569 215.403 78.8079 216.71C78.9612 219.775 78.859 222.84 78.859 225.905Z" fill="#FCFCFC"/>
<path d="M620.15 322.427C623.319 321.472 626.59 322.427 629.758 321.924C626.641 323.029 623.37 322.125 620.15 322.427Z" fill="#FCFCFC"/>
<path d="M99.7632 212.841C96.5432 212.891 93.3743 212.941 90.1543 213.042C91.7899 211.735 93.681 212.64 95.4699 212.439C96.901 212.288 98.3321 212.389 99.7632 212.389C99.8143 212.539 99.8143 212.69 99.7632 212.841Z" fill="#FCFCFC"/>
<path d="M33.9346 547.577C36.7967 547.527 39.7099 547.477 42.572 547.477C39.7099 548.431 36.8478 548.18 33.9346 547.577Z" fill="#FCFCFC"/>
<path d="M310.943 547.527C308.03 548.23 305.116 548.281 302.203 547.527L302.254 547.477C305.116 546.422 308.03 546.371 310.943 547.527Z" fill="#FCFCFC"/>
<path d="M399.361 322.427C399.361 323.984 399.105 325.491 398.288 326.898C398.237 325.29 398.39 323.733 399.361 322.427Z" fill="#FCFCFC"/>
<path d="M465.597 508.788C465.648 509.441 465.648 510.095 465.699 510.748C465.495 510.798 465.29 510.848 465.086 510.848C464.575 510.295 464.269 509.642 464.218 508.838C464.677 508.386 465.137 508.386 465.597 508.788Z" fill="#8D9AB7"/>
<path d="M397.266 268.764C398.952 268.764 400.639 268.764 402.325 268.764C400.639 269.417 398.952 269.417 397.266 268.764Z" fill="#FCFCFC"/>
<path d="M381.422 402.267C382.086 403.221 381.831 404.276 381.831 405.281C381.065 404.377 381.575 403.272 381.422 402.267Z" fill="#FCFCFC"/>
<path d="M384.897 544.964C384.744 545.818 384.642 546.723 384.489 547.577C384.54 546.723 384.182 545.768 384.897 544.964Z" fill="#FCFCFC"/>
<path d="M307.417 198.671C303.481 203.495 303.635 209.725 308.132 213.896C317.23 222.438 326.94 230.276 338.133 236.155C338.082 237.26 338.031 238.315 338.031 239.421C338.031 300.72 338.031 362.02 338.082 423.27C338.082 425.631 337.724 426.435 335.015 426.435C262.544 426.335 190.072 426.335 117.6 426.435C115.044 426.435 114.431 425.882 114.431 423.32C114.482 312.629 114.482 201.937 114.482 91.2461C114.482 87.5782 114.022 88.0304 117.702 88.0304C190.072 88.0304 262.492 88.0304 334.862 87.9299C337.622 87.9299 338.082 88.7339 338.082 91.1959C337.98 129.734 338.031 168.223 338.031 206.761C332.92 204.6 327.809 202.44 322.698 200.279C321.83 199.877 320.91 199.777 319.99 199.877C317.588 199.174 316.156 197.214 314.265 195.807C310.33 192.742 306.548 189.476 302.715 186.311C300.006 184.05 299.955 183.547 301.079 180.281C302.051 177.468 301.744 177.016 298.831 176.915C297.655 176.865 296.326 176.614 295.304 177.016C292.749 178.02 291.113 176.764 289.376 175.307C286.053 172.544 282.783 169.73 279.409 167.067C278.898 166.665 278.387 166.213 277.723 165.911C276.445 165.409 275.372 165.66 274.503 166.665C273.583 167.72 273.685 168.825 274.554 169.881C275.423 170.936 276.394 171.84 277.467 172.694C281.045 175.558 284.52 178.473 288.047 181.387C290.244 183.246 290.347 184.1 288.251 186.06C281.505 192.391 271.232 195.506 261.266 191.637C251.146 187.718 245.064 178.824 244.758 168.675C244.4 157.018 252.935 143.552 269.954 143.049C279.716 142.748 288.813 147.722 293.515 157.822C293.618 158.073 293.72 158.274 293.822 158.525C295.662 162.997 296.173 163.248 300.977 162.947C302.664 162.846 303.022 162.193 302.613 160.686C301.386 156.164 299.495 152.043 296.633 148.275C285.491 133.603 262.544 130.488 247.824 144.004C237.756 153.249 234.434 164.957 238.676 177.92C242.918 190.883 252.424 198.571 266.121 200.38C277.161 201.837 286.769 198.269 294.538 190.28C295.611 189.175 296.735 188.472 298.064 189.627C300.875 192.039 303.942 194.2 306.599 196.812C307.008 197.415 307.468 197.918 307.417 198.671Z" fill="white"/>
<path d="M302.254 72.6052C302.203 71.8515 302.152 71.0978 302.152 70.3442C302.152 48.1858 302.152 25.9772 302.101 3.81887C302.101 1.95978 302.458 1.25635 304.554 1.25635C387.401 1.30659 470.248 1.30659 553.095 1.25635C555.088 1.25635 555.65 1.80905 555.65 3.76863C555.599 43.7139 555.599 83.609 555.65 123.554C555.65 125.212 555.497 126.067 553.402 126.067C532.549 125.966 511.697 126.016 490.845 125.966C488.647 114.46 484.456 112.149 472.241 109.938C465.444 108.682 458.646 109.687 451.951 110.742C446.38 111.646 444.183 114.108 443.16 119.635C443.314 121.997 443.927 124.409 441.883 126.368C440.809 126.77 439.685 126.67 438.612 126.67C411.371 126.67 384.13 126.67 356.889 126.67C356.378 126.67 355.867 126.619 355.356 126.67C353.363 126.77 352.443 126.016 352.545 123.856C352.8 119.535 352.34 115.163 352.8 110.842C353.822 110.038 355.049 110.189 356.225 110.189C364.249 110.189 372.222 110.189 380.246 110.189C383.159 110.189 383.312 110.088 383.312 107.224C383.312 78.1825 383.312 49.1405 383.312 20.0985C383.312 17.2847 383.159 17.1842 380.246 17.1842C362.511 17.1842 344.827 17.1842 327.093 17.1842C324.077 17.1842 323.975 17.2847 323.975 20.3497C323.975 36.5288 323.975 52.6577 323.975 68.8368C323.975 70.1432 324.333 71.55 323.26 72.6554C316.155 72.6052 309.205 72.6052 302.254 72.6052Z" fill="#FEFEFE"/>
<path d="M352.801 109.887C352.29 106.47 352.648 103.054 352.597 99.6873C352.546 94.6627 352.648 89.6884 352.546 84.6638C352.392 77.3279 347.639 72.7556 340.178 72.7053C335.016 72.7053 329.854 72.7053 324.641 72.6551C323.619 72.1024 323.67 71.1477 323.67 70.2433C323.67 53.3607 323.67 36.4279 323.619 19.5454C323.619 17.5858 324.385 16.9326 326.327 16.9326C344.471 16.9829 362.563 16.9829 380.706 16.9326C382.853 16.9326 383.466 17.7365 383.466 19.7464C383.415 49.0396 383.415 78.2826 383.466 107.576C383.466 109.535 382.904 110.44 380.706 110.44C372.222 110.339 363.687 110.39 355.203 110.39C354.386 110.39 353.466 110.49 352.801 109.887Z" fill="#FEFEFE"/>
<path d="M99.8139 390.761C94.2942 390.811 88.7744 390.861 83.2547 390.911C70.5797 390.911 57.9047 390.861 45.2298 390.962C43.2365 390.962 42.6743 390.459 42.6743 388.449C42.7254 367.045 42.7255 345.59 42.7255 324.185C42.7255 322.728 42.6233 321.673 44.7698 321.673C62.9134 321.773 81.0059 321.723 99.1495 321.723C99.405 321.723 99.6606 321.824 99.9161 321.824C99.8139 344.836 99.8139 367.798 99.8139 390.761Z" fill="#FEFEFE"/>
<path d="M99.7629 320.417C67.7688 320.417 35.7235 320.417 3.72931 320.467C2.14493 320.467 1.5316 320.116 1.5316 318.407C1.42938 311.825 1.3783 311.825 8.07356 311.825C38.6367 311.825 69.1998 311.875 99.7629 311.875C99.7629 314.739 99.7629 317.553 99.7629 320.417Z" fill="#FEFEFE"/>
<path d="M303.226 442.011C305.423 441.76 307.672 441.81 309.87 442.011C310.534 442.916 310.33 443.921 310.33 444.926C310.33 477.887 310.33 510.848 310.33 543.809C310.33 546.975 310.228 547.025 307.008 547.025C306.497 547.025 305.986 546.975 305.474 547.025C303.379 547.276 302.612 546.372 302.612 544.312C302.663 510.999 302.663 477.736 302.663 444.423C302.714 443.569 302.612 442.715 303.226 442.011Z" fill="#FEFEFE"/>
<path d="M99.7118 310.77C93.4763 309.765 91.2786 307.252 91.2786 301.022C91.2786 290.671 91.2786 280.321 91.2786 269.97C91.2786 266.805 91.2786 266.805 94.6519 266.805C96.3385 266.805 98.0252 266.805 99.7629 266.754C99.7118 281.426 99.7118 296.098 99.7118 310.77Z" fill="#FEFEFE"/>
<path d="M99.7627 265.649C97.4628 265.649 95.1629 265.649 92.863 265.699C91.6364 265.749 91.2275 265.297 91.2275 264.091C91.3808 253.64 90.9719 243.189 91.483 232.738C91.5341 231.381 92.0964 231.03 93.323 231.08C95.4696 231.13 97.5651 231.08 99.7116 231.08C99.7627 242.586 99.7627 254.092 99.7627 265.649Z" fill="#FEFEFE"/>
<path d="M352.801 109.888C362.001 109.837 371.2 109.737 380.4 109.837C382.597 109.837 383.057 109.184 383.057 107.174C383.006 78.1323 383.006 49.0903 383.057 20.0483C383.057 17.9882 382.597 17.3852 380.4 17.4355C362.614 17.536 344.828 17.536 327.042 17.4355C324.998 17.4355 324.283 17.8374 324.283 19.998C324.385 36.7298 324.334 53.4616 324.334 70.1934C324.334 71.0476 324.231 71.8516 324.691 72.6555C324.18 72.6555 323.669 72.6555 323.158 72.6052C323.158 54.969 323.209 37.3328 323.209 19.6463C323.209 15.9784 322.749 16.3803 326.685 16.3803C344.981 16.3803 363.278 16.3803 381.575 16.3301C383.517 16.3301 384.182 16.732 384.182 18.7921C384.131 48.638 384.131 78.5342 384.182 108.38C384.182 110.289 383.722 110.993 381.626 110.943C372.018 110.842 362.41 110.892 352.801 110.842C352.75 110.541 352.75 110.189 352.801 109.888Z" fill="#5882AF"/>
<path d="M303.225 442.011C303.225 475.827 303.225 509.642 303.276 543.457C303.276 544.412 302.612 546.02 303.941 546.321C305.73 546.673 307.672 546.573 309.461 546.221C310.279 546.07 309.87 544.713 309.87 543.909C309.87 532.855 309.87 521.801 309.87 510.747C309.87 487.835 309.87 464.873 309.87 441.961C310.228 441.961 310.585 442.011 310.943 442.011C310.943 458.944 310.994 475.827 310.994 492.759C310.994 509.994 310.994 527.278 310.994 544.512C310.994 545.517 310.943 546.522 310.892 547.527C307.979 547.527 305.116 547.477 302.203 547.477C302.152 547.075 302.101 546.623 302.101 546.221C302.101 511.501 302.101 476.731 302.101 442.011C302.509 442.011 302.867 442.011 303.225 442.011Z" fill="#5A83AF"/>
<path d="M99.7629 229.975C98.3319 229.975 96.901 230.025 95.4189 230.025C91.3814 230.025 91.3303 230.025 91.2792 226.006C91.2281 222.589 91.3303 219.172 91.2281 215.755C91.177 214.298 91.6881 213.846 93.1191 213.896C95.3166 213.997 97.5143 213.947 99.7118 213.947C99.763 219.273 99.7629 224.599 99.7629 229.975Z" fill="#FEFEFE"/>
<path d="M352.749 110.892C352.749 115.012 352.903 119.082 352.749 123.202C352.647 125.413 353.209 126.117 355.611 126.117C375.85 126.016 396.089 126.066 416.328 126.066C424.915 126.066 433.501 126.117 442.087 126.117C442.7 127.021 441.985 127.272 441.372 127.574C440.145 127.976 438.816 127.875 437.589 127.875C410.093 127.875 382.597 127.875 355.049 127.925C354.283 127.925 353.516 127.875 352.749 127.724C352.698 127.523 352.596 127.373 352.545 127.172C352.238 121.695 351.932 116.268 352.749 110.892Z" fill="#5881AE"/>
<path d="M501.425 459.095C494.27 459.045 487.166 458.944 480.011 459.045C478.017 459.095 477.506 458.492 477.404 456.533C476.791 442.263 476.075 428.043 475.36 413.773C475.155 409.754 474.9 405.784 474.695 401.765C473.98 386.189 473.213 370.612 472.498 355.087C474.9 355.589 476.28 357.448 477.915 358.905C481.595 362.221 485.224 365.638 489.057 368.804C491.766 371.014 494.27 370.813 496.621 368.201C501.885 362.322 507.303 356.544 512.771 350.816C513.436 350.112 513.947 348.705 515.378 349.811C516.656 353.278 516.86 356.996 517.371 360.614C519.569 376.139 522.022 391.665 524.22 407.242C524.424 408.749 524.782 410.206 526.059 411.211C526.059 411.563 526.059 411.764 526.571 411.764C551.103 411.412 575.686 411.713 600.218 411.613C601.24 411.613 602.262 411.462 603.131 412.216C603.131 413.472 602.109 413.372 601.342 413.522C600.269 413.723 599.145 413.623 598.02 413.623C575.481 413.623 552.891 413.623 530.353 413.623C529.944 413.623 529.484 413.623 529.075 413.623C525.395 413.673 525.293 413.773 525.804 417.341C526.162 420.004 526.622 422.617 526.928 425.28C527.184 427.34 528.206 428.244 530.302 428.094C531.17 428.043 531.988 428.094 532.857 428.094C555.089 428.094 577.27 428.094 599.502 428.144C600.933 428.144 602.824 427.39 603.591 429.5C602.415 430.003 601.24 429.651 600.065 429.651C576.759 429.701 553.454 429.651 530.148 429.651C529.33 429.651 528.513 429.802 527.388 429.4C528.513 429.802 529.33 429.651 530.097 429.651C553.402 429.651 576.708 429.651 600.013 429.701C600.882 429.701 602.058 429.048 602.722 430.355C601.496 431.611 599.86 431.209 598.378 431.209C576.708 431.259 555.089 431.209 533.419 431.209C532.652 431.209 531.886 431.209 531.119 431.209C528.206 431.259 528.155 431.359 528.206 434.173C528.206 434.625 528.206 435.078 528.257 435.48C528.615 436.836 528.666 438.243 529.075 439.6C529.177 440.052 529.228 440.504 529.279 440.906C529.995 445.981 530.864 451.006 531.477 456.08C531.835 459.045 531.273 459.698 528.257 459.748C520.233 459.799 512.26 459.799 504.236 459.748C503.265 459.849 502.243 459.748 501.425 459.095Z" fill="#6DB5DE"/>
<path d="M514.815 349.559C509.091 355.739 503.316 361.869 497.591 368.049C494.218 371.717 491.765 372.019 488.034 368.803C482.821 364.281 477.608 359.658 472.446 355.136C467.488 350.061 462.02 345.59 456.756 340.866C450.163 334.887 443.416 328.958 436.874 322.929C434.37 320.668 434.37 317.603 436.619 315.141C446.789 304.137 456.96 293.183 467.182 282.179C467.693 281.627 468.255 281.124 468.817 280.622C471.475 279.165 473.775 279.717 475.972 281.677C481.032 286.249 486.092 290.721 491.203 295.243C489.925 298.76 488.341 302.177 487.37 305.745C485.888 311.272 487.676 316.346 490.181 321.271C491.407 322.376 490.743 323.984 491.254 325.34C491.765 328.456 492.276 331.571 492.838 334.686C493.4 337.852 495.036 340.213 498.409 341.017C499.073 341.268 499.789 341.52 500.505 341.419C501.987 341.419 503.469 341.419 504.9 341.419C505.718 341.57 505.82 341.067 505.973 340.464C506.126 339.912 505.922 339.108 506.893 339.108C506.689 341.369 507.609 341.771 509.653 340.866C513.128 339.259 515.428 336.746 515.837 332.928C516.348 328.154 516.553 323.331 516.859 318.507C518.648 318.356 519.261 319.612 519.824 320.919C520.284 321.472 520.692 322.074 521.408 322.326C524.781 323.783 527.183 326.496 529.125 329.36C530.403 331.269 529.994 333.782 528.308 335.641C526.672 337.45 525.241 339.46 523.452 341.067C522.839 341.62 522.226 342.173 521.663 342.826C519.619 345.288 517.677 347.851 514.815 349.559Z" fill="#202B6D"/>
<path d="M462.275 402.217C462.735 416.135 463.195 430.002 463.655 443.92C463.706 444.925 463.655 445.93 463.655 446.935C462.889 447.739 461.867 447.789 460.844 447.789C456.807 447.789 452.769 447.89 448.732 447.739C448.272 447.739 447.761 447.739 447.301 447.739C444.95 447.588 442.496 448.392 440.299 446.985C436.875 438.343 433.45 429.751 430.077 421.109C427.573 414.728 425.171 408.296 422.769 401.915C435.392 401.915 448.016 401.915 460.589 401.965C461.1 401.965 461.662 402.116 462.275 402.217Z" fill="#6DB5DE"/>
<path d="M483.997 169.277C484.559 168.875 485.07 169.127 485.632 169.328C485.632 179.779 485.683 190.23 485.632 200.681C485.632 202.339 485.734 203.445 487.881 203.696C490.385 203.997 491.918 205.706 492.48 208.117C492.992 210.328 493.043 212.639 492.48 214.8C491.816 217.614 489.516 219.272 486.552 219.372C486.45 219.372 486.399 219.372 486.296 219.372C478.17 219.925 475.973 217.513 476.382 209.725C476.586 206.309 478.273 203.897 481.748 203.445C483.639 203.193 483.639 202.339 483.639 200.982C483.588 191.335 483.639 181.738 483.639 172.091C483.639 171.237 483.537 170.232 483.997 169.277Z" fill="#FDFDFE"/>
<path d="M495.292 251.228C495.292 253.489 495.292 255.75 495.292 258.062C495.189 258.062 495.138 258.062 495.036 258.062C495.036 255.801 495.036 253.489 495.036 251.228C495.087 251.178 495.189 251.178 495.292 251.228Z" fill="#81B1D3"/>
<path d="M448.323 447.035C453.433 447.035 458.493 446.985 463.604 446.985C463.808 452.412 464.012 457.838 464.166 463.265C464.524 475.273 464.83 487.282 465.137 499.341C463.604 500.346 462.121 500.195 460.588 499.391C456.193 488.89 452.104 478.288 448.22 467.586C447.096 461.406 447.812 455.125 447.658 448.945C447.658 448.191 447.863 447.538 448.323 447.035Z" fill="#FEFEFE"/>
<path d="M440.197 446.985C442.547 446.985 444.847 447.035 447.198 447.035C447.914 447.588 447.811 448.342 447.811 449.095C447.811 453.618 447.811 458.14 447.811 462.612C447.811 463.315 447.965 464.169 447.096 464.571C444.541 458.843 442.292 452.914 440.197 446.985Z" fill="#FBFBFC"/>
<path d="M465.597 508.787C465.137 508.787 464.677 508.837 464.217 508.837C463.042 506.124 461.764 503.411 461.099 500.496C462.428 499.391 463.808 499.491 465.188 500.446C465.342 503.21 465.444 505.973 465.597 508.787Z" fill="#FBFBFC"/>
<path d="M447.095 464.622C447.147 458.743 447.147 452.914 447.198 447.036C447.556 447.036 447.965 447.036 448.323 447.036C448.272 453.869 448.272 460.702 448.22 467.536C447.862 466.531 447.453 465.576 447.095 464.622Z" fill="#5881AE"/>
<path d="M465.189 500.396C463.809 500.396 462.48 500.447 461.1 500.447C460.947 500.045 460.793 499.693 460.589 499.291C462.122 499.291 463.604 499.291 465.137 499.241C465.189 499.643 465.189 500.045 465.189 500.396Z" fill="#648AB3"/>
<path d="M461.203 169.177C461.203 166.414 461.049 163.65 461.254 160.937C461.407 158.827 460.283 158.425 458.647 158.173C454.252 157.47 450.061 156.314 446.432 153.601C442.394 150.586 441.014 146.316 440.708 141.592C440.503 138.477 441.014 135.462 441.321 132.397C441.934 132.096 443.008 132.548 443.212 131.644C443.468 130.589 442.088 130.639 441.679 129.986C441.679 129.031 441.679 128.127 441.679 127.172C441.781 126.82 441.935 126.418 442.037 126.067C442.394 123.956 442.701 121.796 443.059 119.685C443.314 121.193 444.643 120.74 445.512 120.791C450.93 121.142 456.347 121.494 461.816 121.695C463.502 121.745 464.32 122.348 464.933 123.906C468.664 132.9 472.6 141.894 476.382 150.888C477.66 153.953 477.711 157.269 477.966 160.485C478.171 163.399 477.966 166.313 477.966 169.228C472.446 169.228 466.825 169.177 461.203 169.177Z" fill="#FD9993"/>
<path d="M522.839 341.018C524.423 339.259 525.957 337.501 527.541 335.792C529.994 333.079 529.943 330.165 527.285 327.652C525.394 325.894 523.452 324.135 521.51 322.377C522.328 321.723 523.299 322.075 524.219 322.075C554.679 322.075 585.191 322.075 615.652 321.975C618.207 321.975 618.667 322.678 618.667 325.04C618.616 385.284 618.616 445.529 618.667 505.823C618.667 508.486 617.85 508.888 615.396 508.888C577.423 508.838 539.449 508.838 501.476 508.838C501.476 506.024 501.476 503.211 501.476 500.397C502.6 499.141 504.184 499.543 505.564 499.543C528.461 499.493 551.357 499.543 574.305 499.543C582.84 499.543 591.324 499.543 599.859 499.543C602.875 499.543 602.977 499.442 602.977 496.377C602.977 475.525 602.977 454.673 602.977 433.821C602.977 432.314 602.824 430.807 603.539 429.4C602.722 428.445 601.648 428.948 600.677 428.948C576.912 428.897 553.197 428.897 529.432 428.948C527.337 428.948 526.468 428.546 526.314 426.335C525.957 422.416 525.241 418.547 524.526 414.728C524.168 412.718 525.343 412.819 526.723 412.819C543.998 412.819 561.272 412.819 578.547 412.819C585.856 412.819 593.164 412.819 600.524 412.819C601.444 412.819 602.415 413.12 603.233 412.467C602.875 411.311 602.977 410.156 602.977 409C602.977 388.098 602.977 367.196 602.977 346.294C602.977 345.439 602.977 344.635 602.977 343.781C602.977 342.475 602.466 341.721 600.984 341.822C600.217 341.872 599.451 341.822 598.684 341.822C574.714 341.822 550.693 341.822 526.723 341.822C525.394 341.721 523.963 342.073 522.839 341.018Z" fill="#FEFEFE"/>
<path d="M501.425 459.094C510.42 459.044 519.466 458.994 528.461 459.044C530.403 459.044 531.323 458.994 530.863 456.481C529.841 451.256 529.381 445.93 528.665 440.654C529.432 439.599 530.608 439.8 531.681 439.8C535.923 439.749 540.165 439.749 544.407 439.8C545.889 439.8 546.809 439.498 546.809 437.74C546.809 435.981 545.889 435.68 544.356 435.68C539.756 435.68 535.207 435.73 530.607 435.68C529.534 435.68 528.359 435.881 527.592 434.825C526.928 430.404 526.928 430.404 531.579 430.404C554.118 430.404 576.707 430.404 599.246 430.404C600.371 430.404 601.444 430.555 602.568 430.605C603.437 431.308 603.182 432.313 603.182 433.167C603.182 454.421 603.182 475.675 603.182 496.979C603.182 499.642 602.977 499.793 600.269 499.843C568.172 499.843 536.076 499.843 503.98 499.843C503.111 499.843 502.242 499.944 501.527 499.391C501.476 485.875 501.425 472.51 501.425 459.094Z" fill="#FEFEFE"/>
<path d="M501.476 499.292C534.134 499.292 566.844 499.242 599.502 499.342C601.955 499.342 602.569 498.739 602.569 496.327C602.466 474.42 602.518 452.463 602.518 430.556C601.802 429.4 600.678 429.953 599.758 429.953C576.605 429.903 553.453 429.953 530.25 429.903C529.33 429.903 528.41 430.104 526.928 429.4C552.84 429.4 578.19 429.4 603.54 429.4C603.591 430.254 603.693 431.058 603.693 431.912C603.693 453.769 603.642 475.626 603.744 497.433C603.744 499.895 602.978 500.448 600.575 500.448C567.559 500.397 534.492 500.397 501.476 500.397C501.527 500.046 501.476 499.644 501.476 499.292Z" fill="#5F87B2"/>
<path d="M480.113 147.621C480.113 142.496 480.113 137.472 480.113 132.498C485.122 133 488.802 135.864 489.159 139.431C489.517 143.099 486.399 146.014 480.113 147.621Z" fill="#FC9993"/>
<path d="M307.416 198.671C304.146 195.858 300.824 193.144 297.655 190.28C296.326 189.074 295.764 190.079 295.048 190.833C289.835 196.31 283.447 199.676 275.883 201.033C257.841 204.299 239.545 191.587 236.785 173.699C234.638 159.681 241.129 146.164 253.242 139.381C265.814 132.397 280.687 133.603 291.88 142.597C298.166 147.672 301.897 154.254 303.583 162.042C303.89 163.399 303.532 163.901 302.101 163.65C301.999 163.65 301.948 163.65 301.846 163.65C297.297 164.102 294.537 163.047 292.646 157.972C288.558 147.27 275.985 141.592 264.741 144.255C252.475 147.169 244.809 157.42 245.422 169.981C245.984 181.136 255.184 190.783 266.683 192.34C275.014 193.446 282.067 190.933 288.097 185.256C289.273 184.15 289.58 183.447 288.046 182.241C283.6 178.774 279.307 175.056 274.963 171.438C272.765 169.629 272.407 167.67 273.94 166.062C275.474 164.353 277.416 164.404 279.562 166.213C283.6 169.579 287.586 172.945 291.624 176.262C292.186 176.764 292.544 177.267 293.924 176.613C296.428 175.458 299.597 176.412 302.459 176.714C303.021 176.764 302.868 177.367 302.766 177.769C302.663 178.272 302.459 178.724 302.306 179.176C300.67 183.899 300.721 183.849 304.657 187.115C309.767 191.386 314.878 195.657 319.989 199.927C316.769 201.686 316.309 203.143 317.74 206.811C314.265 204.098 310.841 201.385 307.416 198.671Z" fill="#60A9FC"/>
<path d="M320.654 208.319C327.605 211.535 334.607 214.75 341.557 218.067C343.959 219.172 344.624 221.282 343.397 223.192C342.171 225.101 340.024 225.352 337.929 223.744C336.089 222.287 334.198 220.83 332.46 219.222C331.336 218.167 330.722 218.167 330.109 219.624C329.7 220.529 329.189 221.383 328.678 222.287C328.32 222.84 327.86 223.192 327.196 222.79C326.685 222.488 326.685 221.986 326.94 221.483C326.991 221.333 327.094 221.182 327.196 221.031C329.24 216.66 329.24 216.66 325.509 213.444C323.72 211.886 321.932 210.379 320.143 208.872C319.99 208.369 320.092 208.118 320.654 208.319Z" fill="#010101"/>
<path d="M320.654 208.319C320.45 208.469 320.296 208.67 320.092 208.821C319.427 208.62 318.967 208.168 318.507 207.464C319.478 207.414 320.092 207.766 320.654 208.319Z" fill="#36211F"/>
<path d="M34.9059 434.223C34.9059 397.745 34.9059 361.216 34.957 324.738C34.957 323.783 34.1904 322.225 35.6725 321.924C37.4611 321.572 39.4031 321.522 41.1918 322.075C41.3962 322.125 41.4984 322.828 41.4984 323.18C41.5495 323.783 41.4984 324.336 41.4984 324.939C41.4984 397.745 41.4984 470.601 41.4473 543.407C41.4473 544.412 42.1117 545.97 40.834 546.271C39.0454 546.623 37.1034 546.522 35.2636 546.221C34.497 546.12 34.8548 544.914 34.8548 544.161C34.8548 537.729 34.8548 531.248 34.8548 524.816C34.9059 494.618 34.9059 464.421 34.9059 434.223Z" fill="#FEFEFE"/>
<path d="M61.3804 276.502C61.3804 267.91 61.4314 259.268 61.3292 250.676C61.2781 248.516 61.9936 248.013 64.0891 248.063C67.82 248.214 71.6021 248.164 75.333 248.063C76.9174 248.013 77.3263 248.566 77.3263 250.073C77.2752 267.559 77.3263 285.044 77.2752 302.53C77.2752 307.152 73.7998 310.619 69.3533 310.669C64.9068 310.72 61.4826 307.253 61.4314 302.58C61.3292 293.887 61.3804 285.195 61.3804 276.502Z" fill="#FEFEFE"/>
<path d="M74.0042 310.619C78.2462 307.604 78.4506 303.735 78.4506 299.565C78.3484 279.165 78.3995 258.715 78.3995 238.315C78.3995 236.909 78.0929 235.502 80.3417 235.351C81.5683 235.25 81.5172 233.844 81.4149 232.839C81.1594 230.728 82.6416 230.929 83.8682 231.13C85.0948 231.281 87.2414 230.075 87.088 232.839C86.9858 234.346 87.3436 235.502 89.2346 235.552C90.4613 235.602 90.1546 236.557 90.1546 237.26C90.2057 239.672 90.1546 242.134 90.1546 244.546C90.1546 262.785 90.2057 281.024 90.1035 299.263C90.1035 303.484 90.2057 307.453 94.5499 310.569C87.4969 310.619 81.1594 310.619 74.0042 310.619Z" fill="#FEFEFE"/>
<path d="M61.38 221.684C61.38 219.674 61.4821 217.664 61.3288 215.654C61.2266 214.197 61.8399 213.795 63.2199 213.846C67.3087 213.896 71.3463 213.896 75.4351 213.846C76.4573 213.846 77.2751 213.896 77.224 215.253C77.1217 219.523 77.0706 223.744 77.0706 228.015C77.0706 229.422 76.6106 230.075 75.0262 230.025C71.1419 229.924 67.2064 229.924 63.3221 230.025C61.891 230.075 61.38 229.623 61.4311 228.216C61.5333 226.055 61.4822 223.895 61.4822 221.734C61.431 221.684 61.4311 221.684 61.38 221.684Z" fill="#FEFEFE"/>
<path d="M61.4817 238.968C61.4817 237.109 61.584 235.3 61.4307 233.441C61.2773 231.633 61.8395 230.929 63.7817 231.03C67.4105 231.18 71.0904 231.13 74.7193 231.03C76.2014 230.979 76.917 231.231 77.0703 233.039C77.377 237.109 77.0703 241.229 77.2748 245.299C77.3259 246.656 76.8148 247.008 75.4859 247.008C71.3971 246.957 67.3594 246.907 63.2706 247.008C61.584 247.058 61.2773 246.354 61.3284 244.948C61.4306 242.938 61.3284 240.928 61.3284 238.918C61.4306 238.968 61.4306 238.968 61.4817 238.968Z" fill="#FEFEFE"/>
<path d="M78.3994 232.889C78.5527 232.286 77.9906 231.281 79.2171 231.18C80.3414 231.08 80.3926 231.934 80.3415 232.738C80.2904 233.442 80.597 234.396 79.4215 234.497C78.195 234.597 78.4505 233.643 78.3994 232.889Z" fill="#F7F9FB"/>
<path d="M90.1538 232.889C90.0516 233.492 90.4093 234.396 89.3363 234.396C88.059 234.446 88.2123 233.441 88.2123 232.637C88.1612 231.834 88.2634 231.03 89.3363 231.13C90.5626 231.281 90.0005 232.286 90.1538 232.889Z" fill="#FDFDFE"/>
<path d="M90.1545 228.618C90.1034 229.271 90.3079 230.025 89.2347 230.025C88.3147 230.025 88.1614 229.472 88.1614 228.718C88.1614 228.015 88.2636 227.362 89.1324 227.261C90.1545 227.161 90.1545 227.914 90.1545 228.618Z" fill="#F0F3F7"/>
<path d="M58.314 232.687C58.3651 232.034 58.1606 231.18 59.1319 231.18C60.3076 231.13 60.1031 232.135 60.052 232.788C60.052 233.441 60.3588 234.496 59.1319 234.396C58.0584 234.345 58.4162 233.341 58.314 232.687Z" fill="#F6F8FA"/>
<path d="M79.2684 227.261C80.2395 227.361 80.3928 227.964 80.3417 228.668C80.3417 229.371 80.2906 229.974 79.3195 229.974C78.2972 229.974 78.3483 229.271 78.3483 228.617C78.3994 227.964 78.3483 227.311 79.2684 227.261Z" fill="#EFF3F7"/>
<path d="M59.2332 227.362C60.0513 227.462 60.0513 228.065 60.0513 228.668C60.0513 229.371 60.0513 230.075 59.0287 229.974C58.1595 229.874 58.3129 229.17 58.3129 228.618C58.3129 228.015 58.4152 227.412 59.2332 227.362Z" fill="#FEFEFE"/>
<path d="M519.875 320.97C518.904 320.166 517.881 319.362 516.91 318.558C516.655 315.593 517.268 312.679 517.37 309.715C553.3 309.715 589.229 309.715 625.158 309.765C629.349 309.765 628.736 309.212 628.736 313.383C628.736 315.794 629.809 318.96 628.327 320.417C626.743 322.025 623.472 320.919 620.967 320.919C587.287 320.97 553.606 320.97 519.875 320.97Z" fill="#FEFEFE"/>
<path d="M500.556 341.469C499.534 342.876 498.92 342.324 498.46 341.067C498.665 336.545 498.869 332.073 499.073 327.551C499.125 326.798 499.073 326.044 499.176 325.29C499.227 324.637 499.227 323.833 500.147 323.783C501.322 323.783 501.118 324.738 501.118 325.441C500.965 329.963 500.76 334.435 500.607 338.957C500.505 339.811 500.556 340.615 500.556 341.469Z" fill="#050303"/>
<path d="M491.254 325.391C489.414 324.436 490.59 322.678 490.181 321.321C490.385 317.101 490.539 312.83 490.743 308.609C490.794 307.855 490.487 306.7 491.765 306.75C492.992 306.8 492.736 307.906 492.736 308.709C492.583 313.533 492.378 318.357 492.174 323.18C492.174 324.034 491.969 324.838 491.254 325.391Z" fill="#060404"/>
<path d="M506.944 339.158C506.433 339.811 506.739 340.615 506.637 341.319C506.586 341.821 506.586 342.374 505.922 342.424C505.257 342.474 505.104 341.922 504.951 341.469C505.155 336.395 505.308 331.32 505.564 326.195C505.615 325.391 505.155 324.034 506.535 324.034C507.915 324.034 507.557 325.29 507.506 326.144C507.353 330.516 507.148 334.837 506.944 339.158Z" fill="#070404"/>
<path d="M591.887 528.283C591.887 523.007 591.938 517.732 591.836 512.506C591.785 510.848 592.193 510.145 594.084 510.195C597.815 510.346 601.546 510.295 605.328 510.195C607.066 510.145 607.475 510.798 607.424 512.355C607.373 523.058 607.373 533.76 607.424 544.462C607.424 545.919 607.066 546.522 605.431 546.522C601.546 546.422 597.611 546.422 593.676 546.522C592.193 546.573 591.836 545.97 591.836 544.613C591.938 539.136 591.887 533.71 591.887 528.283Z" fill="#FEFEFE"/>
<path d="M154.193 149.631C154.55 149.933 154.704 150.084 154.908 150.285C156.646 151.993 158.946 153.45 159.968 155.51C160.99 157.621 158.639 159.681 158.077 161.841C154.499 175.307 162.728 188.773 176.578 192.089C189.816 195.255 203.513 186.813 206.528 173.649C209.544 160.334 200.906 147.119 187.311 144.305C181.996 143.2 176.783 143.703 171.927 146.064C170.343 146.818 169.321 146.717 168.299 145.361C167.788 144.707 167.123 144.155 166.51 143.552C163.239 140.336 163.188 140.185 167.328 138.376C180.309 132.648 192.729 133.754 203.666 142.647C215.012 151.842 218.743 164.102 214.552 177.87C210.464 191.335 200.702 199.475 186.494 201.234C172.541 202.992 161.143 197.767 153.579 186.009C146.169 174.453 146.475 162.444 153.426 150.636C153.682 150.285 153.886 150.033 154.193 149.631Z" fill="#60A9FC"/>
<path d="M277.058 267.508C269.239 265.197 264.128 260.323 262.032 252.786C259.835 244.797 261.828 237.662 267.91 231.884C274.298 225.804 283.907 224.397 291.829 228.166C300.006 232.035 304.759 240.225 303.89 249.018C303.022 257.861 296.94 265.046 288.251 267.458C285.287 268.262 285.389 268.262 285.542 265.247C285.644 263.489 285.849 262.333 287.944 261.63C295.202 259.168 299.137 252.384 298.115 244.797C297.195 238.014 291.369 232.638 284.162 231.884C276.854 231.13 270.056 235.452 267.705 242.285C265.354 249.118 268.012 256.756 274.503 260.273C277.16 261.73 277.927 263.237 277.263 265.9C277.16 266.302 277.16 266.805 277.058 267.508Z" fill="#60A9FC"/>
<path d="M152.149 235.602C152.303 235.702 152.456 235.753 152.558 235.853C154.807 237.762 156.238 239.37 154.756 243.038C152.149 249.47 155.727 257.107 161.758 260.473C168.299 264.091 176.068 263.036 181.178 257.76C186.034 252.736 186.851 244.947 183.121 238.968C179.339 232.939 171.775 230.025 164.977 232.537C162.422 233.491 160.94 233.039 159.458 231.13C159.049 230.627 158.436 230.326 157.822 229.874C166.613 223.543 179.287 225.452 186.34 233.843C193.547 242.385 192.627 254.896 184.245 262.634C176.272 269.97 163.342 270.07 155.471 262.785C147.396 255.399 145.914 242.988 152.149 235.602Z" fill="#60A9FC"/>
<path d="M212.406 263.84C212.968 263.338 213.377 263.087 213.684 262.685C215.319 260.675 216.904 260.323 219.613 261.479C228.045 265.046 237.552 260.424 240.312 251.882C243.071 243.391 237.909 234.296 229.119 232.135C220.379 230.025 211.435 235.703 209.851 244.446C209.391 246.857 209.289 249.42 210.362 251.631C211.384 253.691 210.669 254.847 209.084 255.952C208.42 256.454 207.806 257.007 207.142 257.56C201.622 250.475 203.564 237.863 211.077 231.533C219.97 223.996 232.441 224.398 240.618 232.487C248.54 240.326 248.847 252.937 241.436 261.177C233.872 269.368 221.248 270.624 212.406 263.84Z" fill="#60A9FC"/>
<path d="M163.546 349.409C171.417 349.358 177.959 354.986 178.981 362.673C179.952 369.959 174.944 377.194 167.737 379.104C160.275 381.013 152.251 377.194 149.542 370.261C149.185 369.406 148.06 367.949 149.389 367.497C150.616 367.095 152.507 366.542 153.376 368.803C154.653 372.17 157.26 374.23 160.735 375.185C166.511 376.742 172.593 373.527 174.381 368C176.221 362.472 173.461 356.543 168.044 354.282C162.524 352.021 156.187 354.282 153.631 359.709C152.865 361.317 151.945 361.618 150.36 361.618C148.827 361.618 148.725 361.066 149.082 359.809C150.82 353.88 156.953 349.459 163.546 349.409Z" fill="#60A9FC"/>
<path d="M163.547 322.979C157.26 322.929 151.485 319.01 149.39 313.282C149.134 312.528 147.959 311.222 149.441 310.87C150.616 310.619 152.354 309.915 153.274 312.026C155.165 316.548 158.794 318.909 163.802 318.909C169.373 318.909 174.024 314.839 174.842 309.312C175.608 304.237 172.235 298.962 167.227 297.304C162.065 295.595 156.289 297.907 153.683 302.63C153.274 303.383 153.376 304.639 152.252 304.79C151.178 304.941 149.799 305.092 149.032 304.589C148.265 304.087 149.185 302.881 149.492 302.077C152.201 295.244 160.02 291.425 167.482 293.234C174.893 295.043 179.901 302.228 178.981 309.714C178.01 317.352 171.366 323.029 163.547 322.979Z" fill="#60A9FC"/>
<path d="M295.406 352.373C293.873 354.434 292.544 355.288 289.886 354.082C285.44 352.072 279.818 354.132 277.058 358.101C274.043 362.423 274.401 368.201 277.978 371.969C281.402 375.637 286.973 376.592 291.471 374.281C296.07 371.919 298.473 366.894 297.246 362.071C296.837 360.513 296.428 359.307 298.064 358.001C299.648 356.745 299.904 357.448 300.415 358.704C303.021 364.734 301.232 371.869 295.968 376.14C290.755 380.36 283.242 380.762 277.672 377.044C271.947 373.225 269.443 366.241 271.539 359.86C273.634 353.529 279.665 349.308 286.462 349.409C289.886 349.459 292.391 350.313 295.406 352.373Z" fill="#60A9FC"/>
<path d="M244.655 322.98C236.478 322.98 230.089 317.051 229.323 308.81C228.658 301.474 234.229 294.591 242.1 293.033C249.511 291.576 257.126 296.198 259.323 303.484C259.528 304.238 260.448 305.544 259.221 305.745C257.995 305.946 256.104 306.75 255.388 304.539C254.264 301.072 251.862 298.661 248.386 297.455C242.713 295.495 236.58 298.208 234.229 303.635C231.929 309.011 234.331 315.342 239.698 317.905C245.064 320.467 251.453 318.508 254.519 313.332C254.928 312.629 254.928 311.373 256.257 311.523C257.228 311.624 258.557 311.272 259.119 312.076C259.63 312.78 258.812 313.785 258.404 314.588C255.899 319.764 250.584 322.98 244.655 322.98Z" fill="#60A9FC"/>
<path d="M191.452 299.012C193.65 300.419 194.007 301.977 192.934 304.59C190.992 309.363 193.292 314.739 197.738 317.402C202.031 319.965 207.807 319.362 211.435 315.895C214.962 312.579 215.882 306.951 213.633 302.731C211.18 298.208 205.916 295.646 200.907 297.254C198.147 298.158 197.329 296.5 196.052 295.043C201.214 291.023 210.413 292.481 215.217 298.058C220.635 304.338 220.022 313.433 213.838 319.06C208.011 324.336 198.658 324.236 193.036 318.809C187.261 313.282 186.546 304.338 191.452 299.012Z" fill="#60A9FC"/>
<path d="M295.457 295.947C293.924 298.107 292.288 298.509 289.682 297.454C284.929 295.545 279.409 297.806 276.649 302.177C274.042 306.348 274.656 311.975 278.182 315.593C281.76 319.261 287.433 320.065 291.982 317.502C296.428 314.99 298.779 309.865 297.093 305.092C296.173 302.429 298.115 301.826 299.29 300.519C303.379 305.393 302.152 314.086 296.735 319.01C290.806 324.486 281.351 324.336 275.525 318.658C269.8 313.131 269.442 304.036 274.707 297.957C279.869 292.028 289.068 291.123 295.457 295.947Z" fill="#60A9FC"/>
<path d="M196 351.418C203.411 347.549 211.895 349.509 216.341 356.041C220.686 362.372 219.408 371.014 213.479 375.988C207.551 380.962 198.607 380.711 193.036 375.385C187.312 369.908 186.545 361.568 191.247 355.689C194.007 357.699 194.007 357.699 192.934 360.713C191.196 365.537 192.985 370.863 197.329 373.727C201.52 376.491 207.142 376.139 211.026 372.823C214.808 369.657 215.933 363.979 213.735 359.558C211.486 355.086 206.171 352.322 201.162 353.78C198.402 354.533 197.329 353.428 196 351.418Z" fill="#60A9FC"/>
<path d="M244.706 349.409C251.453 349.409 257.279 353.579 259.272 359.91C259.528 360.664 260.652 362.07 259.119 362.322C257.943 362.523 256.052 363.075 255.337 360.915C253.804 356.594 250.686 354.031 246.035 353.428C240.516 352.725 235.2 356.242 233.769 361.468C232.287 366.944 235.098 372.522 240.362 374.632C245.626 376.792 251.657 374.783 254.519 369.909C254.979 369.105 255.03 368.05 256.512 367.999C259.579 367.899 259.885 368.251 258.608 370.914C255.388 377.546 247.517 381.013 240.413 378.853C232.952 376.591 228.505 369.607 229.681 361.92C230.703 354.735 237.143 349.358 244.706 349.409Z" fill="#60A9FC"/>
<path d="M475.206 105.918C455.478 105.918 435.699 105.868 415.971 105.968C413.671 105.968 413.16 105.315 413.16 103.154C413.262 81.4984 413.262 59.7922 413.16 38.1364C413.16 36.1265 413.62 35.4231 415.818 35.4231C455.478 35.4733 495.189 35.4733 534.85 35.4231C537.047 35.4231 537.507 36.0763 537.507 38.0861C537.456 59.742 537.405 81.4481 537.507 103.104C537.507 105.516 536.69 105.918 534.492 105.918C514.662 105.918 494.934 105.918 475.206 105.918Z" fill="#5983AF"/>
<path d="M475.206 26.6304C455.631 26.6304 436.006 26.6304 416.431 26.6304C413.16 26.6304 413.16 26.6304 413.16 23.3142C413.16 21.7064 413.262 20.0985 413.109 18.5409C412.956 16.6818 413.722 16.3301 415.46 16.3301C455.325 16.3803 495.189 16.3803 535.054 16.3301C537.047 16.3301 537.558 16.933 537.456 18.7419C537.303 20.6512 537.303 22.6108 537.456 24.5201C537.558 26.2285 536.894 26.6807 535.259 26.6304C529.994 26.53 524.679 26.5802 519.415 26.5802C504.644 26.6304 489.925 26.6304 475.206 26.6304Z" fill="#5882AE"/>
<path d="M514.815 349.559C517.013 347.198 519.211 344.786 521.408 342.424C522.584 341.821 523.811 341.771 525.139 341.771C549.723 341.771 574.357 341.771 598.94 341.771C602.978 341.771 603.182 341.972 603.182 345.841C603.182 366.593 603.182 387.344 603.182 408.096C603.182 411.814 603.182 411.814 599.349 411.814C596.64 411.814 593.88 411.814 591.172 411.814C588.054 411.814 587.696 411.512 587.696 408.347C587.645 397.041 587.543 385.736 587.747 374.431C587.85 368.452 585.499 364.08 579.979 361.518C578.088 360.613 577.372 359.307 577.475 357.297C577.526 355.539 577.475 353.78 577.475 352.021C577.475 350.765 576.912 350.263 575.583 350.263C568.633 350.313 569.655 349.71 569.808 355.488C569.911 358.805 568.888 360.865 565.873 362.573C561.886 364.834 559.944 368.602 559.944 373.225C559.995 384.43 559.944 395.635 559.944 406.89C559.944 407.643 559.944 408.397 559.944 409.151C559.944 411.01 559.178 411.914 557.184 411.864C554.373 411.763 551.562 411.864 548.751 411.814C546.247 411.763 545.838 411.412 545.787 408.799C545.736 403.423 545.787 398.097 545.736 392.72C545.736 390.208 545.685 387.696 545.787 385.184C545.889 383.174 545.225 382.269 543.027 382.32C538.581 382.42 534.186 382.42 529.739 382.32C527.797 382.269 527.235 383.073 527.235 384.882C527.286 392.67 527.286 400.458 527.235 408.246C527.235 409.402 527.695 410.859 526.008 411.361C524.782 411.412 524.117 411.11 523.862 409.603C522.277 398.298 520.54 386.992 518.853 375.687C517.524 367.045 516.195 358.302 514.815 349.559Z" fill="#FEFEFE"/>
<path d="M526.008 411.412C526.774 410.608 526.417 409.653 526.417 408.799C526.468 400.609 526.519 392.419 526.365 384.178C526.314 382.118 527.03 381.666 528.972 381.666C533.981 381.817 539.04 381.817 544.049 381.666C546.042 381.616 546.656 382.169 546.656 384.178C546.553 392.469 546.656 400.76 546.553 409.05C546.553 410.909 547.013 411.562 548.955 411.462C551.562 411.311 554.22 411.311 556.877 411.462C558.768 411.562 559.382 411.06 559.331 409.151C559.177 402.116 559.177 395.082 559.177 388.047C559.177 383.274 559.382 378.501 559.228 373.727C559.024 367.648 562.09 363.578 567.252 360.864C568.632 360.161 569.092 359.458 569.041 358C568.939 355.991 569.092 353.981 568.99 351.971C568.888 350.263 569.399 349.609 571.239 349.609C578.241 349.509 578.394 349.459 578.19 356.292C578.138 358.855 578.803 360.161 581.205 361.467C585.805 363.929 588.36 367.849 588.309 373.325C588.207 385.183 588.309 397.092 588.207 409C588.207 410.959 588.667 411.613 590.711 411.512C593.778 411.361 596.844 411.361 599.911 411.512C601.904 411.613 602.517 411.01 602.517 409C602.415 398.85 602.466 388.751 602.466 378.601C602.466 367.447 602.415 356.342 602.517 345.188C602.517 343.027 602.006 342.374 599.706 342.374C573.59 342.474 547.422 342.424 521.306 342.424C521.766 341.972 522.277 341.47 522.737 341.017C523.861 341.068 524.934 341.168 526.059 341.168C550.846 341.168 575.583 341.218 600.371 341.118C602.875 341.118 603.693 341.62 603.642 344.283C603.539 366.04 603.591 387.796 603.539 409.553C603.539 410.507 603.897 411.562 603.131 412.417C593.522 412.366 583.914 412.366 574.305 412.316C558.462 412.316 542.669 412.316 526.825 412.316C526.008 412.316 525.19 412.316 523.81 412.316C525.037 411.864 525.497 411.663 526.008 411.412Z" fill="#5A83AF"/>
<path d="M528.615 439.549C527.644 438.544 528.411 437.138 527.644 436.082C528.206 435.429 528.973 435.479 529.739 435.479C534.646 435.479 539.552 435.479 544.458 435.479C546.094 435.479 547.014 435.932 547.014 437.74C547.014 439.499 546.196 440.052 544.509 440.052C539.859 440.002 535.208 440.052 530.557 440.052C529.842 439.951 529.177 439.951 528.615 439.549Z" fill="#FEFEFE"/>
<path d="M528.615 439.549C533.879 439.549 539.092 439.499 544.357 439.549C545.685 439.549 546.554 439.549 546.554 437.79C546.554 436.082 545.788 435.931 544.408 435.982C538.837 436.082 533.215 436.082 527.644 436.132C527.644 435.68 527.644 435.278 527.644 434.826C533.522 434.826 539.399 434.977 545.277 434.826C547.883 434.725 547.627 436.132 547.627 437.79C547.627 439.448 547.832 440.805 545.225 440.755C539.706 440.554 534.135 440.705 528.615 440.755C528.615 440.303 528.615 439.901 528.615 439.549Z" fill="#5E86B1"/>
<path d="M484.354 217.513C479.295 217.513 478.426 216.609 478.426 211.434C478.426 206.409 479.499 205.404 484.712 205.404C489.517 205.404 490.743 206.761 490.743 211.886C490.794 216.509 489.619 217.513 484.354 217.513Z" fill="#6DB5DE"/>
<path d="M408.254 184.804C408.662 186.412 407.691 186.814 406.976 187.467C404.574 189.577 402.121 191.637 399.668 193.747C399.361 193.999 399.004 194.401 398.595 194.049C398.135 193.697 398.442 193.295 398.748 192.994C401.917 190.28 405.085 187.567 408.254 184.804Z" fill="#648BB4"/>
<path d="M441.73 129.985C442.649 129.784 443.569 129.684 444.131 130.689C444.438 131.342 444.336 131.945 443.825 132.498C442.956 133.352 442.19 132.849 441.372 132.397C441.014 131.543 441.116 130.739 441.73 129.985Z" fill="#0F0A09"/>
<path d="M461.355 131.593C461.253 132.498 460.793 133.101 459.771 133.151C458.851 133.151 458.289 132.648 458.187 131.844C458.085 130.89 458.698 130.186 459.618 130.086C460.64 129.985 461.202 130.588 461.355 131.593Z" fill="#0F0909"/>
<path d="M475.36 104.863C455.939 104.863 436.568 104.813 417.147 104.913C415.052 104.913 414.387 104.461 414.438 102.3C414.541 81.1972 414.49 60.1443 414.438 39.0411C414.438 37.0815 414.95 36.5288 416.994 36.5288C455.99 36.5791 494.986 36.5791 533.93 36.5288C535.77 36.5288 536.384 36.9308 536.384 38.8401C536.333 59.9935 536.281 81.1972 536.384 102.351C536.384 104.561 535.617 104.913 533.624 104.863C514.151 104.813 494.781 104.863 475.36 104.863Z" fill="#FEFEFE"/>
<path d="M475.155 25.5246C455.836 25.5246 436.517 25.4743 417.198 25.5748C414.898 25.5748 414.336 24.9719 414.387 22.8113C414.54 17.4853 414.438 17.4853 419.907 17.4853C457.727 17.4853 495.496 17.5355 533.317 17.4351C535.821 17.4351 536.435 18.0882 536.332 20.5C536.128 25.5748 536.281 25.5748 531.068 25.5748C512.465 25.5246 493.81 25.5246 475.155 25.5246Z" fill="#FEFEFE"/>
<path d="M574.05 378.501C577.781 378.501 581.563 378.551 585.294 378.501C586.725 378.451 587.236 378.903 587.236 380.36C587.185 386.289 587.185 392.268 587.236 398.197C587.236 399.554 586.674 399.905 585.396 399.905C577.627 399.855 569.91 399.855 562.141 399.905C560.864 399.905 560.301 399.554 560.353 398.197C560.404 392.268 560.404 386.289 560.353 380.36C560.353 378.903 560.864 378.501 562.295 378.501C566.23 378.551 570.165 378.501 574.05 378.501Z" fill="#FEFEFE"/>
<path d="M573.845 377.244C570.472 377.244 567.048 377.244 563.675 377.244C560.455 377.244 560.66 377.244 560.404 373.978C559.842 368.049 564.544 362.221 570.932 360.764C576.861 359.407 583.147 362.422 586.111 367.899C587.542 370.562 587.236 373.426 587.236 376.239C587.236 377.546 586.111 377.244 585.345 377.244C581.461 377.244 577.679 377.244 573.845 377.244Z" fill="#FEFEFE"/>
<path d="M536.281 411.411C533.981 411.411 531.681 411.311 529.381 411.462C527.899 411.512 527.49 410.959 527.541 409.603C527.592 405.08 527.592 400.558 527.541 396.036C527.541 394.78 527.899 394.278 529.279 394.278C534.134 394.328 538.989 394.328 543.845 394.278C545.225 394.278 545.582 394.73 545.582 396.036C545.531 400.558 545.531 405.08 545.582 409.603C545.582 411.009 545.225 411.562 543.743 411.462C541.187 411.311 538.734 411.411 536.281 411.411Z" fill="#FEFEFE"/>
<path d="M573.743 411.412C569.91 411.412 566.076 411.361 562.243 411.462C560.761 411.512 560.301 411.01 560.352 409.603C560.455 407.442 560.455 405.231 560.352 403.071C560.25 401.463 561.017 401.111 562.499 401.111C570.063 401.162 577.678 401.162 585.242 401.111C586.826 401.111 587.338 401.664 587.286 403.171C587.184 405.181 587.184 407.191 587.286 409.201C587.389 410.909 586.877 411.562 585.038 411.512C581.256 411.311 577.525 411.412 573.743 411.412Z" fill="#FEFEFE"/>
<path d="M536.536 382.821C538.939 382.821 541.29 382.872 543.692 382.771C545.174 382.721 545.634 383.274 545.532 384.68C545.429 386.941 545.429 389.202 545.532 391.464C545.583 392.72 545.174 393.222 543.794 393.222C538.939 393.172 534.134 393.172 529.279 393.222C527.899 393.222 527.49 392.77 527.541 391.464C527.643 388.7 526.672 385.233 528.001 383.424C529.33 381.615 533.061 383.073 535.77 382.821C536.025 382.821 536.281 382.821 536.536 382.821Z" fill="#FDFEFE"/>
<path d="M577.168 355.488C576.912 356.594 577.883 358.553 576.657 359.006C575.021 359.609 573.028 359.257 571.137 359.207C570.37 359.207 570.319 358.503 570.319 357.9C570.319 356.795 570.268 355.74 570.319 354.634C570.37 350.414 569.757 350.916 574.101 350.916C577.781 350.966 577.117 350.363 577.168 355.488Z" fill="#FAFBFC"/>
</svg>
