
<svg width="231" height="84" viewBox="0 0 231 84" fill="none" xmlns="http://www.w3.org/2000/svg">
<path d="M16.8724 58.8027C9.03665 63.221 5.82199 77.3965 1 86.4173H231.25V24.0082C229.241 24.0082 221.606 15.4476 214.574 19.3137C207.542 23.1797 205.533 68.4678 193.478 70.1247C181.423 71.7815 175.797 25.6651 161.13 27.3219C146.463 28.9788 150.08 71.6398 136.418 73.1623C122.755 74.6848 111.303 -1.9496 99.248 1.08798C87.1931 4.12557 86.7912 38.3678 79.9601 43.6146C73.1289 48.8614 66.9005 36.1586 59.8685 38.6439C52.8364 41.1293 50.0236 68.4678 42.7906 69.5724C35.5576 70.677 24.7081 54.3843 16.8724 58.8027Z" fill="url(#paint0_linear_1192_10413)" fill-opacity="0.5"/>
<path d="M1 86.4173C5.82199 77.3965 9.03665 63.221 16.8724 58.8027C24.7081 54.3843 35.5576 70.677 42.7906 69.5724C50.0236 68.4678 52.8364 41.1293 59.8685 38.644C66.9005 36.1586 73.1289 48.8614 79.9601 43.6146C86.7912 38.3678 87.1931 4.12557 99.248 1.08798C111.303 -1.9496 122.755 74.6848 136.418 73.1623C150.08 71.6398 146.463 28.9788 161.13 27.3219C175.797 25.6651 181.423 71.7815 193.478 70.1247C205.533 68.4678 207.542 23.1797 214.574 19.3137C221.606 15.4476 229.241 24.0082 231.25 24.0082" stroke="#005BB2" stroke-width="1.99063"/>
<defs>
<linearGradient id="paint0_linear_1192_10413" x1="116.125" y1="1" x2="116.125" y2="98.5411" gradientUnits="userSpaceOnUse">
<stop stop-color="#C4E2FF"/>
<stop offset="1" stop-color="#ECF6FF"/>
</linearGradient>
</defs>
</svg>
